<svg width="200" height="50" viewBox="0 0 200 50" fill="none" xmlns="http://www.w3.org/2000/svg">
<g clip-path="url(#clip0)">
<path d="M81.802 16.9318C81.802 19.0064 80.1123 20.2956 77.416 20.2956H75.3831V22.864H73.0332V13.5547H77.4062C80.1123 13.5547 81.802 14.8439 81.802 16.9318ZM79.4358 16.9318C79.4358 15.9077 78.7135 15.3112 77.2853 15.3112H75.3831V18.5424H77.282C78.7135 18.5424 79.4358 17.9426 79.4358 16.9318Z" fill="#292A2A"/>
<path d="M86.3447 13.5547H88.6816V21.1075H93.7474V22.864H86.3447V13.5547Z" fill="#292A2A"/>
<path d="M104.68 20.8687H99.9933L99.0978 22.8572H96.7021L101.203 13.5479H103.513L108.027 22.8572H105.576L104.68 20.8687ZM103.945 19.2316L102.343 15.6689L100.742 19.2316H103.945Z" fill="#292A2A"/>
<path d="M113.56 15.3112H110.327V13.5547H119.116V15.3112H115.883V22.864H113.56V15.3112Z" fill="#292A2A"/>
<path d="M125.598 15.2847V17.7437H130.275V19.4704H125.598V22.864H123.261V13.5547H130.882V15.2847H125.598Z" fill="#292A2A"/>
<path d="M137.602 21.7606C139.347 21.7606 140.762 20.3258 140.762 18.5558C140.762 16.7859 139.347 15.3511 137.602 15.3511C135.856 15.3511 134.441 16.7859 134.441 18.5558C134.441 20.3258 135.856 21.7606 137.602 21.7606Z" fill="#00A2CE"/>
<path d="M151.342 22.864L149.381 20.2691H147.23V22.864H144.894V13.5547H149.263C151.963 13.5547 153.649 14.8439 153.649 16.9318C153.649 18.327 152.885 19.3511 151.574 19.8714L153.839 22.8541L151.342 22.864ZM149.149 15.3112H147.243V18.5557H149.149C150.577 18.5557 151.296 17.9426 151.296 16.9318C151.296 15.921 150.577 15.3112 149.149 15.3112Z" fill="#292A2A"/>
<path d="M167.585 22.864V17.2797L164.614 21.8797H163.562L160.588 17.3924V22.8574H158.395V13.5547H160.326L164.108 19.3378L167.83 13.5547H169.749L169.778 22.864H167.585Z" fill="#292A2A"/>
<path d="M181.707 20.8687H177.017L176.122 22.8572H173.729L178.23 13.5479H180.537L185.054 22.8572H182.603L181.707 20.8687ZM180.972 19.2316L179.371 15.6689L177.769 19.2316H180.972Z" fill="#292A2A"/>
<path d="M82.3054 27.7559V37.0619H79.9685V33.2473H75.3929V37.0619H73.0332V27.7559H75.3733V31.4246H79.9489V27.7559H82.3054Z" fill="#292A2A"/>
<path d="M86.9531 32.4088C86.9531 29.6448 89.29 27.5967 92.4765 27.5967C95.6631 27.5967 98.0032 29.6315 98.0032 32.4088C98.0032 35.186 95.6501 37.2209 92.4765 37.2209C89.303 37.2209 86.9531 35.1727 86.9531 32.4088ZM95.637 32.4088C95.637 30.639 94.2806 29.4261 92.4765 29.4261C90.6724 29.4261 89.3161 30.6357 89.3161 32.4088C89.3161 34.1818 90.6724 35.3915 92.4765 35.3915C94.2806 35.3915 95.637 34.1785 95.637 32.4088Z" fill="#292A2A"/>
<path d="M111.838 37.0619L111.822 31.4776L108.851 36.0776H107.798L104.84 31.5969V37.0619H102.647V27.7559H104.579L108.36 33.539L112.083 27.7559H114.002L114.031 37.0619H111.838Z" fill="#292A2A"/>
<path d="M127.127 35.3352V37.0619H119.31V27.7559H126.941V29.4825H121.63V31.5041H126.307V33.1811H121.63V35.3352H127.127Z" fill="#292A2A"/>
<path d="M16.374 22.1646C16.3198 22.1873 16.2641 22.2061 16.2073 22.2209C16.1824 22.2394 16.1562 22.256 16.1289 22.2706V32.3356H17.0408V23.6029L22.27 26.5856L22.7145 25.7802L16.374 22.1646Z" fill="#292A2A"/>
<path d="M17.0404 32.4981H16.1286C16.1077 32.4981 16.087 32.4939 16.0678 32.4857C16.0485 32.4775 16.0311 32.4655 16.0165 32.4503C16.0019 32.4352 15.9904 32.4173 15.9827 32.3976C15.975 32.3779 15.9713 32.3569 15.9717 32.3357V22.2708C15.9719 22.2414 15.9799 22.2127 15.9948 22.1876C16.0098 22.1625 16.0312 22.142 16.0567 22.1283L16.1253 22.0819H16.1645C16.2157 22.0688 16.266 22.0522 16.3149 22.0321C16.3363 22.0216 16.3597 22.0161 16.3835 22.0161C16.4073 22.0161 16.4308 22.0216 16.4522 22.0321L22.8024 25.6445C22.8209 25.6546 22.8371 25.6682 22.8503 25.6847C22.8634 25.7013 22.8731 25.7203 22.8789 25.7406C22.8847 25.761 22.8864 25.7824 22.8839 25.8034C22.8815 25.8245 22.8749 25.8448 22.8645 25.8633L22.4201 26.6719C22.3994 26.7095 22.3656 26.7379 22.3253 26.7514C22.2833 26.7625 22.2388 26.7566 22.2011 26.7349L17.2006 23.8914V32.349C17.1973 32.3897 17.179 32.4277 17.1493 32.4553C17.1196 32.483 17.0807 32.4982 17.0404 32.4981ZM16.2887 32.1667H16.8803V23.603C16.8797 23.5748 16.8867 23.5469 16.9005 23.5224C16.9143 23.4979 16.9344 23.4777 16.9587 23.4638C16.9832 23.4499 17.0108 23.4426 17.0388 23.4426C17.0669 23.4426 17.0944 23.4499 17.1189 23.4638L22.2207 26.3637L22.5083 25.8401L16.3606 22.3437L16.2887 22.3669V32.1667Z" fill="#292A2A"/>
<path d="M29.4763 39.839L29.3782 22.0356L22.9789 18.5326V36.1703L22.0703 35.9151V16.9849L30.2835 21.4854L30.3881 39.8357L29.4763 39.839Z" fill="#292A2A"/>
<path d="M29.4763 40.0013C29.4346 40.0004 29.3948 39.9835 29.365 39.954C29.3353 39.9244 29.3178 39.8844 29.3161 39.8422L29.2181 22.1349L23.139 18.8042V36.1701C23.1396 36.1953 23.1343 36.2202 23.1235 36.2429C23.1127 36.2656 23.0967 36.2853 23.077 36.3005C23.0572 36.3157 23.0341 36.326 23.0097 36.3304C22.9853 36.3348 22.9601 36.3333 22.9364 36.3259L22.0278 36.0707C21.9941 36.0613 21.9644 36.041 21.9432 36.0129C21.9219 35.9848 21.9103 35.9504 21.9102 35.915V16.9848C21.9102 16.9567 21.9175 16.9291 21.9313 16.9047C21.945 16.8803 21.9648 16.8599 21.9886 16.8456C22.0127 16.8325 22.0397 16.8257 22.067 16.8257C22.0944 16.8257 22.1213 16.8325 22.1455 16.8456L30.3587 21.3461C30.384 21.3593 30.4052 21.3793 30.4202 21.4038C30.4352 21.4283 30.4433 21.4565 30.4437 21.4853L30.5483 39.8389C30.548 39.881 30.5316 39.9214 30.5025 39.9515C30.4718 39.9819 30.431 39.9996 30.3881 40.0013H29.4763ZM22.9789 18.3866C23.0052 18.3865 23.0312 18.3933 23.0541 18.4065L29.4534 21.9062C29.4781 21.9207 29.4986 21.9414 29.5129 21.9664C29.5273 21.9914 29.5349 22.0198 29.5351 22.0487L29.6364 39.6897H30.2182L30.1168 21.598L22.2206 17.2731V35.8089L22.8089 35.9746V18.5324C22.8096 18.5045 22.8172 18.4771 22.8308 18.4528C22.8445 18.4285 22.864 18.4081 22.8874 18.3933C22.9169 18.3833 22.9483 18.3811 22.9789 18.3866Z" fill="#292A2A"/>
<path d="M22.4636 17.8231C22.3754 17.5215 22.2871 17.2166 22.2021 16.915L35.0106 9.7002L43.1454 14.1544C42.9231 14.3864 42.6976 14.615 42.4721 14.847L35.0139 10.764L22.4636 17.8231Z" fill="#292A2A"/>
<path d="M22.4599 17.9859H22.401C22.379 17.9761 22.3594 17.9615 22.3436 17.9432C22.3278 17.9249 22.3162 17.9032 22.3095 17.8798L22.0481 16.9684C22.0383 16.9334 22.0404 16.8961 22.054 16.8625C22.0676 16.8288 22.092 16.8008 22.1232 16.7828L34.9317 9.57133C34.9555 9.5591 34.9818 9.55273 35.0085 9.55273C35.0352 9.55273 35.0615 9.5591 35.0853 9.57133L43.2201 14.0255C43.2422 14.0364 43.2612 14.0527 43.2755 14.073C43.2897 14.0932 43.2988 14.1168 43.3018 14.1415C43.3064 14.1665 43.305 14.1922 43.2976 14.2164C43.2902 14.2407 43.277 14.2628 43.2593 14.2807L42.586 14.9766C42.5617 15.0017 42.53 15.0178 42.4957 15.0226C42.4614 15.0274 42.4265 15.0206 42.3965 15.0032L35.0166 10.9533L22.5383 17.9792C22.5131 17.9882 22.4861 17.9905 22.4599 17.9859ZM22.3912 16.9916L22.5579 17.5815L34.9382 10.6219C34.9618 10.6089 34.9882 10.602 35.015 10.602C35.0419 10.602 35.0683 10.6089 35.0918 10.6219L42.4422 14.6585L42.8834 14.2045L35.0101 9.89612L22.3912 16.9916Z" fill="#292A2A"/>
<path d="M22.0478 19.0063L16.1289 22.2641L16.1943 22.3834L16.5636 23.0761L22.4825 19.815L22.0478 19.0063Z" fill="#292A2A"/>
<path d="M16.5635 23.2384H16.5178C16.4775 23.2248 16.4437 23.1964 16.423 23.1589L15.9883 22.3469C15.9686 22.3091 15.9644 22.2649 15.9766 22.2239C15.9888 22.1829 16.0165 22.1485 16.0537 22.1282L21.9725 18.8704C21.9907 18.8599 22.0108 18.8532 22.0316 18.8507C22.0523 18.8482 22.0734 18.85 22.0935 18.8558C22.1136 18.8617 22.1323 18.8716 22.1486 18.8849C22.1649 18.8982 22.1783 18.9147 22.1882 18.9334L22.6229 19.7453C22.6375 19.7849 22.6375 19.8284 22.6229 19.8679C22.6173 19.8887 22.6074 19.9079 22.5939 19.9245C22.5803 19.9411 22.5635 19.9546 22.5445 19.9641L16.6289 23.2251C16.6081 23.2338 16.5859 23.2383 16.5635 23.2384ZM16.3445 22.3303L16.6289 22.8573L22.2667 19.7519L21.9823 19.225L16.3445 22.3303Z" fill="#292A2A"/>
<path d="M28.1036 36.1105L24.1816 33.7277V21.7339L28.1036 23.8549V36.1105ZM25.0837 33.204L27.1917 34.4833V24.4084L25.0837 23.2716V33.204Z" fill="#292A2A"/>
<path d="M28.1036 36.2827C28.0749 36.2817 28.0469 36.2738 28.0219 36.2595L24.0999 33.8767C24.0761 33.8624 24.0563 33.842 24.0426 33.8176C24.0288 33.7932 24.0216 33.7656 24.0215 33.7375V21.7338C24.0212 21.7056 24.0284 21.6779 24.0422 21.6534C24.0559 21.629 24.0759 21.6087 24.0999 21.5946C24.1241 21.5815 24.151 21.5747 24.1784 21.5747C24.2057 21.5747 24.2327 21.5815 24.2568 21.5946L28.1788 23.7189C28.2045 23.7324 28.2261 23.7529 28.2411 23.778C28.2561 23.8032 28.2639 23.832 28.2637 23.8614V36.1237C28.2633 36.1521 28.2556 36.1799 28.2412 36.2043C28.2269 36.2288 28.2065 36.2489 28.182 36.2629C28.1577 36.2754 28.1309 36.2822 28.1036 36.2827ZM24.3352 33.6314L27.9304 35.8221V23.9509L24.3352 22.0022V33.6314ZM27.195 34.6422C27.1664 34.6408 27.1385 34.6328 27.1133 34.6191L24.9889 33.3431C24.9651 33.3288 24.9453 33.3084 24.9316 33.284C24.9178 33.2596 24.9105 33.232 24.9105 33.2039V23.2616C24.9101 23.2338 24.9172 23.2065 24.931 23.1826C24.9449 23.1586 24.9649 23.139 24.9889 23.1257C25.0128 23.1117 25.0398 23.1044 25.0673 23.1044C25.0949 23.1044 25.1219 23.1117 25.1458 23.1257L27.2538 24.2658C27.2796 24.2792 27.3012 24.2997 27.3162 24.3248C27.3312 24.35 27.339 24.3789 27.3388 24.4083V34.4832C27.3372 34.5257 27.3198 34.5661 27.2901 34.5962C27.2604 34.6263 27.2206 34.6439 27.1787 34.6456L27.195 34.6422ZM25.234 33.1078L27.0218 34.1949V24.5044L25.234 23.54V33.1078Z" fill="#292A2A"/>
<path d="M20.7996 32.3059L18.332 30.8211V26.6719L20.7996 28.1201V32.3059ZM19.2406 30.2942L19.8943 30.6853V28.6504L19.2406 28.2693V30.2942Z" fill="#292A2A"/>
<path d="M40.4565 22.2427L32.2383 26.9097L32.6838 27.7164L40.9021 23.0495L40.4565 22.2427Z" fill="#292A2A"/>
<path d="M32.6834 27.8752C32.6553 27.8751 32.6277 27.8673 32.6036 27.8528C32.5795 27.8382 32.5596 27.8173 32.5461 27.7923L32.1017 27.0035C32.0907 26.9854 32.0836 26.9652 32.0806 26.9442C32.0777 26.9232 32.079 26.9018 32.0845 26.8813C32.09 26.8608 32.0996 26.8417 32.1127 26.8251C32.1257 26.8085 32.142 26.7948 32.1605 26.7848L40.3802 22.1152C40.3987 22.1047 40.419 22.0979 40.44 22.0954C40.461 22.0928 40.4823 22.0945 40.5027 22.1004C40.5231 22.1063 40.5421 22.1161 40.5586 22.1295C40.5752 22.1429 40.589 22.1594 40.5992 22.1782L41.0437 22.9835C41.0517 23.0029 41.0558 23.0238 41.0558 23.0448C41.0558 23.0659 41.0517 23.0867 41.0437 23.1061C41.0386 23.1267 41.0293 23.1458 41.0163 23.1624C41.0034 23.179 40.9871 23.1926 40.9685 23.2023L32.7488 27.8718C32.7274 27.8774 32.7052 27.8785 32.6834 27.8752ZM32.4579 26.9704L32.7455 27.494L40.6777 22.9835L40.3868 22.4599L32.4579 26.9704Z" fill="#292A2A"/>
<path d="M40.7205 27.4473L32.0986 32.3735L32.5463 33.1791L41.1681 28.2528L40.7205 27.4473Z" fill="#292A2A"/>
<path d="M32.5491 33.3367C32.5351 33.3398 32.5206 33.3398 32.5066 33.3367C32.4863 33.3317 32.4673 33.3223 32.4509 33.3092C32.4345 33.296 32.4212 33.2794 32.4118 33.2605L31.9641 32.4585C31.9537 32.4398 31.947 32.4192 31.9445 32.3979C31.942 32.3765 31.9437 32.3549 31.9494 32.3343C31.9552 32.3136 31.965 32.2944 31.9781 32.2776C31.9913 32.2608 32.0076 32.2468 32.0262 32.2364L40.6446 27.3116C40.6628 27.3005 40.6829 27.2932 40.7039 27.2902C40.7249 27.2871 40.7462 27.2884 40.7667 27.294C40.7872 27.2996 40.8063 27.3093 40.823 27.3226C40.8396 27.3359 40.8535 27.3524 40.8636 27.3713L41.3114 28.1766C41.3314 28.2141 41.3361 28.2579 41.3244 28.2989C41.3128 28.3398 41.2858 28.3744 41.2493 28.3954L32.6275 33.3234C32.6029 33.3346 32.5759 33.3392 32.5491 33.3367ZM32.3203 32.4319L32.6112 32.9556L40.9551 28.1866L40.6773 27.6662L32.3203 32.4319Z" fill="#292A2A"/>
<path d="M30.3733 40.9295L12.6689 30.5663L13.1265 29.7676L30.3864 39.8723L47.241 30.4635L47.6822 31.2722L30.3733 40.9295Z" fill="#292A2A"/>
<path d="M30.3758 41.0917C30.3474 41.0918 30.3194 41.085 30.2941 41.0718L12.5898 30.7053C12.5528 30.6834 12.5258 30.6477 12.5146 30.6059C12.5003 30.5663 12.5003 30.5228 12.5146 30.4832L12.9721 29.6845C12.9933 29.648 13.0277 29.6214 13.068 29.6102C13.1083 29.5991 13.1513 29.6043 13.1879 29.6249L30.3725 39.6832L47.165 30.3175C47.1842 30.3094 47.2047 30.3052 47.2255 30.3052C47.2463 30.3052 47.2668 30.3094 47.286 30.3175C47.3276 30.3301 47.3628 30.3586 47.384 30.3971L47.822 31.2057C47.8419 31.2431 47.8466 31.287 47.835 31.328C47.8234 31.3689 47.7964 31.4035 47.7599 31.4244L30.4379 41.0818C30.4181 41.0895 30.397 41.0929 30.3758 41.0917ZM12.897 30.5064L30.3856 40.7437L47.4755 31.209L47.1912 30.6821L30.4739 40.0113C30.4502 40.026 30.4231 40.0337 30.3954 40.0337C30.3677 40.0337 30.3406 40.026 30.317 40.0113L13.1846 29.9861L12.897 30.5064Z" fill="#292A2A"/>
<path d="M12.3116 32.7275L11.8574 33.5293L30.5598 44.4212L31.014 43.6194L12.3116 32.7275Z" fill="#292A2A"/>
<path d="M30.5623 44.5683C30.5346 44.5673 30.5077 44.5593 30.4838 44.5451L11.7794 33.6549C11.7431 33.6328 11.7168 33.5973 11.7058 33.5559C11.6948 33.5145 11.7001 33.4704 11.7205 33.4329L12.1748 32.6342C12.1842 32.6152 12.1976 32.5986 12.2139 32.5855C12.2303 32.5723 12.2493 32.5629 12.2696 32.558C12.2897 32.5516 12.311 32.5497 12.3319 32.5526C12.3528 32.5554 12.3728 32.5629 12.3905 32.5745L31.095 43.4647C31.1135 43.4747 31.1297 43.4884 31.1428 43.505C31.1559 43.5216 31.1655 43.5407 31.171 43.5612C31.1765 43.5817 31.1778 43.6031 31.1748 43.6241C31.1719 43.6451 31.1647 43.6653 31.1538 43.6834L30.6995 44.4854C30.6861 44.5104 30.6662 44.5313 30.6421 44.5459C30.6179 44.5605 30.5904 44.5682 30.5623 44.5683ZM12.0768 33.4561L30.5034 44.1838L30.7976 43.6635L12.3709 32.9358L12.0768 33.4561Z" fill="#292A2A"/>
<path d="M30.2997 40.8694L12.5234 30.5526L12.9745 29.7539L30.3095 39.8122L48.6087 29.6743L49.0466 30.4863L30.2997 40.8694Z" fill="#292A2A"/>
<path d="M30.2997 41.032C30.2719 41.0325 30.2445 41.0244 30.2213 41.0088L12.445 30.6953C12.4081 30.6734 12.3811 30.6377 12.3699 30.5959C12.3636 30.5754 12.3618 30.5539 12.3646 30.5327C12.3674 30.5115 12.3748 30.4912 12.3862 30.4732L12.8372 29.6712C12.859 29.6345 12.894 29.6077 12.9349 29.5966C12.9757 29.5855 13.0192 29.5908 13.0562 29.6116L30.3128 39.6268L48.5205 29.532C48.5579 29.5116 48.6017 29.5067 48.6425 29.5185C48.6834 29.5302 48.7182 29.5577 48.7394 29.595L49.1741 30.4069C49.1829 30.4262 49.1875 30.4471 49.1875 30.4683C49.1875 30.4894 49.1829 30.5104 49.1741 30.5296C49.1685 30.5498 49.1589 30.5688 49.146 30.5853C49.1331 30.6018 49.1171 30.6155 49.099 30.6257L30.3488 41.0121C30.3337 41.0216 30.3171 41.0283 30.2997 41.032ZM12.7425 30.4931L30.303 40.684L48.831 30.4103L48.5466 29.8833L30.388 39.945C30.3641 39.9589 30.3371 39.9663 30.3095 39.9663C30.282 39.9663 30.2549 39.9589 30.2311 39.945L13.0366 29.9861L12.7425 30.4931Z" fill="#292A2A"/>
<path d="M48.6964 32.7002L29.916 43.5405L30.3671 44.3441L49.1475 33.5038L48.6964 32.7002Z" fill="#292A2A"/>
<path d="M30.3713 44.4954C30.343 44.4959 30.3151 44.4888 30.2904 44.4748C30.2657 44.4608 30.2451 44.4405 30.2307 44.4158L29.7797 43.6138C29.7717 43.5944 29.7676 43.5735 29.7676 43.5525C29.7676 43.5315 29.7717 43.5106 29.7797 43.4912C29.7848 43.4702 29.7941 43.4506 29.807 43.4335C29.8199 43.4164 29.8362 43.4022 29.8549 43.3918L48.6378 32.5546C48.6556 32.5435 48.6755 32.5363 48.6963 32.5333C48.717 32.5303 48.7381 32.5316 48.7583 32.5372C48.7785 32.5428 48.7974 32.5525 48.8137 32.5658C48.8301 32.579 48.8436 32.5955 48.8535 32.6143L49.3045 33.4163C49.3247 33.4537 49.3305 33.4974 49.3208 33.5389C49.3085 33.5794 49.2817 33.6137 49.2457 33.635L30.4628 44.4755C30.4346 44.4905 30.403 44.4974 30.3713 44.4954ZM30.1392 43.5939L30.4301 44.1142L48.9352 33.4362L48.641 32.9158L30.1392 43.5939Z" fill="#292A2A"/>
<path d="M30.2839 39.8423L29.3721 39.8357L29.493 21.4921L43.1446 13.6509L43.1152 33.5455H42.2066L42.2328 15.235L30.3983 22.0323L30.2839 39.8423Z" fill="#292A2A"/>
<path d="M30.2846 40.0013H29.3727C29.3308 40.0004 29.2909 39.9829 29.2616 39.9526C29.2322 39.9222 29.2158 39.8814 29.2158 39.8389L29.3335 21.4953C29.3342 21.4669 29.3421 21.4392 29.3564 21.4149C29.3707 21.3905 29.391 21.3703 29.4152 21.3561L43.0669 13.5149C43.0913 13.501 43.1189 13.4937 43.1469 13.4937C43.175 13.4937 43.2026 13.501 43.227 13.5149C43.2513 13.5287 43.2714 13.549 43.2852 13.5735C43.2991 13.598 43.306 13.6259 43.3054 13.6541L43.2793 33.5388C43.2793 33.5818 43.2624 33.6231 43.2324 33.6536C43.2024 33.684 43.1616 33.7012 43.1192 33.7012H42.2073C42.1863 33.7014 42.1656 33.697 42.1464 33.6885C42.1273 33.6799 42.1101 33.6673 42.0962 33.6514C42.0659 33.6219 42.0483 33.5814 42.0471 33.5388L42.0733 15.5067L30.546 22.125L30.4316 39.8422C30.4317 39.8631 30.4277 39.8838 30.4198 39.9032C30.412 39.9225 30.4004 39.9401 30.3859 39.9549C30.3585 39.9819 30.3226 39.9983 30.2846 40.0013ZM29.5361 39.6699H30.1277L30.2421 22.0222C30.2421 21.9937 30.2498 21.9658 30.2641 21.9413C30.2785 21.9168 30.2991 21.8967 30.3238 21.883L42.155 15.0891C42.1792 15.0745 42.2069 15.0668 42.2351 15.0668C42.2633 15.0668 42.2909 15.0745 42.3151 15.0891C42.339 15.1034 42.3587 15.1238 42.3725 15.1482C42.3862 15.1726 42.3935 15.2002 42.3936 15.2283L42.3674 33.3764H42.9655L42.9917 13.9225L29.6603 21.5781L29.5361 39.6699Z" fill="#292A2A"/>
<path d="M200 50H0V0H200V50ZM2.55581 47.4117H197.447V2.58832H2.55581V47.4117Z" fill="#222323"/>
<path d="M60.9471 1.2959H58.3945V47.7995H60.9471V1.2959Z" fill="#222323"/>
</g>
<defs>
<clipPath id="clip0">
<rect width="200" height="50" fill="white"/>
</clipPath>
</defs>
</svg>
