<svg width="45" height="45" viewBox="0 0 45 45" fill="none" xmlns="http://www.w3.org/2000/svg">
<path d="M4.9196 17.4753C4.9196 17.4753 6.30952 15.6839 5.41062 13.1959C4.50858 10.7095 2.408 9.76514 2.408 9.76514C2.408 9.76514 0.836103 11.9001 1.71461 14.3238C2.59155 16.749 4.9196 17.4753 4.9196 17.4753Z" fill="#A8A8A8"/>
<path d="M8.77724 18.7476C8.77724 18.7476 11.2073 18.5531 12.5987 16.3804C13.9902 14.2093 12.9266 11.7809 12.9266 11.7809C12.9266 11.7809 10.6707 12.239 9.24159 14.4681C7.81402 16.6957 8.77724 18.7476 8.77724 18.7476Z" fill="#A8A8A8"/>
<path d="M9.02325 21.6183C7.89844 24.0137 9.12051 25.9244 9.12051 25.9244C9.12051 25.9244 11.5066 25.413 12.6016 23.0804C13.695 20.7446 12.3239 18.4762 12.3239 18.4762C12.3239 18.4762 10.1481 19.2229 9.02325 21.6183Z" fill="#A8A8A8"/>
<path d="M14.5155 23.5479C14.5155 23.5479 12.4181 24.4985 11.5239 26.9865C10.6297 29.4791 12.0243 31.2643 12.0243 31.2643C12.0243 31.2643 14.3492 30.5317 15.2215 28.105C16.0921 25.6782 14.5155 23.5479 14.5155 23.5479Z" fill="#A8A8A8"/>
<path d="M16.2633 36.6497C16.2633 36.6497 18.2807 35.2771 18.4172 32.7028C18.5521 30.127 16.4265 28.5426 16.4265 28.5426C16.4265 28.5426 14.6914 30.0564 14.5518 32.6981C14.4137 35.3383 16.2633 36.6497 16.2633 36.6497Z" fill="#A8A8A8"/>
<path d="M8.01788 12.6814C8.01788 12.6814 10.1687 11.9629 10.7993 9.39494C11.4315 6.82696 10.2094 4.87549 10.2094 4.87549C10.2094 4.87549 7.71824 5.77907 7.10172 8.28429C6.48676 10.788 8.01788 12.6814 8.01788 12.6814Z" fill="#A8A8A8"/>
<path d="M4.91794 22.9361C4.91794 22.9361 5.71644 20.8136 4.12415 18.7037C2.52871 16.5922 0.244593 16.3083 0.244593 16.3083C0.244593 16.3083 -0.62764 18.8119 0.925437 20.8701C2.47851 22.9298 4.91794 22.9361 4.91794 22.9361Z" fill="#A8A8A8"/>
<path d="M6.70018 28.5363C6.70018 28.5363 7.00609 26.2899 4.98552 24.5863C2.96181 22.8811 0.671417 23.1133 0.671417 23.1133C0.671417 23.1133 0.376489 25.7487 2.34686 27.41C4.32036 29.0697 6.70018 28.5363 6.70018 28.5363Z" fill="#A8A8A8"/>
<path d="M9.41406 33.1672C9.41406 33.1672 9.02972 30.9333 6.58558 29.9231C4.13988 28.9097 2.02832 29.8243 2.02832 29.8243C2.02832 29.8243 2.54601 32.4252 4.9274 33.4135C7.30878 34.397 9.41406 33.1672 9.41406 33.1672Z" fill="#A8A8A8"/>
<path d="M10.5999 35.0904C8.05218 34.3782 6.06299 35.5375 6.06299 35.5375C6.06299 35.5375 6.88659 38.0569 9.36837 38.7518C11.8533 39.4468 13.7954 37.9737 13.7954 37.9737C13.7954 37.9737 13.1475 35.8011 10.5999 35.0904Z" fill="#A8A8A8"/>
<path d="M8.28301 14.2124L7.15036 13.6555C7.09075 13.7794 1.26436 26.155 17.636 40.1495L18.4549 39.191C2.86763 25.8648 8.05397 14.6815 8.28301 14.2124Z" fill="#A8A8A8"/>
<path d="M40.08 17.4518C40.08 17.4518 38.6885 15.6604 39.5889 13.174C40.4878 10.686 42.59 9.74164 42.59 9.74164C42.59 9.74164 44.1603 11.8751 43.2818 14.3003C42.408 16.7255 40.08 17.4518 40.08 17.4518Z" fill="#A8A8A8"/>
<path d="M36.2228 18.7241C36.2228 18.7241 33.7928 18.528 32.3997 16.3569C31.0082 14.1858 32.0718 11.7574 32.0718 11.7574C32.0718 11.7574 34.3277 12.2155 35.7584 14.4431C37.186 16.6722 36.2228 18.7241 36.2228 18.7241Z" fill="#A8A8A8"/>
<path d="M35.976 21.5932C37.1008 23.9887 35.8787 25.8993 35.8787 25.8993C35.8787 25.8993 33.4926 25.3879 32.3961 23.0553C31.3042 20.7195 32.6737 18.4511 32.6737 18.4511C32.6737 18.4511 34.8512 19.1994 35.976 21.5932Z" fill="#A8A8A8"/>
<path d="M30.4839 23.5243C30.4839 23.5243 32.5798 24.4734 33.4755 26.966C34.3697 29.4571 32.9735 31.2423 32.9735 31.2423C32.9735 31.2423 30.6502 30.5082 29.778 28.0814C28.9057 25.6546 30.4839 23.5243 30.4839 23.5243Z" fill="#A8A8A8"/>
<path d="M28.7332 36.6246C28.7332 36.6246 26.7173 35.2535 26.5809 32.6777C26.4459 30.1019 28.5732 28.5159 28.5732 28.5159C28.5732 28.5159 30.3051 30.0297 30.4463 32.673C30.5859 35.3163 28.7332 36.6246 28.7332 36.6246Z" fill="#A8A8A8"/>
<path d="M36.9787 12.6579C36.9787 12.6579 34.8311 11.9394 34.2004 9.37142C33.5682 6.80345 34.7918 4.8504 34.7918 4.8504C34.7918 4.8504 37.283 5.75398 37.898 8.26078C38.5129 10.7629 36.9787 12.6579 36.9787 12.6579Z" fill="#A8A8A8"/>
<path d="M40.0818 22.9125C40.0818 22.9125 39.2833 20.7901 40.874 18.6801C42.4694 16.5687 44.7551 16.2847 44.7551 16.2847C44.7551 16.2847 45.6289 18.7884 44.0743 20.8465C42.5196 22.9062 40.0818 22.9125 40.0818 22.9125Z" fill="#A8A8A8"/>
<path d="M38.2994 28.5128C38.2994 28.5128 37.992 26.2664 40.0141 24.5597C42.0378 22.8561 44.3282 23.0882 44.3282 23.0882C44.3282 23.0882 44.6231 25.7252 42.6512 27.3849C40.6793 29.0446 38.2994 28.5128 38.2994 28.5128Z" fill="#A8A8A8"/>
<path d="M35.584 33.1437C35.584 33.1437 35.9699 30.9083 38.414 29.8965C40.8613 28.8831 42.9713 29.7976 42.9713 29.7976C42.9713 29.7976 42.4536 32.3986 40.0722 33.3853C37.6893 34.3736 35.584 33.1437 35.584 33.1437Z" fill="#A8A8A8"/>
<path d="M34.398 35.0669C36.9457 34.3563 38.9364 35.514 38.9364 35.514C38.9364 35.514 38.1144 38.0318 35.631 38.7314C33.1477 39.4232 31.2056 37.9502 31.2056 37.9502C31.2056 37.9502 31.8519 35.7791 34.398 35.0669Z" fill="#A8A8A8"/>
<path d="M36.7151 14.189L37.8509 13.6321C37.9105 13.756 43.7369 26.1316 27.3637 40.1244L26.5464 39.166C42.1305 25.8429 36.9442 14.6564 36.7151 14.189Z" fill="#A8A8A8"/>
</svg>
