<svg width="15" height="15" viewBox="0 0 15 15" fill="none" xmlns="http://www.w3.org/2000/svg">
<path d="M14.345 0H10.4148C10.0218 0 9.75983 0.262009 9.75983 0.655022C9.75983 1.04804 10.0218 1.31004 10.4148 1.31004H13.1659L9.56332 4.91266C9.36681 5.10917 9.36681 5.50218 9.56332 5.76419C9.69432 5.82969 9.89083 5.8952 10.0218 5.8952C10.1528 5.8952 10.3493 5.82969 10.4148 5.69869L13.69 2.42358V4.58515C13.69 4.97817 13.952 5.24017 14.345 5.24017C14.738 5.24017 15 4.97817 15 4.58515V0.655022C15 0.262009 14.738 0 14.345 0Z" fill="white"/>
<path d="M12.3799 15H12.1834C10.0873 14.738 7.99127 14.0175 6.22271 12.9039C4.58515 11.8559 3.1441 10.4148 2.09607 8.77729C0.917031 7.00873 0.196507 4.91266 0 2.81659C0 2.29258 0.131004 1.76856 0.458515 1.37555C0.786026 0.982533 1.24454 0.720524 1.76856 0.655022H1.96507H3.93013C4.91266 0.655022 5.76419 1.37555 5.8952 2.35808C5.9607 2.9476 6.0917 3.53712 6.28821 4.06114C6.55022 4.78166 6.35371 5.56769 5.82969 6.15721L5.37118 6.61572C6.15721 7.79476 7.13974 8.84279 8.38428 9.62882L8.8428 9.17031C9.36681 8.64629 10.2183 8.44978 10.9389 8.71179C11.4629 8.9083 12.0524 9.0393 12.6419 9.1048C13.6245 9.23581 14.345 10.0873 14.345 11.0699V13.0349C14.345 13.559 14.1485 14.083 13.7555 14.4105C13.3624 14.738 12.9039 15 12.3799 15Z" fill="white"/>
</svg>
