<svg width="200" height="111" viewBox="0 0 200 111" fill="none" xmlns="http://www.w3.org/2000/svg">
<g clip-path="url(#clip0)">
<path d="M9.89494 88.6713C9.89494 90.9802 7.98646 92.4255 4.94042 92.4255H2.64178V95.2788H0V84.917H4.94042C7.98646 84.917 9.89494 86.353 9.89494 88.6713ZM7.22025 88.6713C7.22025 87.5356 6.40703 86.8692 4.79 86.8692H2.64178V90.4639H4.79C6.40703 90.4639 7.22025 89.7976 7.22025 88.6713Z" fill="#2D2D2D"/>
<path d="M15.0278 84.917H17.6696V93.3172H23.3762V95.2694H15.0278V84.917Z" fill="#2D2D2D"/>
<path d="M35.7486 93.0497H30.4274L29.4168 95.2694H26.7139L31.8376 84.917H34.4465L39.5467 95.2694H36.778L35.7486 93.0497ZM34.9166 91.2336L33.1068 87.2681L31.297 91.2336H34.9166Z" fill="#2D2D2D"/>
<path d="M45.7706 86.8692H42.1182V84.917H52.0507V86.8692H48.3983V95.2694H45.7565L45.7706 86.8692Z" fill="#2D2D2D"/>
<path d="M59.3839 86.841V89.577H64.6627V91.4964H59.3839V95.2506H56.7515V84.917H65.3725V86.841H59.3839Z" fill="#2D2D2D"/>
<path d="M76.4344 91.3123C76.8893 89.3956 75.7017 87.4737 73.7818 87.0195C71.8619 86.5654 69.9368 87.751 69.4819 89.6677C69.027 91.5844 70.2146 93.5063 72.1345 93.9605C74.0544 94.4146 75.9795 93.229 76.4344 91.3123Z" fill="#5AA0CB"/>
<path d="M88.4668 95.2694L86.2669 92.388H83.8413V95.2694H81.1948V84.917H86.1352C89.1813 84.917 91.0898 86.353 91.0898 88.6713C91.1043 89.3984 90.8835 90.1109 90.46 90.7027C90.0366 91.2945 89.4331 91.7342 88.7394 91.9563L91.3013 95.2835L88.4668 95.2694ZM85.9895 86.8692H83.8413V90.478H85.9895C87.6066 90.478 88.4198 89.7976 88.4198 88.6713C88.4198 87.545 87.6066 86.8692 85.9895 86.8692Z" fill="#2D2D2D"/>
<path d="M106.823 95.2694V89.0561L103.462 94.176H102.273L98.9162 89.1922V95.2694H96.439V84.917H98.6248L102.893 91.3509L107.1 84.917H109.267L109.3 95.2694H106.823Z" fill="#2D2D2D"/>
<path d="M122.782 93.0497H117.484L116.474 95.2694H113.766L118.852 84.917H121.461L126.561 95.2694H123.793L122.782 93.0497ZM121.95 91.2336L120.14 87.2681L118.33 91.2336H121.95Z" fill="#2D2D2D"/>
<path d="M149.355 84.917V95.2694H146.713V91.0458H141.542V95.2694H138.9V84.917H141.542V88.9998H146.713V84.917H149.355Z" fill="#2D2D2D"/>
<path d="M154.601 90.0933C154.601 87.0148 157.242 84.7388 160.843 84.7388C164.444 84.7388 167.086 87.0007 167.086 90.0933C167.086 93.1859 164.43 95.4479 160.843 95.4479C157.256 95.4479 154.601 93.1812 154.601 90.0933ZM164.416 90.0933C164.416 88.127 162.879 86.7801 160.843 86.7801C158.808 86.7801 157.271 88.127 157.271 90.0933C157.271 92.0596 158.808 93.4065 160.843 93.4065C162.879 93.4065 164.397 92.0596 164.397 90.0933H164.416Z" fill="#2D2D2D"/>
<path d="M182.73 95.2694V89.0561L179.373 94.176H178.184L174.842 89.1922V95.2694H172.365V84.917H174.546L178.819 91.3509L183.049 84.917H185.216L185.249 95.2694H182.73Z" fill="#2D2D2D"/>
<path d="M199.995 93.3453V95.2694H191.163V84.917H199.784V86.841H193.786V89.0889H199.083V90.9661H193.786V93.3594L199.995 93.3453Z" fill="#2D2D2D"/>
<path d="M40.9714 109.841V107.143L39.5612 109.311H38.5929L37.1827 107.236V109.841H35.1802V103.923H36.9853L39.11 107.077L41.1783 103.923H42.9833V109.841H40.9714Z" fill="#2D2D2D"/>
<path d="M47.4065 109.578C46.8759 109.338 46.4221 108.956 46.095 108.475C45.7851 108.001 45.6201 107.448 45.6201 106.882C45.6201 106.316 45.7851 105.763 46.095 105.289C46.4221 104.808 46.8759 104.426 47.4065 104.186C48.0028 103.924 48.6471 103.789 49.2985 103.789C49.9499 103.789 50.5942 103.924 51.1905 104.186C51.7279 104.423 52.1886 104.805 52.5208 105.289C52.8307 105.763 52.9957 106.316 52.9957 106.882C52.9957 107.448 52.8307 108.001 52.5208 108.475C52.1937 108.956 51.7398 109.338 51.2093 109.578C50.613 109.84 49.9687 109.975 49.3173 109.975C48.6659 109.975 48.0216 109.84 47.4253 109.578H47.4065ZM50.0388 108.17C50.2587 108.05 50.4409 107.871 50.5653 107.654C50.6949 107.414 50.7628 107.145 50.7628 106.873C50.7628 106.6 50.6949 106.331 50.5653 106.091C50.4388 105.876 50.2571 105.697 50.0388 105.575C49.8106 105.455 49.5565 105.392 49.2985 105.392C49.0405 105.392 48.7864 105.455 48.5581 105.575C48.3399 105.697 48.1581 105.876 48.0317 106.091C47.9021 106.331 47.8342 106.6 47.8342 106.873C47.8342 107.145 47.9021 107.414 48.0317 107.654C48.1561 107.871 48.3383 108.05 48.5581 108.17C48.7864 108.29 49.0405 108.353 49.2985 108.353C49.5565 108.353 49.8106 108.29 50.0388 108.17Z" fill="#2D2D2D"/>
<path d="M62.759 108.292V111.014H60.7471V109.841H57.0383V111.014H55.0264V108.292H55.2144C55.4013 108.29 55.582 108.225 55.7271 108.108C55.8722 107.99 55.9732 107.827 56.0135 107.645C56.1993 107.021 56.3004 106.376 56.3144 105.725L56.3849 103.923H61.9223V108.292H62.759ZM58.0583 107.354C58.0052 107.686 57.8887 108.004 57.7152 108.292H59.727V105.477H58.2275V105.899C58.2102 106.384 58.1583 106.867 58.0724 107.344L58.0583 107.354Z" fill="#2D2D2D"/>
<path d="M71.8781 103.923L69.2598 108.377C68.9859 108.869 68.5932 109.285 68.1175 109.588C67.6713 109.862 67.1563 110.006 66.6321 110.001C66.2001 109.997 65.7722 109.917 65.3676 109.766L65.88 108.33C66.098 108.388 66.322 108.421 66.5475 108.428C66.6907 108.433 66.8332 108.407 66.9659 108.353C67.0913 108.292 67.2032 108.205 67.2949 108.1L64.7988 103.923H67.1163L68.4137 106.415L69.7534 103.923H71.8781Z" fill="#2D2D2D"/>
<path d="M80.4193 103.923V109.841H78.2569V105.472H76.7668V106.157C76.7589 106.855 76.6849 107.551 76.5459 108.236C76.4544 108.711 76.2275 109.149 75.8925 109.498C75.7126 109.66 75.5025 109.785 75.2743 109.865C75.046 109.946 74.804 109.981 74.5622 109.968C74.2458 109.967 73.9304 109.931 73.6221 109.86L73.7349 108.264C73.8162 108.271 73.898 108.271 73.9793 108.264C74.0813 108.27 74.1831 108.249 74.2752 108.205C74.3672 108.161 74.4465 108.094 74.5058 108.011C74.6378 107.807 74.7214 107.576 74.7502 107.335C74.8031 106.968 74.8345 106.598 74.8442 106.227L74.9289 103.918L80.4193 103.923Z" fill="#2D2D2D"/>
<path d="M88.8287 106.237C89.0503 106.408 89.2266 106.63 89.3422 106.884C89.4577 107.139 89.509 107.418 89.4915 107.696C89.5053 108.003 89.4435 108.309 89.3116 108.586C89.1796 108.863 88.9815 109.104 88.7347 109.287C88.1228 109.689 87.3975 109.883 86.6664 109.841H83.437V103.923H85.5993V105.739H86.9484C87.6124 105.699 88.2717 105.874 88.8287 106.237ZM87.0706 108.255C87.1464 108.19 87.2068 108.109 87.2475 108.018C87.2881 107.928 87.308 107.829 87.3057 107.729C87.3057 107.335 87.0518 107.138 86.5442 107.138H85.604V108.447H86.5442C86.737 108.448 86.9238 108.38 87.0706 108.255Z" fill="#2D2D2D"/>
<path d="M98.5357 103.923V109.841H96.3358V107.659H94.3051V109.841H92.1099V103.923H94.3051V106.021H96.3358V103.923H98.5357Z" fill="#2D2D2D"/>
<path d="M106.945 106.237C107.167 106.408 107.343 106.63 107.459 106.884C107.574 107.139 107.626 107.418 107.608 107.696C107.623 108.003 107.561 108.308 107.43 108.585C107.299 108.863 107.102 109.104 106.856 109.287C106.244 109.688 105.519 109.882 104.788 109.841H101.554V103.923H103.716V105.739H105.065C105.729 105.699 106.388 105.874 106.945 106.237ZM105.187 108.255C105.259 108.188 105.315 108.106 105.351 108.015C105.388 107.925 105.404 107.827 105.399 107.729C105.399 107.335 105.145 107.138 104.637 107.138H103.697V108.447H104.637C104.832 108.45 105.021 108.381 105.169 108.255H105.187ZM108.205 103.923H110.367V109.841H108.205V103.923Z" fill="#2D2D2D"/>
<path d="M118.8 108.335V109.841H113.385V103.923H118.683V105.43H115.543V106.12H118.302V107.56H115.543V108.335H118.8Z" fill="#2D2D2D"/>
<path d="M133.532 108.292V111.014H131.521V109.841H127.812V111.014H125.8V108.292H125.988C126.175 108.29 126.355 108.225 126.501 108.108C126.646 107.99 126.747 107.827 126.787 107.645C126.973 107.021 127.073 106.376 127.083 105.725L127.158 103.923H132.672V108.292H133.532ZM128.832 107.354C128.779 107.686 128.662 108.004 128.489 108.292H130.5V105.477H129.001V105.899C128.981 106.384 128.929 106.867 128.846 107.344L128.832 107.354Z" fill="#2D2D2D"/>
<path d="M137.556 109.578C137.025 109.337 136.57 108.955 136.24 108.475C135.93 108.001 135.765 107.448 135.765 106.882C135.765 106.316 135.93 105.762 136.24 105.289C136.57 104.808 137.025 104.427 137.556 104.186C138.149 103.925 138.789 103.791 139.436 103.791C140.084 103.791 140.724 103.925 141.317 104.186C141.848 104.427 142.303 104.808 142.633 105.289C142.943 105.762 143.108 106.316 143.108 106.882C143.108 107.448 142.943 108.001 142.633 108.475C142.303 108.955 141.848 109.337 141.317 109.578C140.724 109.838 140.084 109.973 139.436 109.973C138.789 109.973 138.149 109.838 137.556 109.578ZM140.189 108.17C140.407 108.05 140.588 107.871 140.71 107.654C140.84 107.414 140.908 107.145 140.908 106.872C140.908 106.6 140.84 106.331 140.71 106.091C140.586 105.875 140.406 105.697 140.189 105.575C139.959 105.455 139.705 105.392 139.446 105.392C139.187 105.392 138.932 105.455 138.703 105.575C138.485 105.697 138.303 105.875 138.177 106.091C138.05 106.332 137.984 106.6 137.984 106.872C137.984 107.145 138.05 107.413 138.177 107.654C138.301 107.871 138.483 108.05 138.703 108.17C138.932 108.29 139.187 108.353 139.446 108.353C139.705 108.353 139.959 108.29 140.189 108.17Z" fill="#2D2D2D"/>
<path d="M151.602 109.841V107.143L150.192 109.311H149.223L147.813 107.236V109.841H145.811V103.923H147.62L149.74 107.077L151.809 103.923H153.585V109.841H151.602Z" fill="#2D2D2D"/>
<path d="M161.215 108.809H158.756L158.319 109.841H156.082L158.93 103.923H161.092L163.927 109.841H161.657L161.215 108.809ZM160.608 107.373L159.974 105.885L159.339 107.373H160.608Z" fill="#2D2D2D"/>
<path d="M68.9731 28.4199C68.8471 28.4707 68.7184 28.5146 68.5876 28.5513C68.5265 28.5889 68.4701 28.6311 68.4043 28.664V51.6261H70.5149V31.7049L82.6568 38.5002L83.6909 36.6653L68.9731 28.4199Z" fill="#2D2D2D"/>
<path d="M99.3539 68.7782L99.1236 28.1616L84.2976 20.1837V60.4202L82.187 59.6647V16.6172L101.225 26.8804L101.465 68.7407L99.3539 68.7782Z" fill="#2D2D2D"/>
<path d="M112.173 0L82.187 16.6174C82.1916 16.7285 82.2089 16.8387 82.2387 16.9459C82.2757 17.0626 82.3295 17.1732 82.3985 17.2744L83.0943 18.5274L112.187 2.39805L129.466 11.7415L130.472 9.86438L112.173 0Z" fill="#2D2D2D"/>
<path d="M82.3656 21.0615L68.4233 28.6592L68.5738 28.9267L69.4293 30.5082L83.1459 23.0701C82.8826 22.399 82.6053 21.7326 82.3656 21.0615Z" fill="#2D2D2D"/>
<path d="M95.7668 60.2422L86.6475 54.8125V27.4438L95.7668 32.2822V60.2422ZM88.7722 53.6159L93.6562 56.5301V33.5352L88.7722 30.94V53.6159Z" fill="#2D2D2D"/>
<path d="M79.2488 51.5464L73.5234 48.1535V38.688L79.2488 41.973V51.5464ZM75.634 46.9521L77.1382 47.8437V43.2025L75.634 42.339V46.9521Z" fill="#2D2D2D"/>
<path d="M106.978 40.9781V38.5659L124.549 28.7109V31.1278L106.978 40.9781Z" fill="#2D2D2D"/>
<path d="M106.978 53.264V50.8472L124.606 40.9312V43.348L106.978 53.264Z" fill="#2D2D2D"/>
<path d="M101.234 71.1248L61.2544 48.0829V45.6426L101.455 68.8253L138.628 48.3222C138.628 49.1247 138.628 49.9271 138.628 50.7249L101.234 71.1248Z" fill="#2D2D2D"/>
<path d="M85.5804 69.8483L61.2544 55.9011V53.4702L89.8158 69.8483H85.5804Z" fill="#2D2D2D"/>
<path d="M101.262 71.1062L60.0698 47.5715L61.1181 45.7413L101.285 68.6894L143.695 45.563L144.706 47.412L101.262 71.1062Z" fill="#2D2D2D"/>
<path d="M117.55 69.8487H113.286L138.628 55.4463V57.8725L117.55 69.8487Z" fill="#2D2D2D"/>
<path d="M129.889 9.64844L99.3911 26.8947L99.1138 68.7408H101.224L101.492 28.1101L128.911 12.6237L128.85 54.3901H130.961L131.027 10.2444C130.878 10.1271 130.721 10.0204 130.557 9.92531C130.344 9.81016 130.121 9.71737 129.889 9.64844Z" fill="#2D2D2D"/>
</g>
<defs>
<clipPath id="clip0">
<rect width="200" height="111" fill="white"/>
</clipPath>
</defs>
</svg>
