<svg width="15" height="15" viewBox="0 0 15 15" fill="none" xmlns="http://www.w3.org/2000/svg">
<path d="M11.7188 0C9.90938 0 8.4375 1.47188 8.4375 3.28125C8.4375 4.965 11.07 7.94719 11.37 8.28187C11.4591 8.38031 11.5856 8.4375 11.7188 8.4375C11.8519 8.4375 11.9784 8.38031 12.0675 8.28187C12.3675 7.94719 15 4.965 15 3.28125C15 1.47188 13.5281 0 11.7188 0ZM11.7188 4.6875C10.9425 4.6875 10.3125 4.0575 10.3125 3.28125C10.3125 2.505 10.9425 1.875 11.7188 1.875C12.495 1.875 13.125 2.505 13.125 3.28125C13.125 4.0575 12.495 4.6875 11.7188 4.6875Z" fill="#00A8D0"/>
<path d="M0.294375 5.50688C0.117188 5.57813 0 5.75063 0 5.94281V14.5312C0 14.6869 0.0778125 14.8322 0.20625 14.9194C0.285 14.9719 0.375937 15 0.46875 15C0.527812 15 0.586875 14.9887 0.643125 14.9662L4.6875 13.3481V3.75L0.294375 5.50688Z" fill="#00A8D0"/>
<path d="M12.765 8.90808C12.4988 9.20433 12.1172 9.37495 11.7188 9.37495C11.3203 9.37495 10.9387 9.20433 10.6725 8.90808C10.5769 8.80214 10.4541 8.66245 10.3125 8.49651V15L14.7056 13.2431C14.8837 13.1728 15 12.9993 15 12.8081V5.9165C14.2322 7.21682 13.2056 8.41682 12.765 8.90808Z" fill="#00A8D0"/>
<path d="M7.79531 4.61813L5.625 3.75V13.3481L9.375 14.8481V7.32C8.77594 6.51281 8.15062 5.54063 7.79531 4.61813Z" fill="#00A8D0"/>
</svg>
