<svg width="120" height="120" viewBox="0 0 120 120" fill="none" xmlns="http://www.w3.org/2000/svg">
<circle opacity="0.85" cx="60" cy="60" r="60" fill="#00A8D0"/>
<path d="M34.1732 58.12C33.4598 58.12 32.8132 57.9667 32.2332 57.66C31.6598 57.3467 31.2065 56.9167 30.8732 56.37C30.5465 55.8167 30.3832 55.1933 30.3832 54.5C30.3832 53.8067 30.5465 53.1867 30.8732 52.64C31.2065 52.0867 31.6598 51.6567 32.2332 51.35C32.8132 51.0367 33.4632 50.88 34.1832 50.88C34.7898 50.88 35.3365 50.9867 35.8232 51.2C36.3165 51.4133 36.7298 51.72 37.0632 52.12L36.0232 53.08C35.5498 52.5333 34.9632 52.26 34.2632 52.26C33.8298 52.26 33.4432 52.3567 33.1032 52.55C32.7632 52.7367 32.4965 53 32.3032 53.34C32.1165 53.68 32.0232 54.0667 32.0232 54.5C32.0232 54.9333 32.1165 55.32 32.3032 55.66C32.4965 56 32.7632 56.2667 33.1032 56.46C33.4432 56.6467 33.8298 56.74 34.2632 56.74C34.9632 56.74 35.5498 56.4633 36.0232 55.91L37.0632 56.87C36.7298 57.2767 36.3165 57.5867 35.8232 57.8C35.3298 58.0133 34.7798 58.12 34.1732 58.12ZM44.489 58L44.479 53.81L42.419 57.26H41.699L39.639 53.89V58H38.119V51H39.459L42.079 55.35L44.659 51H45.999L46.009 58H44.489ZM51.0879 58.12C50.3613 58.12 49.7046 57.9633 49.1179 57.65C48.5379 57.3367 48.0813 56.9067 47.7479 56.36C47.4213 55.8067 47.2579 55.1867 47.2579 54.5C47.2579 53.8133 47.4213 53.1967 47.7479 52.65C48.0813 52.0967 48.5379 51.6633 49.1179 51.35C49.7046 51.0367 50.3613 50.88 51.0879 50.88C51.8146 50.88 52.4679 51.0367 53.0479 51.35C53.6279 51.6633 54.0846 52.0967 54.4179 52.65C54.7513 53.1967 54.9179 53.8133 54.9179 54.5C54.9179 55.1867 54.7513 55.8067 54.4179 56.36C54.0846 56.9067 53.6279 57.3367 53.0479 57.65C52.4679 57.9633 51.8146 58.12 51.0879 58.12ZM51.0879 56.74C51.5013 56.74 51.8746 56.6467 52.2079 56.46C52.5413 56.2667 52.8013 56 52.9879 55.66C53.1813 55.32 53.2779 54.9333 53.2779 54.5C53.2779 54.0667 53.1813 53.68 52.9879 53.34C52.8013 53 52.5413 52.7367 52.2079 52.55C51.8746 52.3567 51.5013 52.26 51.0879 52.26C50.6746 52.26 50.3013 52.3567 49.9679 52.55C49.6346 52.7367 49.3713 53 49.1779 53.34C48.9913 53.68 48.8979 54.0667 48.8979 54.5C48.8979 54.9333 48.9913 55.32 49.1779 55.66C49.3713 56 49.6346 56.2667 49.9679 56.46C50.3013 56.6467 50.6746 56.74 51.0879 56.74ZM61.4182 52.32H59.1782V58H57.5782V52.32H55.3482V51H61.4182V52.32ZM65.4654 51C66.0854 51 66.6221 51.1033 67.0754 51.31C67.5354 51.5167 67.8888 51.81 68.1354 52.19C68.3821 52.57 68.5054 53.02 68.5054 53.54C68.5054 54.0533 68.3821 54.5033 68.1354 54.89C67.8888 55.27 67.5354 55.5633 67.0754 55.77C66.6221 55.97 66.0854 56.07 65.4654 56.07H64.0554V58H62.4354V51H65.4654ZM65.3754 54.75C65.8621 54.75 66.2321 54.6467 66.4854 54.44C66.7388 54.2267 66.8654 53.9267 66.8654 53.54C66.8654 53.1467 66.7388 52.8467 66.4854 52.64C66.2321 52.4267 65.8621 52.32 65.3754 52.32H64.0554V54.75H65.3754ZM74.9941 56.7V58H69.5741V51H74.8641V52.3H71.1841V53.82H74.4341V55.08H71.1841V56.7H74.9941ZM81.6526 52.32H79.4126V58H77.8126V52.32H75.5826V51H81.6526V52.32ZM86.0598 53.3C86.9131 53.3 87.5665 53.49 88.0198 53.87C88.4798 54.25 88.7098 54.8133 88.7098 55.56C88.7098 56.3533 88.4565 56.96 87.9498 57.38C87.4498 57.7933 86.7431 58 85.8298 58H82.6698V51H84.2798V53.3H86.0598ZM85.7398 56.8C86.1598 56.8 86.4865 56.6967 86.7198 56.49C86.9598 56.2833 87.0798 55.9833 87.0798 55.59C87.0798 54.8633 86.6331 54.5 85.7398 54.5H84.2798V56.8H85.7398ZM43.4407 70.12C42.7274 70.12 42.0807 69.9667 41.5007 69.66C40.9274 69.3467 40.4741 68.9167 40.1407 68.37C39.8141 67.8167 39.6507 67.1933 39.6507 66.5C39.6507 65.8067 39.8141 65.1867 40.1407 64.64C40.4741 64.0867 40.9274 63.6567 41.5007 63.35C42.0807 63.0367 42.7307 62.88 43.4507 62.88C44.0574 62.88 44.6041 62.9867 45.0907 63.2C45.5841 63.4133 45.9974 63.72 46.3307 64.12L45.2907 65.08C44.8174 64.5333 44.2307 64.26 43.5307 64.26C43.0974 64.26 42.7107 64.3567 42.3707 64.55C42.0307 64.7367 41.7641 65 41.5707 65.34C41.3841 65.68 41.2907 66.0667 41.2907 66.5C41.2907 66.9333 41.3841 67.32 41.5707 67.66C41.7641 68 42.0307 68.2667 42.3707 68.46C42.7107 68.6467 43.0974 68.74 43.5307 68.74C44.2307 68.74 44.8174 68.4633 45.2907 67.91L46.3307 68.87C45.9974 69.2767 45.5841 69.5867 45.0907 69.8C44.5974 70.0133 44.0474 70.12 43.4407 70.12ZM52.8066 68.7V70H47.3866V63H52.6766V64.3H48.9966V65.82H52.2466V67.08H48.9966V68.7H52.8066ZM57.1451 63C57.7651 63 58.3018 63.1033 58.7551 63.31C59.2151 63.5167 59.5685 63.81 59.8151 64.19C60.0618 64.57 60.1851 65.02 60.1851 65.54C60.1851 66.0533 60.0618 66.5033 59.8151 66.89C59.5685 67.27 59.2151 67.5633 58.7551 67.77C58.3018 67.97 57.7651 68.07 57.1451 68.07H55.7351V70H54.1151V63H57.1451ZM57.0551 66.75C57.5418 66.75 57.9118 66.6467 58.1651 66.44C58.4185 66.2267 58.5451 65.9267 58.5451 65.54C58.5451 65.1467 58.4185 64.8467 58.1651 64.64C57.9118 64.4267 57.5418 64.32 57.0551 64.32H55.7351V66.75H57.0551ZM61.2538 63H62.8638V67.56L66.2038 63H67.7238V70H66.1238V65.45L62.7838 70H61.2538V63ZM75.6467 62.88C76.3467 62.88 76.9767 63.0367 77.5367 63.35C78.1033 63.6633 78.5467 64.0967 78.8667 64.65C79.1867 65.1967 79.3467 65.8133 79.3467 66.5C79.3467 67.1867 79.1867 67.8067 78.8667 68.36C78.5467 68.9067 78.1033 69.3367 77.5367 69.65C76.9767 69.9633 76.3467 70.12 75.6467 70.12C75.02 70.12 74.4467 69.9967 73.9267 69.75C73.4067 69.4967 72.9767 69.1467 72.6367 68.7C72.3033 68.2467 72.09 67.73 71.9967 67.15H71.0767V70H69.4667V63H71.0767V65.75H72.0167C72.1233 65.19 72.3433 64.6933 72.6767 64.26C73.0167 63.82 73.4433 63.48 73.9567 63.24C74.47 63 75.0333 62.88 75.6467 62.88ZM75.6467 68.74C76.0333 68.74 76.3833 68.6467 76.6967 68.46C77.01 68.2733 77.2567 68.01 77.4367 67.67C77.6167 67.33 77.7067 66.94 77.7067 66.5C77.7067 66.06 77.6167 65.67 77.4367 65.33C77.2567 64.99 77.01 64.7267 76.6967 64.54C76.3833 64.3533 76.0333 64.26 75.6467 64.26C75.26 64.26 74.91 64.3533 74.5967 64.54C74.2833 64.7267 74.0367 64.99 73.8567 65.33C73.6767 65.67 73.5867 66.06 73.5867 66.5C73.5867 66.94 73.6767 67.33 73.8567 67.67C74.0367 68.01 74.2833 68.2733 74.5967 68.46C74.91 68.6467 75.26 68.74 75.6467 68.74Z" fill="white"/>
</svg>
