<svg width="200" height="50" viewBox="0 0 200 50" fill="none" xmlns="http://www.w3.org/2000/svg">
<g clip-path="url(#clip0)">
<path d="M81.802 16.9318C81.802 19.0064 80.1123 20.2956 77.416 20.2956H75.3831V22.864H73.0332V13.5547H77.4062C80.1123 13.5547 81.802 14.8439 81.802 16.9318ZM79.4358 16.9318C79.4358 15.9077 78.7135 15.3112 77.2853 15.3112H75.3831V18.5424H77.282C78.7135 18.5424 79.4358 17.9426 79.4358 16.9318Z" fill="white"/>
<path d="M86.3447 13.5547H88.6816V21.1075H93.7474V22.864H86.3447V13.5547Z" fill="white"/>
<path d="M104.68 20.8687H99.9933L99.0978 22.8572H96.7021L101.203 13.5479H103.513L108.027 22.8572H105.576L104.68 20.8687ZM103.945 19.2316L102.343 15.6689L100.742 19.2316H103.945Z" fill="white"/>
<path d="M113.56 15.3112H110.328V13.5547H119.116V15.3112H115.884V22.864H113.56V15.3112Z" fill="white"/>
<path d="M125.598 15.2847V17.7437H130.275V19.4704H125.598V22.864H123.261V13.5547H130.882V15.2847H125.598Z" fill="white"/>
<path d="M137.602 21.7606C139.347 21.7606 140.762 20.3258 140.762 18.5558C140.762 16.7859 139.347 15.3511 137.602 15.3511C135.856 15.3511 134.441 16.7859 134.441 18.5558C134.441 20.3258 135.856 21.7606 137.602 21.7606Z" fill="#00A8D0"/>
<path d="M151.341 22.864L149.38 20.2691H147.23V22.864H144.893V13.5547H149.263C151.962 13.5547 153.649 14.8439 153.649 16.9318C153.649 18.327 152.884 19.3511 151.573 19.8714L153.838 22.8541L151.341 22.864ZM149.148 15.3112H147.243V18.5557H149.148C150.577 18.5557 151.296 17.9426 151.296 16.9318C151.296 15.921 150.577 15.3112 149.148 15.3112Z" fill="white"/>
<path d="M167.585 22.864V17.2797L164.615 21.8797H163.562L160.588 17.3924V22.8574H158.395V13.5547H160.327L164.108 19.3378L167.831 13.5547H169.749L169.779 22.864H167.585Z" fill="white"/>
<path d="M181.707 20.8687H177.017L176.122 22.8572H173.729L178.23 13.5479H180.537L185.054 22.8572H182.603L181.707 20.8687ZM180.972 19.2316L179.371 15.6689L177.769 19.2316H180.972Z" fill="white"/>
<path d="M82.3054 27.7559V37.0619H79.9685V33.2473H75.3929V37.0619H73.0332V27.7559H75.3733V31.4246H79.9489V27.7559H82.3054Z" fill="white"/>
<path d="M86.9531 32.4088C86.9531 29.6448 89.29 27.5967 92.4765 27.5967C95.6631 27.5967 98.0032 29.6315 98.0032 32.4088C98.0032 35.186 95.6501 37.2209 92.4765 37.2209C89.303 37.2209 86.9531 35.1727 86.9531 32.4088ZM95.637 32.4088C95.637 30.639 94.2806 29.4261 92.4765 29.4261C90.6724 29.4261 89.3161 30.6357 89.3161 32.4088C89.3161 34.1818 90.6724 35.3915 92.4765 35.3915C94.2806 35.3915 95.637 34.1785 95.637 32.4088Z" fill="white"/>
<path d="M111.837 37.0619L111.821 31.4776L108.85 36.0776H107.798L104.84 31.5969V37.0619H102.647V27.7559H104.579L108.36 33.539L112.083 27.7559H114.001L114.03 37.0619H111.837Z" fill="white"/>
<path d="M127.127 35.3352V37.0619H119.309V27.7559H126.941V29.4825H121.63V31.5041H126.307V33.1811H121.63V35.3352H127.127Z" fill="white"/>
<path d="M16.3745 22.1646C16.3203 22.1873 16.2646 22.2061 16.2078 22.2209C16.1829 22.2394 16.1567 22.256 16.1294 22.2706V32.3356H17.0412V23.6029L22.2705 26.5856L22.715 25.7802L16.3745 22.1646Z" fill="white"/>
<path d="M17.0409 32.4981H16.1291C16.1082 32.4981 16.0875 32.4939 16.0683 32.4857C16.049 32.4775 16.0316 32.4655 16.017 32.4503C16.0024 32.4352 15.9909 32.4173 15.9832 32.3976C15.9755 32.3779 15.9718 32.3569 15.9722 32.3357V22.2708C15.9724 22.2414 15.9803 22.2127 15.9953 22.1876C16.0103 22.1625 16.0316 22.142 16.0572 22.1283L16.1258 22.0819H16.165C16.2162 22.0688 16.2664 22.0522 16.3154 22.0321C16.3368 22.0216 16.3602 22.0161 16.384 22.0161C16.4078 22.0161 16.4313 22.0216 16.4526 22.0321L22.8029 25.6445C22.8214 25.6546 22.8376 25.6682 22.8507 25.6847C22.8639 25.7013 22.8736 25.7203 22.8794 25.7406C22.8852 25.761 22.8869 25.7824 22.8844 25.8034C22.882 25.8245 22.8754 25.8448 22.865 25.8633L22.4205 26.6719C22.3999 26.7095 22.3661 26.7379 22.3258 26.7514C22.2838 26.7625 22.2393 26.7566 22.2016 26.7349L17.2011 23.8914V32.349C17.1978 32.3897 17.1795 32.4277 17.1498 32.4553C17.1201 32.483 17.0812 32.4982 17.0409 32.4981ZM16.2892 32.1667H16.8808V23.603C16.8802 23.5748 16.8872 23.5469 16.901 23.5224C16.9148 23.4979 16.9349 23.4777 16.9592 23.4638C16.9837 23.4499 17.0113 23.4426 17.0393 23.4426C17.0673 23.4426 17.0949 23.4499 17.1194 23.4638L22.2212 26.3637L22.5088 25.8401L16.3611 22.3437L16.2892 22.3669V32.1667Z" fill="white"/>
<path d="M29.4768 39.839L29.3787 22.0356L22.9794 18.5326V36.1703L22.0708 35.9151V16.9849L30.284 21.4854L30.3886 39.8357L29.4768 39.839Z" fill="white"/>
<path d="M29.4767 40.0013C29.4351 40.0004 29.3953 39.9835 29.3655 39.954C29.3358 39.9244 29.3183 39.8844 29.3166 39.8422L29.2185 22.1349L23.1395 18.8042V36.1701C23.1401 36.1953 23.1348 36.2202 23.124 36.2429C23.1132 36.2656 23.0972 36.2853 23.0775 36.3005C23.0577 36.3157 23.0346 36.326 23.0102 36.3304C22.9857 36.3348 22.9606 36.3333 22.9369 36.3259L22.0283 36.0707C21.9946 36.0613 21.9649 36.041 21.9437 36.0129C21.9224 35.9848 21.9108 35.9504 21.9106 35.915V16.9848C21.9107 16.9567 21.918 16.9291 21.9317 16.9047C21.9455 16.8803 21.9653 16.8599 21.9891 16.8456C22.0132 16.8325 22.0402 16.8257 22.0675 16.8257C22.0949 16.8257 22.1218 16.8325 22.146 16.8456L30.3592 21.3461C30.3845 21.3593 30.4057 21.3793 30.4207 21.4038C30.4357 21.4283 30.4438 21.4565 30.4442 21.4853L30.5487 39.8389C30.5485 39.881 30.5321 39.9214 30.503 39.9515C30.4722 39.9819 30.4315 39.9996 30.3886 40.0013H29.4767ZM22.9794 18.3866C23.0057 18.3865 23.0316 18.3933 23.0545 18.4065L29.4539 21.9062C29.4786 21.9207 29.4991 21.9414 29.5134 21.9664C29.5278 21.9914 29.5354 22.0198 29.5356 22.0487L29.6369 39.6897H30.2186L30.1173 21.598L22.2211 17.2731V35.8089L22.8094 35.9746V18.5324C22.8101 18.5045 22.8176 18.4771 22.8313 18.4528C22.845 18.4285 22.8645 18.4081 22.8879 18.3933C22.9173 18.3833 22.9488 18.3811 22.9794 18.3866Z" fill="white"/>
<path d="M22.4631 17.8231C22.3749 17.5215 22.2866 17.2166 22.2017 16.915L35.0101 9.7002L43.1449 14.1544C42.9226 14.3864 42.6971 14.615 42.4716 14.847L35.0134 10.764L22.4631 17.8231Z" fill="white"/>
<path d="M22.4599 17.9859H22.401C22.379 17.9761 22.3594 17.9615 22.3436 17.9432C22.3278 17.9249 22.3162 17.9032 22.3095 17.8798L22.0481 16.9684C22.0383 16.9334 22.0404 16.8961 22.054 16.8625C22.0676 16.8288 22.092 16.8008 22.1232 16.7828L34.9317 9.57133C34.9555 9.5591 34.9818 9.55273 35.0085 9.55273C35.0352 9.55273 35.0615 9.5591 35.0853 9.57133L43.2201 14.0255C43.2422 14.0364 43.2612 14.0527 43.2755 14.073C43.2897 14.0932 43.2988 14.1168 43.3018 14.1415C43.3064 14.1665 43.305 14.1922 43.2976 14.2164C43.2902 14.2407 43.277 14.2628 43.2593 14.2807L42.586 14.9766C42.5617 15.0017 42.53 15.0178 42.4957 15.0226C42.4614 15.0274 42.4265 15.0206 42.3965 15.0032L35.0166 10.9533L22.5383 17.9792C22.5131 17.9882 22.4861 17.9905 22.4599 17.9859ZM22.3912 16.9916L22.5579 17.5815L34.9382 10.6219C34.9618 10.6089 34.9882 10.602 35.015 10.602C35.0419 10.602 35.0683 10.6089 35.0918 10.6219L42.4422 14.6585L42.8834 14.2045L35.0101 9.89612L22.3912 16.9916Z" fill="white"/>
<path d="M22.0483 19.0063L16.1294 22.2641L16.1948 22.3834L16.5641 23.0761L22.483 19.815L22.0483 19.0063Z" fill="white"/>
<path d="M16.5635 23.2384H16.5178C16.4775 23.2248 16.4437 23.1964 16.423 23.1589L15.9883 22.3469C15.9686 22.3091 15.9644 22.2649 15.9766 22.2239C15.9888 22.1829 16.0165 22.1485 16.0537 22.1282L21.9725 18.8704C21.9907 18.8599 22.0108 18.8532 22.0316 18.8507C22.0523 18.8482 22.0734 18.85 22.0935 18.8558C22.1136 18.8617 22.1323 18.8716 22.1486 18.8849C22.1649 18.8982 22.1783 18.9147 22.1882 18.9334L22.6229 19.7453C22.6375 19.7849 22.6375 19.8284 22.6229 19.8679C22.6173 19.8887 22.6074 19.9079 22.5939 19.9245C22.5803 19.9411 22.5635 19.9546 22.5445 19.9641L16.6289 23.2251C16.6081 23.2338 16.5859 23.2383 16.5635 23.2384ZM16.3445 22.3303L16.6289 22.8573L22.2667 19.7519L21.9823 19.225L16.3445 22.3303Z" fill="white"/>
<path d="M28.1041 36.1105L24.1821 33.7277V21.7339L28.1041 23.8549V36.1105ZM25.0842 33.204L27.1922 34.4833V24.4084L25.0842 23.2716V33.204Z" fill="white"/>
<path d="M28.1041 36.2827C28.0754 36.2817 28.0474 36.2738 28.0224 36.2595L24.1004 33.8767C24.0766 33.8624 24.0568 33.842 24.0431 33.8176C24.0293 33.7932 24.0221 33.7656 24.022 33.7375V21.7338C24.0217 21.7056 24.0289 21.6779 24.0426 21.6534C24.0564 21.629 24.0764 21.6087 24.1004 21.5946C24.1246 21.5815 24.1515 21.5747 24.1789 21.5747C24.2062 21.5747 24.2332 21.5815 24.2573 21.5946L28.1792 23.7189C28.205 23.7324 28.2266 23.7529 28.2416 23.778C28.2566 23.8032 28.2644 23.832 28.2642 23.8614V36.1237C28.2638 36.1521 28.256 36.1799 28.2417 36.2043C28.2274 36.2288 28.207 36.2489 28.1825 36.2629C28.1582 36.2754 28.1314 36.2822 28.1041 36.2827ZM24.3357 33.6314L27.9309 35.8221V23.9509L24.3357 22.0022V33.6314ZM27.1955 34.6422C27.1669 34.6408 27.139 34.6328 27.1138 34.6191L24.9894 33.3431C24.9656 33.3288 24.9458 33.3084 24.9321 33.284C24.9183 33.2596 24.911 33.232 24.911 33.2039V23.2616C24.9106 23.2338 24.9177 23.2065 24.9315 23.1826C24.9454 23.1586 24.9654 23.139 24.9894 23.1257C25.0132 23.1117 25.0403 23.1044 25.0678 23.1044C25.0954 23.1044 25.1224 23.1117 25.1463 23.1257L27.2543 24.2658C27.2801 24.2792 27.3017 24.2997 27.3167 24.3248C27.3317 24.35 27.3395 24.3789 27.3393 24.4083V34.4832C27.3377 34.5257 27.3203 34.5661 27.2906 34.5962C27.2609 34.6263 27.2211 34.6439 27.1792 34.6456L27.1955 34.6422ZM25.2345 33.1078L27.0223 34.1949V24.5044L25.2345 23.54V33.1078Z" fill="white"/>
<path d="M20.7996 32.3059L18.332 30.8211V26.6719L20.7996 28.1201V32.3059ZM19.2406 30.2942L19.8943 30.6853V28.6504L19.2406 28.2693V30.2942Z" fill="white"/>
<path d="M40.456 22.2427L32.2378 26.9097L32.6833 27.7164L40.9016 23.0495L40.456 22.2427Z" fill="white"/>
<path d="M32.6834 27.8752C32.6553 27.8751 32.6277 27.8673 32.6036 27.8528C32.5795 27.8382 32.5596 27.8173 32.5461 27.7923L32.1017 27.0035C32.0907 26.9854 32.0836 26.9652 32.0806 26.9442C32.0777 26.9232 32.079 26.9018 32.0845 26.8813C32.09 26.8608 32.0996 26.8417 32.1127 26.8251C32.1257 26.8085 32.142 26.7948 32.1605 26.7848L40.3802 22.1152C40.3987 22.1047 40.419 22.0979 40.44 22.0954C40.461 22.0928 40.4823 22.0945 40.5027 22.1004C40.5231 22.1063 40.5421 22.1161 40.5586 22.1295C40.5752 22.1429 40.589 22.1594 40.5992 22.1782L41.0437 22.9835C41.0517 23.0029 41.0558 23.0238 41.0558 23.0448C41.0558 23.0659 41.0517 23.0867 41.0437 23.1061C41.0386 23.1267 41.0293 23.1458 41.0163 23.1624C41.0034 23.179 40.9871 23.1926 40.9685 23.2023L32.7488 27.8718C32.7274 27.8774 32.7052 27.8785 32.6834 27.8752ZM32.4579 26.9704L32.7455 27.494L40.6777 22.9835L40.3868 22.4599L32.4579 26.9704Z" fill="white"/>
<path d="M40.721 27.4473L32.0991 32.3735L32.5468 33.1791L41.1686 28.2528L40.721 27.4473Z" fill="white"/>
<path d="M32.5491 33.3367C32.5351 33.3398 32.5206 33.3398 32.5066 33.3367C32.4863 33.3317 32.4673 33.3223 32.4509 33.3092C32.4345 33.296 32.4212 33.2794 32.4118 33.2605L31.9641 32.4585C31.9537 32.4398 31.947 32.4192 31.9445 32.3979C31.942 32.3765 31.9437 32.3549 31.9494 32.3343C31.9552 32.3136 31.965 32.2944 31.9781 32.2776C31.9913 32.2608 32.0076 32.2468 32.0262 32.2364L40.6446 27.3116C40.6628 27.3005 40.6829 27.2932 40.7039 27.2902C40.7249 27.2871 40.7462 27.2884 40.7667 27.294C40.7872 27.2996 40.8063 27.3093 40.823 27.3226C40.8396 27.3359 40.8535 27.3524 40.8636 27.3713L41.3114 28.1766C41.3314 28.2141 41.3361 28.2579 41.3244 28.2989C41.3128 28.3398 41.2858 28.3744 41.2493 28.3954L32.6275 33.3234C32.6029 33.3346 32.5759 33.3392 32.5491 33.3367ZM32.3203 32.4319L32.6112 32.9556L40.9551 28.1866L40.6773 27.6662L32.3203 32.4319Z" fill="white"/>
<path d="M30.3723 40.9295L12.668 30.5663L13.1255 29.7676L30.3854 39.8723L47.24 30.4635L47.6812 31.2722L30.3723 40.9295Z" fill="white"/>
<path d="M30.3753 41.0917C30.3469 41.0918 30.3189 41.085 30.2936 41.0718L12.5893 30.7053C12.5523 30.6834 12.5254 30.6477 12.5141 30.6059C12.4999 30.5663 12.4999 30.5228 12.5141 30.4832L12.9717 29.6845C12.9928 29.648 13.0273 29.6214 13.0675 29.6102C13.1078 29.5991 13.1508 29.6043 13.1874 29.6249L30.3721 39.6832L47.1646 30.3175C47.1837 30.3094 47.2043 30.3052 47.225 30.3052C47.2458 30.3052 47.2663 30.3094 47.2855 30.3175C47.3271 30.3301 47.3623 30.3586 47.3835 30.3971L47.8215 31.2057C47.8415 31.2431 47.8462 31.287 47.8345 31.328C47.8229 31.3689 47.7959 31.4035 47.7594 31.4244L30.4374 41.0818C30.4176 41.0895 30.3965 41.0929 30.3753 41.0917ZM12.8965 30.5064L30.3851 40.7437L47.475 31.209L47.1907 30.6821L30.4734 40.0113C30.4498 40.026 30.4226 40.0337 30.3949 40.0337C30.3672 40.0337 30.3401 40.026 30.3165 40.0113L13.1841 29.9861L12.8965 30.5064Z" fill="white"/>
<path d="M12.3111 32.7275L11.8569 33.5293L30.5593 44.4212L31.0135 43.6194L12.3111 32.7275Z" fill="white"/>
<path d="M30.5618 44.5683C30.5341 44.5673 30.5072 44.5593 30.4833 44.5451L11.7789 33.6549C11.7426 33.6328 11.7163 33.5973 11.7053 33.5559C11.6943 33.5145 11.6996 33.4704 11.72 33.4329L12.1743 32.6342C12.1837 32.6152 12.1971 32.5986 12.2134 32.5855C12.2298 32.5723 12.2488 32.5629 12.2691 32.558C12.2892 32.5516 12.3105 32.5497 12.3314 32.5526C12.3523 32.5554 12.3723 32.5629 12.39 32.5745L31.0945 43.4647C31.113 43.4747 31.1293 43.4884 31.1423 43.505C31.1554 43.5216 31.165 43.5407 31.1705 43.5612C31.176 43.5817 31.1773 43.6031 31.1744 43.6241C31.1714 43.6451 31.1643 43.6653 31.1533 43.6834L30.699 44.4854C30.6856 44.5104 30.6657 44.5313 30.6416 44.5459C30.6174 44.5605 30.5899 44.5682 30.5618 44.5683ZM12.0763 33.4561L30.5029 44.1838L30.7971 43.6635L12.3704 32.9358L12.0763 33.4561Z" fill="white"/>
<path d="M30.3002 40.8694L12.5239 30.5526L12.975 29.7539L30.31 39.8122L48.6092 29.6743L49.0471 30.4863L30.3002 40.8694Z" fill="white"/>
<path d="M30.3002 41.032C30.2724 41.0325 30.245 41.0244 30.2218 41.0088L12.4455 30.6953C12.4086 30.6734 12.3816 30.6377 12.3704 30.5959C12.364 30.5754 12.3622 30.5539 12.3651 30.5327C12.3679 30.5115 12.3753 30.4912 12.3867 30.4732L12.8377 29.6712C12.8595 29.6345 12.8945 29.6077 12.9353 29.5966C12.9762 29.5855 13.0197 29.5908 13.0567 29.6116L30.3133 39.6268L48.521 29.532C48.5584 29.5116 48.6021 29.5067 48.643 29.5185C48.6839 29.5302 48.7187 29.5577 48.7399 29.595L49.1746 30.4069C49.1834 30.4262 49.1879 30.4471 49.1879 30.4683C49.1879 30.4894 49.1834 30.5104 49.1746 30.5296C49.169 30.5498 49.1594 30.5688 49.1465 30.5853C49.1336 30.6018 49.1176 30.6155 49.0994 30.6257L30.3492 41.0121C30.3342 41.0216 30.3176 41.0283 30.3002 41.032ZM12.7429 30.4931L30.3035 40.684L48.8315 30.4103L48.5471 29.8833L30.3885 39.945C30.3646 39.9589 30.3376 39.9663 30.31 39.9663C30.2825 39.9663 30.2554 39.9589 30.2316 39.945L13.0371 29.9861L12.7429 30.4931Z" fill="white"/>
<path d="M48.6969 32.7002L29.9165 43.5405L30.3676 44.3441L49.148 33.5038L48.6969 32.7002Z" fill="white"/>
<path d="M30.3722 44.4954C30.344 44.4959 30.3161 44.4888 30.2914 44.4748C30.2667 44.4608 30.2461 44.4405 30.2317 44.4158L29.7807 43.6138C29.7727 43.5944 29.7686 43.5735 29.7686 43.5525C29.7686 43.5315 29.7727 43.5106 29.7807 43.4912C29.7857 43.4702 29.795 43.4506 29.808 43.4335C29.8209 43.4164 29.8372 43.4022 29.8558 43.3918L48.6387 32.5546C48.6566 32.5435 48.6765 32.5363 48.6972 32.5333C48.718 32.5303 48.7391 32.5316 48.7593 32.5372C48.7795 32.5428 48.7983 32.5525 48.8147 32.5658C48.8311 32.579 48.8446 32.5955 48.8544 32.6143L49.3055 33.4163C49.3257 33.4537 49.3315 33.4974 49.3218 33.5389C49.3095 33.5794 49.2827 33.6137 49.2466 33.635L30.4638 44.4755C30.4356 44.4905 30.404 44.4974 30.3722 44.4954ZM30.1402 43.5939L30.4311 44.1142L48.9361 33.4362L48.642 32.9158L30.1402 43.5939Z" fill="white"/>
<path d="M30.2839 39.8423L29.3721 39.8357L29.493 21.4921L43.1446 13.6509L43.1152 33.5455H42.2066L42.2328 15.235L30.3983 22.0323L30.2839 39.8423Z" fill="white"/>
<path d="M30.2841 40.0013H29.3722C29.3303 40.0004 29.2904 39.9829 29.2611 39.9526C29.2317 39.9222 29.2153 39.8814 29.2153 39.8389L29.333 21.4953C29.3337 21.4669 29.3416 21.4392 29.3559 21.4149C29.3702 21.3905 29.3905 21.3703 29.4147 21.3561L43.0664 13.5149C43.0908 13.501 43.1184 13.4937 43.1464 13.4937C43.1745 13.4937 43.2021 13.501 43.2265 13.5149C43.2508 13.5287 43.2709 13.549 43.2847 13.5735C43.2986 13.598 43.3055 13.6259 43.305 13.6541L43.2788 33.5388C43.2788 33.5818 43.2619 33.6231 43.2319 33.6536C43.2019 33.684 43.1611 33.7012 43.1187 33.7012H42.2068C42.1859 33.7014 42.1651 33.697 42.1459 33.6885C42.1268 33.6799 42.1096 33.6673 42.0957 33.6514C42.0654 33.6219 42.0478 33.5814 42.0467 33.5388L42.0728 15.5067L30.5455 22.125L30.4311 39.8422C30.4312 39.8631 30.4272 39.8838 30.4193 39.9032C30.4115 39.9225 30.3999 39.9401 30.3854 39.9549C30.358 39.9819 30.3221 39.9983 30.2841 40.0013ZM29.5356 39.6699H30.1272L30.2416 22.0222C30.2417 21.9937 30.2493 21.9658 30.2637 21.9413C30.278 21.9168 30.2986 21.8967 30.3233 21.883L42.1545 15.0891C42.1787 15.0745 42.2064 15.0668 42.2346 15.0668C42.2628 15.0668 42.2904 15.0745 42.3147 15.0891C42.3385 15.1034 42.3583 15.1238 42.372 15.1482C42.3857 15.1726 42.393 15.2002 42.3931 15.2283L42.367 33.3764H42.9651L42.9912 13.9225L29.6598 21.5781L29.5356 39.6699Z" fill="white"/>
<path d="M200 50H0V0H200V50ZM2.55581 47.4117H197.447V2.58832H2.55581V47.4117Z" fill="white"/>
<path d="M60.9471 1.2959H58.3945V47.7995H60.9471V1.2959Z" fill="white"/>
</g>
<defs>
<clipPath id="clip0">
<rect width="200" height="50" fill="white"/>
</clipPath>
</defs>
</svg>
