<svg width="62" height="49" viewBox="0 0 62 49" fill="none" xmlns="http://www.w3.org/2000/svg">
<path d="M20.2331 22.9147C22.6418 23.9716 24.5206 25.5569 25.8695 27.6706C27.2183 29.7843 27.8928 32.2824 27.8928 35.1647C27.8928 39.2961 26.5921 42.6588 23.9907 45.2529C21.3893 47.751 18.0653 49 14.0186 49C9.97203 49 6.59984 47.7029 3.9021 45.1088C1.3007 42.5147 0 39.2 0 35.1647C0 33.2431 0.24087 31.3216 0.72261 29.4C1.20435 27.4784 2.26418 24.5961 3.9021 20.7529L12.2844 0H26.5921L20.2331 22.9147ZM54.3403 22.9147C56.749 23.9716 58.6278 25.5569 59.9767 27.6706C61.3256 29.7843 62 32.2824 62 35.1647C62 39.2961 60.6993 42.6588 58.0979 45.2529C55.4965 47.751 52.1725 49 48.1259 49C44.0793 49 40.7071 47.7029 38.0093 45.1088C35.4079 42.5147 34.1072 39.2 34.1072 35.1647C34.1072 33.2431 34.3481 31.3216 34.8298 29.4C35.3116 27.4784 36.3714 24.5961 38.0093 20.7529L46.3916 0H60.6993L54.3403 22.9147Z" fill="#00A8D0"/>
</svg>
