<?xml version="1.0" encoding="utf-8"?><svg viewBox="0 0 617 120" xmlns="http://www.w3.org/2000/svg" xmlns:xlink="http://www.w3.org/1999/xlink"><style>:root>svg{display:none}:root>svg:target{display:block}</style><svg fill="none" viewBox="0 0 400 100" id="banner_logo_horizont" xmlns="http://www.w3.org/2000/svg"><g clip-path="url(#aaclip0)"><path d="M163.604 33.776c0 4.138-3.379 6.71-8.772 6.71h-4.066v5.123h-4.7V27.04h8.746c5.413 0 8.792 2.572 8.792 6.737zm-4.732 0c0-2.043-1.445-3.233-4.301-3.233h-3.805v6.446h3.798c2.863 0 4.308-1.197 4.308-3.213zM172.689 27.04h4.674v15.066h10.132v3.503h-14.806V27.04zM209.36 41.63h-9.373l-1.791 3.966h-4.792l9.001-18.57h4.622l9.027 18.57h-4.903l-1.791-3.967zm-1.471-3.267l-3.203-7.107-3.202 7.107h6.405zM227.121 30.543h-6.465v-3.504h17.577v3.504h-6.465v15.066h-4.647V30.543zM251.195 30.49v4.905h9.354v3.445h-9.354v6.77h-4.674V27.04h15.244v3.45h-10.57z" fill="#292A2A"/><path d="M275.204 43.408c3.491 0 6.321-2.862 6.321-6.393 0-3.53-2.83-6.393-6.321-6.393-3.491 0-6.321 2.862-6.321 6.393 0 3.53 2.83 6.393 6.321 6.393z" fill="#00A2CE"/><path d="M302.684 45.61l-3.922-5.177h-4.301v5.176h-4.674V27.04h8.74c5.399 0 8.772 2.572 8.772 6.737 0 2.783-1.53 4.826-4.151 5.864l4.53 5.95-4.994.02zm-4.386-15.067h-3.811v6.472h3.811c2.856 0 4.294-1.223 4.294-3.24 0-2.016-1.438-3.232-4.294-3.232zM335.17 45.61V34.47l-5.942 9.176h-2.105l-5.948-8.951v10.901h-4.386V27.04h3.863l7.563 11.536 7.445-11.536h3.837l.059 18.57h-4.386zM363.415 41.63h-9.38l-1.791 3.966h-4.785l9.001-18.57h4.615l9.033 18.57h-4.902l-1.791-3.967zm-1.471-3.267l-3.203-7.107-3.203 7.107h6.406zM164.611 55.367v18.564h-4.674v-7.61h-9.151v7.61h-4.72V55.367h4.681v7.319h9.151v-7.319h4.713zM173.906 64.649c0-5.514 4.674-9.6 11.047-9.6s11.053 4.06 11.053 9.6-4.706 9.6-11.053 9.6-11.047-4.086-11.047-9.6zm17.368 0c0-3.53-2.713-5.95-6.321-5.95-3.608 0-6.321 2.413-6.321 5.95 0 3.537 2.713 5.95 6.321 5.95 3.608 0 6.321-2.42 6.321-5.95zM223.676 73.931l-.033-11.14-5.942 9.177h-2.104l-5.916-8.938V73.93h-4.386V55.367h3.863l7.563 11.537 7.445-11.537h3.837l.059 18.564h-4.386zM254.255 70.487v3.444h-15.636V55.367h15.263v3.445H243.26v4.032h9.354v3.346h-9.354v4.297h10.995zM32.748 44.214a2.47 2.47 0 01-.333.113c-.05.036-.103.07-.157.099v20.077h1.823v-17.42l10.46 5.95.888-1.606-12.68-7.213z" fill="#292A2A"/><path d="M34.08 64.828h-1.823a.312.312 0 01-.292-.2.322.322 0 01-.022-.124V44.426a.327.327 0 01.17-.284l.138-.093h.078c.102-.026.203-.06.3-.1a.311.311 0 01.275 0l12.7 7.207a.316.316 0 01.164.317.319.319 0 01-.039.12l-.889 1.612a.341.341 0 01-.19.159.33.33 0 01-.248-.033l-10-5.672V64.53a.325.325 0 01-.103.212.318.318 0 01-.218.085zm-1.502-.662h1.183V47.084a.313.313 0 01.317-.32c.056 0 .11.014.16.042L44.44 52.59l.576-1.045-12.296-6.975-.143.047v19.548z" fill="#292A2A"/><path d="M58.953 79.471l-.197-35.514-12.798-6.988v35.184l-1.817-.51V33.883l16.426 8.977.21 36.605-1.825.007z" fill="#292A2A"/><path d="M58.953 79.795a.325.325 0 01-.223-.095.332.332 0 01-.098-.223l-.196-35.322-12.158-6.644v34.641a.322.322 0 01-.124.26.312.312 0 01-.281.051l-1.817-.509a.32.32 0 01-.236-.31V33.88a.327.327 0 01.157-.277.33.33 0 01.314 0l16.426 8.977a.315.315 0 01.17.278l.21 36.612a.326.326 0 01-.092.225.345.345 0 01-.229.099h-1.824zM45.958 36.678c.053 0 .104.013.15.04l12.799 6.98a.33.33 0 01.163.285l.203 35.19h1.163l-.202-36.09-15.793-8.627v36.976l1.177.33V36.97a.34.34 0 01.157-.278.368.368 0 01.183-.013z" fill="#292A2A"/><path d="M44.927 35.554c-.176-.602-.353-1.21-.523-1.812L70.021 19.35l16.27 8.885c-.445.463-.896.92-1.347 1.382l-14.916-8.145-25.1 14.082z" fill="#292A2A"/><path d="M44.92 35.878h-.118a.327.327 0 01-.183-.211l-.523-1.819a.328.328 0 01.15-.37l25.617-14.385a.337.337 0 01.308 0l16.27 8.885a.295.295 0 01.163.231.314.314 0 01-.085.278l-1.347 1.388a.312.312 0 01-.38.053L70.034 21.85 45.077 35.865a.31.31 0 01-.157.013zm-.138-1.983l.334 1.177 24.76-13.884a.317.317 0 01.308 0l14.7 8.053.883-.906-15.747-8.594-25.237 14.154zM44.096 37.914l-11.838 6.499.13.238.74 1.381 11.837-6.505-.87-1.613z" fill="#292A2A"/><path d="M33.127 46.356h-.092a.34.34 0 01-.189-.158l-.87-1.62a.327.327 0 01.131-.436l11.838-6.499a.312.312 0 01.431.126l.87 1.62a.355.355 0 010 .244.306.306 0 01-.157.192L33.258 46.33a.342.342 0 01-.131.026zm-.438-1.811l.569 1.051 11.275-6.194-.568-1.052-11.276 6.195zM56.207 72.034l-7.844-4.754V43.355l7.844 4.231v24.448zm-6.04-5.798l4.216 2.551V48.69l-4.216-2.267v19.813z" fill="#292A2A"/><path d="M56.207 72.377a.356.356 0 01-.163-.046L48.2 67.577a.322.322 0 01-.157-.277V43.355a.32.32 0 01.157-.278.33.33 0 01.314 0l7.843 4.238a.315.315 0 01.17.284v24.46a.327.327 0 01-.163.278.356.356 0 01-.157.04zm-7.537-5.289l7.19 4.37v-23.68l-7.19-3.888v23.198zm5.72 2.017a.383.383 0 01-.163-.047l-4.25-2.545a.323.323 0 01-.156-.278V46.402a.307.307 0 01.157-.27.31.31 0 01.314 0l4.216 2.274a.316.316 0 01.17.284v20.097a.339.339 0 01-.098.226.332.332 0 01-.223.098l.033-.006zm-3.922-3.061l3.576 2.168v-19.33l-3.576-1.924v19.086zM41.6 64.444l-4.936-2.962v-8.277l4.935 2.89v8.349zm-3.119-4.013l1.307.78v-4.059l-1.307-.76v4.04zM80.913 44.37l-16.436 9.31.89 1.609 16.437-9.31-.891-1.61z" fill="#292A2A"/><path d="M65.367 55.605a.311.311 0 01-.275-.165l-.889-1.573a.314.314 0 01.118-.437l16.44-9.315a.316.316 0 01.356.029c.033.026.061.06.081.097l.89 1.606a.32.32 0 010 .245.299.299 0 01-.15.192l-16.44 9.315a.324.324 0 01-.131.006zm-.451-1.804l.575 1.044 15.864-8.998-.581-1.044L64.916 53.8zM81.441 54.752l-17.244 9.827.895 1.607 17.244-9.827-.895-1.607z" fill="#292A2A"/><path d="M65.098 66.5a.194.194 0 01-.085 0 .287.287 0 01-.19-.152l-.895-1.6a.327.327 0 01.124-.443l17.237-9.824a.31.31 0 01.438.12l.896 1.606a.328.328 0 01-.124.436l-17.244 9.83a.31.31 0 01-.157.027zm-.457-1.805l.581 1.045 16.688-9.513-.555-1.038-16.714 9.506z" fill="#292A2A"/><path d="M60.745 81.646l-35.41-20.672.916-1.594 34.52 20.157L94.48 60.77l.882 1.613-34.617 19.264z" fill="#292A2A"/><path d="M60.75 81.97a.35.35 0 01-.164-.04L25.178 61.251a.33.33 0 01-.15-.198.36.36 0 010-.245l.914-1.593a.32.32 0 01.432-.12l34.37 20.065 33.584-18.682a.312.312 0 01.242 0 .335.335 0 01.196.158l.876 1.613a.328.328 0 01-.124.437L60.874 81.95a.298.298 0 01-.124.02zM25.792 60.854l34.977 20.422 34.18-19.02-.569-1.051-33.434 18.61a.298.298 0 01-.314 0L26.367 59.816l-.575 1.038zM24.621 65.285l-.908 1.6 37.405 21.727.908-1.6L24.62 65.285z" fill="#292A2A"/><path d="M61.123 88.905a.33.33 0 01-.157-.046l-37.41-21.724a.33.33 0 01-.117-.443l.909-1.593a.29.29 0 01.19-.152.284.284 0 01.241.033l37.409 21.724a.308.308 0 01.16.318.314.314 0 01-.042.118l-.909 1.6a.316.316 0 01-.274.165zM24.152 66.738l36.853 21.4.588-1.038L24.74 65.7l-.588 1.038zM60.601 81.527L25.05 60.947l.902-1.594 34.67 20.065 36.598-20.223.876 1.62-37.494 20.712z" fill="#292A2A"/><path d="M60.601 81.85a.273.273 0 01-.157-.045L24.892 61.23a.33.33 0 01-.15-.198.295.295 0 01.032-.245l.902-1.6a.327.327 0 01.438-.119l34.514 19.979L97.043 58.91a.324.324 0 01.438.125l.87 1.62a.293.293 0 010 .245.318.318 0 01-.151.191l-37.5 20.72a.301.301 0 01-.099.039zM25.487 60.829l35.121 20.329 37.056-20.494-.569-1.052-36.317 20.071a.31.31 0 01-.314 0L26.075 59.816l-.588 1.012zM97.395 65.23L59.834 86.856l.902 1.603 37.561-21.624-.902-1.603z" fill="#292A2A"/><path d="M60.745 88.76a.318.318 0 01-.282-.16l-.902-1.6a.321.321 0 010-.244.314.314 0 01.15-.198L97.279 64.94a.303.303 0 01.351.022.31.31 0 01.08.097l.902 1.6c.04.074.052.162.033.244a.337.337 0 01-.15.192L60.927 88.72a.343.343 0 01-.183.04zm-.465-1.799L60.862 88l37.01-21.3-.588-1.038-37.004 21.3zM60.568 79.478l-1.824-.013.242-36.592L86.289 27.23l-.058 39.686h-1.818l.053-36.526-23.67 13.56-.228 35.527z" fill="#292A2A"/><path d="M60.57 79.795h-1.825a.318.318 0 01-.222-.097.326.326 0 01-.091-.227l.235-36.592a.333.333 0 01.163-.278L86.134 26.96a.324.324 0 01.32 0 .31.31 0 01.157.277l-.052 39.666a.326.326 0 01-.094.23.319.319 0 01-.227.094h-1.823a.292.292 0 01-.223-.099.325.325 0 01-.098-.225l.053-35.97-23.055 13.202-.229 35.343a.32.32 0 01-.091.224.325.325 0 01-.203.093zm-1.498-.661h1.183l.23-35.204a.32.32 0 01.163-.278L84.31 30.1a.311.311 0 01.435.118.327.327 0 01.042.16l-.052 36.201h1.196l.052-38.806-26.662 15.271-.249 36.09z" fill="#292A2A"/><path d="M400 99.74H0V0h400v99.74zM5.112 94.577h389.783V5.163H5.112v89.414z" fill="#222323"/><path d="M121.894 2.585h-5.105v92.766h5.105V2.585z" fill="#222323"/></g><defs><clipPath id="aaclip0"><path fill="#fff" d="M0 0h400v99.74H0z"/></clipPath></defs></svg><svg fill="none" viewBox="0 0 20 19" id="clip" xmlns="http://www.w3.org/2000/svg"><path d="M18.487 1.513a5.167 5.167 0 00-7.306 0L1.135 11.559a3.874 3.874 0 000 5.48c1.248 1.247 3.13 1.449 4.6.639a.64.64 0 00.423-.182L16.203 7.45a2.582 2.582 0 10-3.652-3.652l-8.22 8.22a.646.646 0 00.914.912l8.22-8.22a1.29 1.29 0 111.826 1.826l-9.59 9.59a2.583 2.583 0 11-3.653-3.652L12.094 2.426a3.874 3.874 0 115.48 5.48L8.44 17.04a.646.646 0 00.914.913l9.132-9.133a5.167 5.167 0 000-7.306z" fill="#00A8D0"/></svg><svg fill="none" viewBox="0 0 15 15" id="close-pop-up" xmlns="http://www.w3.org/2000/svg"><path fill-rule="evenodd" clip-rule="evenodd" d="M9.283 7.5l5.348-5.348A1.26 1.26 0 1012.848.369L7.5 5.717 2.152.37A1.26 1.26 0 10.369 2.152L5.717 7.5.37 12.848a1.26 1.26 0 001.783 1.783L7.5 9.283l5.348 5.348a1.26 1.26 0 101.783-1.783L9.283 7.5z" fill="#000"/></svg><svg fill="none" viewBox="0 0 50 50" id="facade-slider-arrow-left" xmlns="http://www.w3.org/2000/svg"><circle cx="25" cy="25" r="24" transform="rotate(180 25 25)" stroke="#292A2A" stroke-width="2"/><path d="M11.293 24.293a1 1 0 000 1.414l6.364 6.364a1 1 0 001.414-1.414L13.414 25l5.657-5.657a1 1 0 00-1.414-1.414l-6.364 6.364zM37 24H12v2h25v-2z" fill="#292A2A"/></svg><svg fill="none" viewBox="0 0 50 50" id="facade-slider-arrow-right" xmlns="http://www.w3.org/2000/svg"><circle cx="25" cy="25" r="24" stroke="#292A2A" stroke-width="2"/><path d="M38.707 25.707a1 1 0 000-1.414l-6.364-6.364a1 1 0 00-1.414 1.414L36.586 25l-5.657 5.657a1 1 0 001.414 1.414l6.364-6.364zM13 26h25v-2H13v2z" fill="#292A2A"/></svg><svg fill="none" viewBox="0 0 11 24" id="fb-icon" xmlns="http://www.w3.org/2000/svg"><path d="M10.557 11.977H7.294V24H2.351V11.977H0V7.75h2.351V5.017C2.351 3.062 3.274 0 7.338 0L11 .015v4.102H8.343c-.436 0-1.048.219-1.048 1.152v2.486h3.694l-.432 4.222z" fill="#00A8D0"/></svg><svg fill="none" viewBox="0 0 15 12" id="letter-icon" xmlns="http://www.w3.org/2000/svg"><path d="M1.44 3.699c.19.136.761.541 1.716 1.214.954.674 1.685 1.192 2.193 1.556.056.04.174.126.355.26.182.133.332.241.452.324.12.082.265.174.436.277.17.102.33.179.481.23.15.05.29.076.419.076h.016c.129 0 .268-.025.419-.077.15-.05.311-.127.481-.23.17-.102.316-.194.436-.276.12-.083.27-.19.452-.324.18-.134.3-.22.355-.26l3.918-2.77c.407-.29.747-.64 1.02-1.049.274-.409.411-.837.411-1.286 0-.375-.133-.696-.398-.963A1.282 1.282 0 0013.661 0H1.339C.91 0 .58.148.347.443.116.74 0 1.108 0 1.551c0 .358.154.746.46 1.164.307.417.634.745.98.984z" fill="#fff"/><path d="M14.163 4.61a174.081 174.081 0 00-4.169 2.941c-.318.239-.576.425-.774.558-.198.134-.462.27-.79.41-.33.139-.637.208-.921.208h-.017c-.285 0-.592-.07-.921-.209a4.75 4.75 0 01-.791-.409c-.198-.133-.456-.32-.774-.558-.754-.562-2.14-1.543-4.16-2.94A4.457 4.457 0 010 3.869v6.767c0 .375.131.696.393.963.263.267.578.4.946.4h12.322c.368 0 .683-.133.946-.4.262-.267.393-.588.393-.963V3.87a4.64 4.64 0 01-.837.742z" fill="#fff"/></svg><svg fill="none" viewBox="0 0 15 12" id="letter-icon-blue" xmlns="http://www.w3.org/2000/svg"><path d="M1.44 3.699c.19.136.761.541 1.716 1.214.954.674 1.685 1.192 2.193 1.556.056.04.174.126.355.26.182.133.332.241.452.324.12.082.265.174.436.277.17.102.33.179.481.23.15.05.29.076.419.076h.016c.129 0 .268-.025.419-.077.15-.05.311-.127.481-.23.17-.102.316-.194.436-.276.12-.083.27-.19.452-.324.18-.134.3-.22.355-.26l3.918-2.77c.407-.29.747-.64 1.02-1.049.274-.409.411-.837.411-1.286 0-.375-.133-.696-.398-.963A1.282 1.282 0 0013.661 0H1.339C.91 0 .58.148.347.443.116.74 0 1.108 0 1.551c0 .358.154.746.46 1.164.307.417.634.745.98.984z" fill="#00A8D0"/><path d="M14.163 4.61a174.081 174.081 0 00-4.169 2.941c-.318.239-.576.425-.774.558-.198.134-.462.27-.79.41-.33.139-.637.208-.921.208h-.017c-.285 0-.592-.07-.921-.209a4.75 4.75 0 01-.791-.409c-.198-.133-.456-.32-.774-.558-.754-.562-2.14-1.543-4.16-2.94A4.457 4.457 0 010 3.869v6.767c0 .375.131.696.393.963.263.267.578.4.946.4h12.322c.368 0 .683-.133.946-.4.262-.267.393-.588.393-.963V3.87a4.64 4.64 0 01-.837.742z" fill="#00A8D0"/></svg><svg fill="none" viewBox="0 0 223 50" id="logo" xmlns="http://www.w3.org/2000/svg"><g clip-path="url(#aiclip0)"><path d="M61.67 20.856a5.757 5.757 0 01.391-2.133 4.63 4.63 0 011.175-1.741A5.528 5.528 0 0165.26 15.8a8.694 8.694 0 012.869-.432 16.292 16.292 0 014.724.715c.465.14.916.318 1.35.533.223.101.345.21.372.31.013.19-.02.38-.095.554l-.675 2.025c-.088.25-.175.398-.27.432a.857.857 0 01-.459 0 26.98 26.98 0 00-2.524-.621 12.48 12.48 0 00-2.362-.243 2.524 2.524 0 00-1.68.432 1.35 1.35 0 00-.487 1.053c-.006.235.05.468.162.675.133.228.312.426.526.58.305.228.633.423.98.58.404.203.904.428 1.498.676.918.364 1.761.729 2.537 1.1a8.612 8.612 0 011.985 1.255 5.197 5.197 0 011.302 1.647c.33.71.491 1.486.473 2.268a5.698 5.698 0 01-.58 2.43 4.852 4.852 0 01-1.438 1.755 6.37 6.37 0 01-2.228 1.053c-.938.243-1.905.36-2.875.35-.606.001-1.212-.03-1.815-.094a16.2 16.2 0 01-1.877-.297 14.082 14.082 0 01-1.822-.526 9.266 9.266 0 01-1.647-.783.498.498 0 01-.257-.297.919.919 0 01.095-.513l.918-2.167a.621.621 0 01.297-.378c.158-.028.32 0 .459.081.358.149.756.297 1.188.452a17.32 17.32 0 002.754.702c.47.08.946.121 1.424.122a5.21 5.21 0 001.404-.162c.327-.086.638-.228.917-.419.218-.148.386-.357.486-.6.09-.228.136-.47.135-.716.006-.25-.045-.5-.148-.729a2.129 2.129 0 00-.486-.634 3.997 3.997 0 00-.918-.594c-.391-.19-.87-.392-1.444-.608a29.483 29.483 0 01-2.599-1.107 10.124 10.124 0 01-2.025-1.255 4.92 4.92 0 01-1.282-1.546 4.218 4.218 0 01-.446-1.984M87.284 34.227c0 .08-.095.155-.297.23a9.82 9.82 0 01-2.025.37c-.67.055-1.237.082-1.7.082-1.553 0-2.66-.324-3.328-.986a3.92 3.92 0 01-1-2.902v-7.708h-1.889c-.196 0-.324-.047-.378-.148a.73.73 0 01-.08-.365v-1.458a.674.674 0 01.067-.364.743.743 0 01.364-.176l2.025-.459.189-2.537a.675.675 0 01.175-.46c.13-.106.282-.18.446-.215l2.477-.817a.5.5 0 01.391.054.527.527 0 01.149.432v3.624h2.97c.202 0 .323.04.364.122a.674.674 0 01.068.337V22.8a.944.944 0 01-.055.392c0 .08-.162.121-.377.121h-2.97v6.891a1.288 1.288 0 00.391 1.087c.35.22.762.325 1.175.297h.459l.553-.054.553-.054.46-.054c.29-.054.445.034.458.27l.324 2.247a2.01 2.01 0 010 .31M102.449 27.45c0 2.376-.567 4.218-1.707 5.514-1.141 1.296-2.862 1.944-5.184 1.944s-4.05-.675-5.136-1.944c-1.087-1.269-1.62-3.118-1.62-5.46a9.578 9.578 0 01.472-3.119 6.345 6.345 0 011.35-2.342 6 6 0 012.133-1.457 7.423 7.423 0 012.855-.513c2.25 0 3.955.652 5.116 1.957 1.148 1.31 1.721 3.111 1.721 5.4v.02zm-4.05.06a9.769 9.769 0 00-.135-1.673 3.719 3.719 0 00-.458-1.296 2.356 2.356 0 00-.837-.85 2.41 2.41 0 00-1.27-.318 2.343 2.343 0 00-2.125 1.1 5.508 5.508 0 00-.675 2.957 6.136 6.136 0 00.634 3.084 2.261 2.261 0 002.1 1.053c.447.011.889-.096 1.282-.31.356-.214.653-.513.864-.871a4.05 4.05 0 00.486-1.283 7.793 7.793 0 00.148-1.593M111.177 23.312h-.769a6.85 6.85 0 00-1.067.115v10.677a.577.577 0 01-.094.392.731.731 0 01-.473.094h-2.787a.726.726 0 01-.432-.094.448.448 0 01-.135-.392V22.53a2.75 2.75 0 01.324-1.444 1.974 1.974 0 011.35-.743 7.42 7.42 0 01.769-.094l1.06-.081 1.12-.068h.958a12.52 12.52 0 013.267.378 5.481 5.481 0 012.275 1.202 5.023 5.023 0 011.35 2.166c.32 1.054.47 2.152.445 3.254v7.053a.577.577 0 01-.094.391c-.061.068-.216.095-.466.095h-2.794a.748.748 0 01-.432-.095.448.448 0 01-.135-.391v-7.324a6.8 6.8 0 00-.149-1.538 2.566 2.566 0 00-.513-1.094 2.113 2.113 0 00-.999-.675 4.836 4.836 0 00-1.579-.222M128.037 20.073c2.11 0 3.685.526 4.725 1.58 1.039 1.052 1.566 2.562 1.579 4.528a2.6 2.6 0 01-.54 1.917 2.028 2.028 0 01-1.485.513h-6.898c.003.49.099.976.284 1.431.147.358.379.675.675.925.298.233.643.399 1.012.486.415.091.838.136 1.262.135a7.27 7.27 0 001.593-.19 9.66 9.66 0 001.512-.485.812.812 0 01.446-.068.46.46 0 01.229.257l.864 1.943a.433.433 0 01.04.378.67.67 0 01-.283.27 6.86 6.86 0 01-2.322.932c-.809.18-1.635.276-2.463.283-2.356 0-4.104-.58-5.238-1.755-1.134-1.174-1.708-3.023-1.708-5.568a9.76 9.76 0 01.48-3.172 6.561 6.561 0 011.35-2.37 5.716 5.716 0 012.105-1.47 7.33 7.33 0 012.768-.5h.013zm.068 3.24a2.324 2.324 0 00-1.809.79 3.37 3.37 0 00-.81 2.024h5.055a4.738 4.738 0 00-.121-1.107 2.428 2.428 0 00-.392-.877 1.894 1.894 0 00-.729-.58 2.75 2.75 0 00-1.194-.223M160.698 34.503a.844.844 0 01-.527.108h-2.834a.727.727 0 01-.486-.122.56.56 0 01-.135-.445v-7.566h-7.324v7.566a.597.597 0 01-.121.459.87.87 0 01-.533.108h-2.862a.746.746 0 01-.472-.122.542.542 0 01-.149-.445V16.246a.54.54 0 01.149-.446.747.747 0 01.472-.121h2.862a.919.919 0 01.533.108.633.633 0 01.121.459v6.749h7.324v-6.75a.56.56 0 01.135-.445.728.728 0 01.486-.121h2.834a.892.892 0 01.527.108.633.633 0 01.121.459V34.03a.616.616 0 01-.121.46M177.713 27.45c0 2.376-.567 4.218-1.701 5.514-1.134 1.296-2.868 1.944-5.19 1.944-2.322 0-4.05-.675-5.137-1.944-1.086-1.269-1.619-3.118-1.619-5.46a9.567 9.567 0 01.472-3.119 6.338 6.338 0 011.35-2.342 5.999 5.999 0 012.133-1.457 7.421 7.421 0 012.855-.513c2.25 0 3.957.652 5.123 1.957 1.14 1.31 1.714 3.111 1.714 5.4v.02zm-4.083.06a9.88 9.88 0 00-.135-1.673 3.741 3.741 0 00-.459-1.296 2.364 2.364 0 00-.837-.85 2.41 2.41 0 00-1.269-.318 2.348 2.348 0 00-2.126 1.1 5.5 5.5 0 00-.675 2.957 6.132 6.132 0 00.634 3.084 2.272 2.272 0 002.099 1.053c.448.011.89-.096 1.283-.31.356-.214.653-.513.864-.871a4.07 4.07 0 00.486-1.283 7.814 7.814 0 00.148-1.593M187.621 31.695h.77c.337 0 .675-.054 1.073-.108V20.91a.61.61 0 01.101-.404c.061-.075.216-.108.473-.108h2.781c.378 0 .567.168.567.512v11.535c.027.512-.1 1.02-.365 1.458a2.025 2.025 0 01-1.309.756c-.216.04-.486.074-.81.108-.324.034-.675.068-1.04.095-.364.027-.735.047-1.1.053h-.945a12.349 12.349 0 01-3.307-.377 4.995 4.995 0 01-2.221-1.215 4.876 4.876 0 01-1.228-2.174 12.226 12.226 0 01-.378-3.26V20.91a.67.67 0 01.095-.404c.06-.075.222-.108.472-.108h2.788c.378 0 .567.168.567.512v7.243c-.007.52.029 1.038.107 1.552.056.4.203.781.432 1.114.234.313.556.548.925.675.502.158 1.027.23 1.552.216M207.599 30.561a3.71 3.71 0 01-1.552 3.267 6.972 6.972 0 01-4.05 1.08 14.931 14.931 0 01-2.956-.31 8.685 8.685 0 01-2.747-1.013.556.556 0 01-.257-.284.62.62 0 01.102-.418l.783-1.863a.673.673 0 01.283-.364.546.546 0 01.446.067c.283.122.607.243.971.364.358.115.736.216 1.121.311s.763.162 1.12.216c.322.05.647.077.972.081.475.04.95-.079 1.35-.337a1.102 1.102 0 00.392-.85 1.118 1.118 0 00-.554-.926 10.23 10.23 0 00-1.91-.89 16.048 16.048 0 01-1.903-.837 7.093 7.093 0 01-1.391-.932 3.277 3.277 0 01-1.161-2.605 4.293 4.293 0 01.324-1.667c.216-.52.548-.982.972-1.35a4.802 4.802 0 011.634-.905 7.288 7.288 0 012.335-.337c.831 0 1.66.077 2.477.23.784.134 1.55.36 2.281.674.194.095.302.19.324.284.011.162-.016.324-.081.472l-.675 1.728c-.076.203-.157.317-.243.344a.81.81 0 01-.432-.067 21.63 21.63 0 00-1.835-.466 9.16 9.16 0 00-1.735-.162 1.418 1.418 0 00-1.053.338 1.02 1.02 0 00-.324.675 1.07 1.07 0 00.493.91 8.21 8.21 0 001.748.81c.675.25 1.255.507 1.836.77.537.24 1.041.548 1.498.918.42.345.765.772 1.013 1.256.264.548.394 1.152.378 1.761M216.495 20.073c2.106 0 3.681.526 4.725 1.58 1.044 1.052 1.57 2.562 1.579 4.528a2.582 2.582 0 01-.54 1.917 2.028 2.028 0 01-1.485.513h-6.904c.002.49.098.976.283 1.431.15.356.381.673.675.925.298.233.644.399 1.012.486.415.091.838.136 1.262.135a7.27 7.27 0 001.593-.19 9.66 9.66 0 001.512-.485.813.813 0 01.446-.068.457.457 0 01.229.257l.864 1.943a.433.433 0 01.041.378.678.678 0 01-.284.27 6.81 6.81 0 01-2.322.932c-.806.18-1.63.275-2.456.283-2.363 0-4.111-.58-5.245-1.755-1.134-1.174-1.707-3.023-1.707-5.568a9.733 9.733 0 01.479-3.172 6.561 6.561 0 011.35-2.37 5.763 5.763 0 012.106-1.47 7.357 7.357 0 012.774-.5h.013zm.068 3.24a2.323 2.323 0 00-1.816.79 3.37 3.37 0 00-.81 2.024h5.055a4.685 4.685 0 00-.121-1.107 2.428 2.428 0 00-.392-.877 1.894 1.894 0 00-.729-.58 2.737 2.737 0 00-1.187-.223" fill="#868789"/><path d="M48.488 0H37.783a2.275 2.275 0 00-1.566.614l-8.18 7.681a1.72 1.72 0 00.108 2.626L38.31 18.98a2.254 2.254 0 002.348.296l8.019-3.577a2.301 2.301 0 001.35-2.085V1.519A1.519 1.519 0 0048.506 0" fill="#C0AA82"/><path d="M32.182.817A1.249 1.249 0 0031 0H6.176a1.208 1.208 0 00-.803 2.113L17.123 12.6a1.816 1.816 0 002.39.034L31.81 2.207a1.248 1.248 0 00.372-1.39" fill="#8C7F72"/><path d="M7.924 6.081l-5.4-4.535A1.451 1.451 0 00.141 2.653v8.956a1.255 1.255 0 002.025.979l5.737-4.57a1.208 1.208 0 00.473-.958 1.242 1.242 0 00-.446-.979M49.001 38.02a1.026 1.026 0 00-.614.209l-8.18 6.364a1.188 1.188 0 00-.466.945v3.105a1.201 1.201 0 001.202 1.202h7.552a1.519 1.519 0 001.512-1.512v-9.308a1.006 1.006 0 00-1.006-1.005" fill="#A1B5BD"/><path d="M48.846 18.015c-.18 0-.358.041-.52.121l-7.343 3.631a2.214 2.214 0 00-1.242 1.991v17.083a1.094 1.094 0 001.094 1.087c.247-.003.485-.091.675-.25l7.647-6.21A2.287 2.287 0 0050 33.695V19.176a1.16 1.16 0 00-1.16-1.161" fill="#9F8574"/><path d="M36.325 40.395H14.37a2.024 2.024 0 00-1.74 1.026l-3.497 6.27a1.464 1.464 0 001.282 2.18h25.911a1.35 1.35 0 001.35-1.35V41.74a1.35 1.35 0 00-1.35-1.35" fill="#8C7F72"/><path d="M15.51 13.101l-4.4-3.908a1.525 1.525 0 00-1.964-.04l-8.248 6.75a2.025 2.025 0 00-.736 1.552v4.367a1.897 1.897 0 00.999 1.667l7.87 4.279c.168.09.356.139.547.142.302-.003.592-.121.81-.331a1.155 1.155 0 00.35-.83v-7.593a.755.755 0 01.304-.608l4.367-3.24a1.425 1.425 0 00.101-2.207z" fill="#9F8574"/><path d="M10.462 30.528l-8.363-4.576A1.418 1.418 0 000 27.194v21.213A1.593 1.593 0 001.593 50h2.93a2.16 2.16 0 001.869-1.08l4.394-7.6a3.476 3.476 0 00.465-1.748v-7.748a1.471 1.471 0 00-.762-1.296" fill="#C0AA82"/><path d="M36.434 20.066l-10.34-7.87a1.68 1.68 0 00-2.025 0L13.762 20.08a2.247 2.247 0 00-.877 1.782v15.45a1.175 1.175 0 001.174 1.174h6.918a.77.77 0 00.77-.776v-7.425a.884.884 0 01.884-.884h4.873a.884.884 0 01.884.884v7.424a.77.77 0 00.776.777h6.946a1.168 1.168 0 001.167-1.175V21.848a2.247 2.247 0 00-.877-1.782" fill="#868789"/></g><defs><clipPath id="aiclip0"><path fill="#fff" d="M0 0h222.818v50H0z"/></clipPath></defs></svg><svg fill="none" viewBox="0 0 200 50" id="logo_horizont1" xmlns="http://www.w3.org/2000/svg"><g clip-path="url(#ajclip0)"><path d="M81.802 16.932c0 2.074-1.69 3.364-4.386 3.364h-2.033v2.568h-2.35v-9.31h4.373c2.706 0 4.396 1.29 4.396 3.378zm-2.366 0c0-1.024-.723-1.62-2.15-1.62h-1.903v3.23h1.899c1.431 0 2.154-.6 2.154-1.61zM86.345 13.555h2.337v7.553h5.065v1.756h-7.402v-9.31zM104.68 20.869h-4.687l-.895 1.988h-2.396l4.501-9.31h2.31l4.514 9.31h-2.451l-.896-1.988zm-.735-1.637l-1.602-3.563-1.601 3.563h3.203zM113.56 15.311h-3.233v-1.756h8.789v1.756h-3.233v7.553h-2.323v-7.553zM125.598 15.285v2.459h4.677v1.726h-4.677v3.394h-2.337v-9.31h7.621v1.73h-5.284z" fill="#292A2A"/><path d="M137.602 21.76c1.745 0 3.16-1.434 3.16-3.204 0-1.77-1.415-3.205-3.16-3.205-1.746 0-3.161 1.435-3.161 3.205s1.415 3.205 3.161 3.205z" fill="#00A2CE"/><path d="M151.342 22.864l-1.961-2.595h-2.151v2.595h-2.336v-9.31h4.369c2.7 0 4.386 1.29 4.386 3.378 0 1.395-.764 2.42-2.075 2.94l2.265 2.982-2.497.01zm-2.193-7.553h-1.906v3.245h1.906c1.428 0 2.147-.613 2.147-1.624 0-1.011-.719-1.62-2.147-1.62zM167.585 22.864V17.28l-2.971 4.6h-1.052l-2.974-4.488v5.465h-2.193v-9.302h1.931l3.782 5.783 3.722-5.783h1.919l.029 9.309h-2.193zM181.707 20.869h-4.69l-.895 1.988h-2.393l4.501-9.31h2.307l4.517 9.31h-2.451l-.896-1.988zm-.735-1.637l-1.601-3.563-1.602 3.563h3.203zM82.305 27.756v9.306h-2.337v-3.815h-4.575v3.815h-2.36v-9.306h2.34v3.669h4.576v-3.67h2.356zM86.953 32.409c0-2.764 2.337-4.812 5.523-4.812 3.187 0 5.527 2.034 5.527 4.812 0 2.777-2.353 4.812-5.526 4.812-3.174 0-5.524-2.048-5.524-4.812zm8.684 0c0-1.77-1.356-2.983-3.16-2.983-1.805 0-3.16 1.21-3.16 2.983 0 1.773 1.355 2.983 3.16 2.983 1.804 0 3.16-1.214 3.16-2.983zM111.838 37.062l-.016-5.584-2.971 4.6h-1.053l-2.958-4.481v5.465h-2.193v-9.306h1.932l3.781 5.783 3.723-5.783h1.919l.029 9.306h-2.193zM127.127 35.335v1.727h-7.817v-9.306h7.631v1.727h-5.311v2.021h4.677v1.677h-4.677v2.154h5.497zM16.374 22.165c-.054.022-.11.041-.167.056a.628.628 0 01-.078.05v10.065h.912v-8.733l5.229 2.983.445-.806-6.341-3.615z" fill="#292A2A"/><path d="M17.04 32.498h-.911a.155.155 0 01-.113-.048.16.16 0 01-.044-.114V22.27a.165.165 0 01.085-.143l.068-.046h.04c.05-.013.101-.03.15-.05a.156.156 0 01.137 0l6.35 3.613a.158.158 0 01.082.158.159.159 0 01-.02.06l-.444.809a.17.17 0 01-.095.08.164.164 0 01-.124-.017l-5-2.844v8.458a.163.163 0 01-.052.106.159.159 0 01-.109.043zm-.751-.331h.591v-8.564a.158.158 0 01.239-.14l5.102 2.9.287-.523-6.147-3.496-.072.023v9.8z" fill="#292A2A"/><path d="M29.476 39.839l-.098-17.803-6.4-3.503V36.17l-.908-.255v-18.93l8.213 4.5.105 18.35-.912.004z" fill="#292A2A"/><path d="M29.476 40.001a.163.163 0 01-.16-.159l-.098-17.707-6.079-3.33V36.17a.16.16 0 01-.062.13.156.156 0 01-.14.026l-.91-.255a.163.163 0 01-.118-.156v-18.93a.163.163 0 01.08-.14.164.164 0 01.156 0l8.214 4.501a.158.158 0 01.085.14l.104 18.353a.164.164 0 01-.045.113.172.172 0 01-.115.05h-.912zM22.98 18.387a.15.15 0 01.075.02l6.4 3.5a.164.164 0 01.081.142l.101 17.64h.582l-.101-18.091-7.896-4.325V35.81l.588.166V18.532a.172.172 0 01.078-.139c.03-.01.061-.012.092-.006z" fill="#292A2A"/><path d="M22.464 17.823a96.804 96.804 0 01-.262-.908L35.011 9.7l8.134 4.454c-.222.232-.447.461-.673.693l-7.458-4.083-12.55 7.06z" fill="#292A2A"/><path d="M22.46 17.986H22.4a.164.164 0 01-.091-.106l-.262-.912a.164.164 0 01.075-.185L34.932 9.57a.168.168 0 01.153 0l8.135 4.454a.148.148 0 01.082.117.158.158 0 01-.043.139l-.673.696a.156.156 0 01-.19.026l-7.38-4.05-12.478 7.026a.154.154 0 01-.078.007zm-.069-.994l.167.59 12.38-6.96a.16.16 0 01.154 0l7.35 4.037.441-.455-7.873-4.308-12.619 7.096zM22.048 19.006l-5.92 3.258.066.12.37.692 5.919-3.261-.435-.809z" fill="#292A2A"/><path d="M16.564 23.238h-.046a.17.17 0 01-.095-.08l-.435-.811a.165.165 0 01.066-.219l5.919-3.258a.155.155 0 01.215.063l.435.812a.177.177 0 010 .123.152.152 0 01-.079.096l-5.915 3.261a.171.171 0 01-.066.013zm-.22-.908l.285.527 5.638-3.105-.285-.527-5.637 3.105zM28.104 36.11l-3.922-2.382V21.734l3.922 2.12v12.257zm-3.02-2.906l2.108 1.28V24.407l-2.108-1.136v9.932z" fill="#292A2A"/><path d="M28.104 36.283a.177.177 0 01-.082-.023L24.1 33.877a.16.16 0 01-.079-.14V21.734a.16.16 0 01.079-.14.165.165 0 01.157 0l3.922 2.125a.159.159 0 01.085.142v12.263a.163.163 0 01-.082.139.179.179 0 01-.078.02zm-3.769-2.652l3.595 2.191V23.951l-3.595-1.949v11.63zm2.86 1.011a.19.19 0 01-.082-.023l-2.124-1.276a.16.16 0 01-.079-.14v-9.941a.154.154 0 01.079-.136.155.155 0 01.157 0l2.108 1.14a.157.157 0 01.085.142v10.075a.17.17 0 01-.049.113.166.166 0 01-.111.05l.016-.004zm-1.961-1.534l1.788 1.087v-9.69l-1.788-.965v9.568zM20.8 32.306l-2.468-1.485v-4.15l2.468 1.45v4.185zm-1.56-2.012l.654.391V28.65l-.653-.38v2.024zM40.456 22.243l-8.218 4.667.446.806 8.218-4.667-.446-.806z" fill="#292A2A"/><path d="M32.683 27.875a.156.156 0 01-.137-.083l-.444-.789a.157.157 0 01.059-.218l8.22-4.67a.16.16 0 01.218.063l.445.805a.161.161 0 010 .123.15.15 0 01-.075.096l-8.22 4.67a.162.162 0 01-.066.003zm-.225-.905l.288.524 7.932-4.51-.291-.524-7.93 4.51zM40.72 27.447L32.1 32.374l.447.805 8.622-4.926-.447-.806z" fill="#292A2A"/><path d="M32.55 33.337a.098.098 0 01-.043 0 .145.145 0 01-.095-.077l-.448-.801a.164.164 0 01.062-.223l8.619-4.924a.156.156 0 01.219.06l.447.805a.164.164 0 01-.062.218l-8.622 4.928a.155.155 0 01-.078.014zm-.23-.905l.291.524 8.344-4.77-.278-.52-8.357 4.766z" fill="#292A2A"/><path d="M30.373 40.93L12.67 30.565l.457-.798 17.26 10.104 16.855-9.409.441.81-17.309 9.656z" fill="#292A2A"/><path d="M30.376 41.092a.175.175 0 01-.082-.02L12.59 30.705a.165.165 0 01-.075-.1.18.18 0 010-.122l.457-.799a.158.158 0 01.216-.06l17.184 10.06 16.793-9.366a.155.155 0 01.121 0 .167.167 0 01.098.08l.438.808a.165.165 0 01-.062.218l-17.322 9.658a.148.148 0 01-.062.01zM12.897 30.506l17.489 10.238 17.09-9.535-.285-.527-16.717 9.33a.149.149 0 01-.157 0L13.185 29.985l-.288.52zM12.312 32.727l-.455.802L30.56 44.421l.454-.802-18.702-10.892z" fill="#292A2A"/><path d="M30.562 44.568a.165.165 0 01-.078-.023l-18.705-10.89a.168.168 0 01-.059-.222l.455-.799a.145.145 0 01.095-.076.141.141 0 01.12.017l18.705 10.89a.154.154 0 01.08.16.157.157 0 01-.021.058l-.454.802a.158.158 0 01-.138.083zM12.077 33.456l18.426 10.728.295-.52L12.37 32.935l-.294.52zM30.3 40.87L12.523 30.552l.452-.8 17.335 10.06 18.299-10.139.438.812L30.3 40.87z" fill="#292A2A"/><path d="M30.3 41.032a.136.136 0 01-.079-.023L12.445 30.695a.165.165 0 01-.075-.1.149.149 0 01.016-.122l.451-.802a.161.161 0 01.219-.06l17.257 10.016L48.52 29.532a.161.161 0 01.22.063l.434.812a.148.148 0 010 .123.16.16 0 01-.075.096l-18.75 10.386a.151.151 0 01-.05.02zM12.742 30.493l17.561 10.191L48.831 30.41l-.284-.527-18.159 10.062a.156.156 0 01-.157 0l-17.194-9.959-.295.507zM48.696 32.7l-18.78 10.84.451.804 18.78-10.84-.45-.804z" fill="#292A2A"/><path d="M30.371 44.495a.158.158 0 01-.14-.08l-.451-.801a.161.161 0 010-.123.157.157 0 01.075-.1l18.783-10.836a.151.151 0 01.176.01c.016.014.03.03.04.05l.45.801c.02.038.026.081.017.123a.168.168 0 01-.075.096l-18.783 10.84a.172.172 0 01-.092.02zm-.232-.901l.291.52 18.505-10.678-.294-.52-18.502 10.678zM30.284 39.842l-.912-.006.121-18.344 13.652-7.841-.03 19.894h-.908l.026-18.31-11.835 6.797-.114 17.81z" fill="#292A2A"/><path d="M30.285 40.001h-.912a.16.16 0 01-.111-.048.163.163 0 01-.046-.114l.117-18.344a.167.167 0 01.082-.139l13.652-7.841a.162.162 0 01.16 0 .154.154 0 01.078.14l-.026 19.884a.164.164 0 01-.047.115.16.16 0 01-.113.047h-.912a.147.147 0 01-.11-.05.164.164 0 01-.05-.112l.026-18.032-11.527 6.618-.114 17.717a.16.16 0 01-.147.16zm-.749-.331h.592l.114-17.648a.16.16 0 01.082-.139l11.831-6.794a.155.155 0 01.16 0 .161.161 0 01.079.14l-.027 18.147h.599l.026-19.453-13.332 7.655-.124 18.092z" fill="#292A2A"/><path d="M200 50H0V0h200v50zM2.556 47.412h194.891V2.588H2.556v44.824z" fill="#222323"/><path d="M60.947 1.296h-2.553v46.503h2.553V1.297z" fill="#222323"/></g><defs><clipPath id="ajclip0"><path fill="#fff" d="M0 0h200v50H0z"/></clipPath></defs></svg><svg fill="none" viewBox="0 0 200 50" id="logo_horizont2" xmlns="http://www.w3.org/2000/svg"><g clip-path="url(#akclip0)"><path d="M81.802 16.932c0 2.074-1.69 3.364-4.386 3.364h-2.033v2.568h-2.35v-9.31h4.373c2.706 0 4.396 1.29 4.396 3.378zm-2.366 0c0-1.024-.723-1.62-2.15-1.62h-1.903v3.23h1.899c1.431 0 2.154-.6 2.154-1.61zM86.345 13.555h2.337v7.553h5.065v1.756h-7.402v-9.31zM104.68 20.869h-4.687l-.895 1.988h-2.396l4.501-9.31h2.31l4.514 9.31h-2.451l-.896-1.988zm-.735-1.637l-1.602-3.563-1.601 3.563h3.203zM113.56 15.311h-3.232v-1.756h8.788v1.756h-3.232v7.553h-2.324v-7.553zM125.598 15.285v2.459h4.677v1.726h-4.677v3.394h-2.337v-9.31h7.621v1.73h-5.284z" fill="#fff"/><path d="M137.602 21.76c1.745 0 3.16-1.434 3.16-3.204 0-1.77-1.415-3.205-3.16-3.205-1.746 0-3.161 1.435-3.161 3.205s1.415 3.205 3.161 3.205z" fill="#00A8D0"/><path d="M151.341 22.864l-1.961-2.595h-2.15v2.595h-2.337v-9.31h4.37c2.699 0 4.386 1.29 4.386 3.378 0 1.395-.765 2.42-2.076 2.94l2.265 2.982-2.497.01zm-2.193-7.553h-1.905v3.245h1.905c1.429 0 2.148-.613 2.148-1.624 0-1.011-.719-1.62-2.148-1.62zM167.585 22.864V17.28l-2.97 4.6h-1.053l-2.974-4.488v5.465h-2.193v-9.302h1.932l3.781 5.783 3.723-5.783h1.918l.03 9.309h-2.194zM181.707 20.869h-4.69l-.895 1.988h-2.393l4.501-9.31h2.307l4.517 9.31h-2.451l-.896-1.988zm-.735-1.637l-1.601-3.563-1.602 3.563h3.203zM82.305 27.756v9.306h-2.337v-3.815h-4.575v3.815h-2.36v-9.306h2.34v3.669h4.576v-3.67h2.356zM86.953 32.409c0-2.764 2.337-4.812 5.523-4.812 3.187 0 5.527 2.034 5.527 4.812 0 2.777-2.353 4.812-5.526 4.812-3.174 0-5.524-2.048-5.524-4.812zm8.684 0c0-1.77-1.356-2.983-3.16-2.983-1.805 0-3.16 1.21-3.16 2.983 0 1.773 1.355 2.983 3.16 2.983 1.804 0 3.16-1.214 3.16-2.983zM111.837 37.062l-.016-5.584-2.971 4.6h-1.052l-2.958-4.481v5.465h-2.193v-9.306h1.932l3.781 5.783 3.723-5.783h1.918l.029 9.306h-2.193zM127.127 35.335v1.727h-7.818v-9.306h7.632v1.727h-5.311v2.021h4.677v1.677h-4.677v2.154h5.497zM16.375 22.165c-.055.022-.11.041-.167.056a.628.628 0 01-.079.05v10.065h.912v-8.733l5.23 2.983.444-.806-6.34-3.615z" fill="#fff"/><path d="M17.04 32.498h-.91a.155.155 0 01-.113-.048.16.16 0 01-.045-.114V22.27a.164.164 0 01.085-.143l.069-.046h.039c.051-.013.101-.03.15-.05a.156.156 0 01.138 0l6.35 3.613a.157.157 0 01.076.096.16.16 0 01-.014.122l-.444.809a.17.17 0 01-.095.08.164.164 0 01-.124-.017l-5-2.844v8.458a.163.163 0 01-.052.106.159.159 0 01-.11.043zm-.75-.331h.59v-8.564a.158.158 0 01.24-.14l5.101 2.9.288-.523-6.148-3.496-.072.023v9.8z" fill="#fff"/><path d="M29.477 39.839l-.098-17.803-6.4-3.503V36.17l-.908-.255v-18.93l8.213 4.5.105 18.35-.912.004z" fill="#fff"/><path d="M29.477 40.001a.163.163 0 01-.16-.159l-.099-17.707-6.078-3.33V36.17a.16.16 0 01-.063.13.156.156 0 01-.14.026l-.909-.255a.164.164 0 01-.118-.156v-18.93a.165.165 0 01.08-.14.164.164 0 01.156 0l8.213 4.501a.158.158 0 01.085.14l.105 18.353a.163.163 0 01-.16.162h-.912zm-6.498-21.614a.15.15 0 01.076.02l6.399 3.5a.164.164 0 01.082.142l.1 17.64h.583l-.102-18.091-7.896-4.325V35.81l.588.166V18.532a.171.171 0 01.079-.139c.03-.01.06-.012.091-.006z" fill="#fff"/><path d="M22.463 17.823a93.863 93.863 0 01-.261-.908L35.01 9.7l8.135 4.454c-.222.232-.448.461-.673.693l-7.459-4.083-12.55 7.06z" fill="#fff"/><path d="M22.46 17.986H22.4a.164.164 0 01-.091-.106l-.262-.912a.164.164 0 01.075-.185L34.932 9.57a.168.168 0 01.153 0l8.135 4.454a.148.148 0 01.082.117.158.158 0 01-.043.139l-.673.696a.156.156 0 01-.19.026l-7.38-4.05-12.478 7.026a.154.154 0 01-.078.007zm-.069-.994l.167.59 12.38-6.96a.16.16 0 01.154 0l7.35 4.037.441-.455-7.873-4.308-12.619 7.096zM22.048 19.006l-5.919 3.258.066.12.37.692 5.918-3.261-.435-.809z" fill="#fff"/><path d="M16.564 23.238h-.046a.17.17 0 01-.095-.08l-.435-.811a.165.165 0 01.066-.219l5.919-3.258a.155.155 0 01.215.063l.435.812a.177.177 0 010 .123.152.152 0 01-.079.096l-5.915 3.261a.171.171 0 01-.066.013zm-.22-.908l.285.527 5.638-3.105-.285-.527-5.637 3.105zM28.104 36.11l-3.922-2.382V21.734l3.922 2.12v12.257zm-3.02-2.906l2.108 1.28V24.407l-2.108-1.136v9.932z" fill="#fff"/><path d="M28.104 36.283a.177.177 0 01-.082-.023L24.1 33.877a.16.16 0 01-.078-.14V21.734a.161.161 0 01.078-.14.165.165 0 01.157 0l3.922 2.125a.158.158 0 01.085.142v12.263a.164.164 0 01-.081.139.179.179 0 01-.079.02zm-3.768-2.652l3.595 2.191V23.951l-3.595-1.949v11.63zm2.86 1.011a.19.19 0 01-.082-.023l-2.125-1.276a.16.16 0 01-.078-.14v-9.941a.154.154 0 01.078-.136.155.155 0 01.157 0l2.108 1.14a.157.157 0 01.085.142v10.075a.17.17 0 01-.048.113.166.166 0 01-.112.05l.017-.004zm-1.962-1.534l1.788 1.087v-9.69l-1.787-.965v9.568zM20.8 32.306l-2.468-1.485v-4.15l2.468 1.45v4.185zm-1.56-2.012l.654.391V28.65l-.653-.38v2.024zM40.456 22.243l-8.218 4.667.445.806 8.219-4.667-.446-.806z" fill="#fff"/><path d="M32.683 27.875a.156.156 0 01-.137-.083l-.444-.789a.157.157 0 01.059-.218l8.22-4.67a.16.16 0 01.218.063l.445.805a.161.161 0 010 .123.15.15 0 01-.075.096l-8.22 4.67a.162.162 0 01-.066.003zm-.225-.905l.288.524 7.932-4.51-.291-.524-7.93 4.51zM40.721 27.447l-8.622 4.927.448.805 8.622-4.926-.448-.806z" fill="#fff"/><path d="M32.55 33.337a.098.098 0 01-.043 0 .145.145 0 01-.095-.077l-.448-.801a.164.164 0 01.062-.223l8.619-4.924a.156.156 0 01.219.06l.447.805a.164.164 0 01-.062.218l-8.622 4.928a.155.155 0 01-.078.014zm-.23-.905l.291.524 8.344-4.77-.278-.52-8.357 4.766z" fill="#fff"/><path d="M30.372 40.93L12.668 30.565l.458-.798 17.26 10.104 16.854-9.409.441.81-17.309 9.656z" fill="#fff"/><path d="M30.375 41.092a.175.175 0 01-.081-.02L12.589 30.705a.165.165 0 01-.075-.1.182.182 0 010-.122l.458-.799a.158.158 0 01.216-.06l17.184 10.06 16.793-9.366a.155.155 0 01.12 0 .167.167 0 01.099.08l.438.808a.164.164 0 01-.063.218l-17.322 9.658a.148.148 0 01-.062.01zM12.896 30.506l17.49 10.238 17.089-9.535-.284-.527-16.718 9.33a.148.148 0 01-.156 0L13.184 29.985l-.287.52zM12.311 32.727l-.454.802 18.702 10.892.454-.802-18.702-10.892z" fill="#fff"/><path d="M30.562 44.568a.165.165 0 01-.079-.023L11.78 33.655a.168.168 0 01-.059-.222l.454-.799a.145.145 0 01.095-.076.141.141 0 01.121.017l18.704 10.89a.153.153 0 01.076.096.159.159 0 01-.017.122l-.454.802a.158.158 0 01-.137.083zM12.076 33.456l18.427 10.728.294-.52L12.37 32.935l-.294.52zM30.3 40.87L12.524 30.552l.451-.8 17.335 10.06 18.3-10.139.437.812L30.3 40.87z" fill="#fff"/><path d="M30.3 41.032a.136.136 0 01-.078-.023L12.445 30.695a.165.165 0 01-.075-.1.146.146 0 01.017-.122l.45-.802a.161.161 0 01.219-.06l17.257 10.016 18.208-10.095a.161.161 0 01.219.063l.435.812a.148.148 0 010 .123.16.16 0 01-.076.096L30.35 41.012a.15.15 0 01-.049.02zM12.743 30.493l17.56 10.191L48.831 30.41l-.284-.527L30.39 39.945a.156.156 0 01-.157 0l-17.195-9.959-.294.507zM48.697 32.7l-18.78 10.84.45.804 18.781-10.84-.451-.804z" fill="#fff"/><path d="M30.372 44.495a.158.158 0 01-.14-.08l-.451-.801a.161.161 0 010-.123.154.154 0 01.075-.1l18.783-10.836a.152.152 0 01.215.06l.452.801c.02.038.026.081.016.123a.168.168 0 01-.075.096l-18.783 10.84a.172.172 0 01-.092.02zm-.232-.901l.291.52 18.505-10.678-.294-.52L30.14 43.594zM30.284 39.842l-.912-.006.121-18.344 13.652-7.841-.03 19.894h-.908l.026-18.31-11.835 6.797-.114 17.81z" fill="#fff"/><path d="M30.284 40.001h-.912a.16.16 0 01-.11-.048.163.163 0 01-.047-.114l.118-18.344a.167.167 0 01.082-.139l13.651-7.841a.162.162 0 01.16 0 .154.154 0 01.079.14l-.026 19.884a.164.164 0 01-.047.115.16.16 0 01-.113.047h-.912a.147.147 0 01-.111-.05.163.163 0 01-.05-.112l.027-18.032-11.527 6.618-.115 17.717a.16.16 0 01-.147.16zm-.748-.331h.591l.115-17.648a.16.16 0 01.081-.139l11.831-6.794a.155.155 0 01.16 0 .16.16 0 01.08.14l-.027 18.147h.598l.026-19.453-13.331 7.655-.124 18.092z" fill="#fff"/><path d="M200 50H0V0h200v50zM2.556 47.412h194.891V2.588H2.556v44.824z" fill="#fff"/><path d="M60.947 1.296h-2.553v46.503h2.553V1.297z" fill="#fff"/></g><defs><clipPath id="akclip0"><path fill="#fff" d="M0 0h200v50H0z"/></clipPath></defs></svg><svg fill="none" viewBox="0 0 617 50" id="main_title" xmlns="http://www.w3.org/2000/svg"><path d="M48 18.116c0 11.141-9.258 18.116-24.034 18.116h-11.15V50H0V0h23.966C38.742 0 48 6.93 48 18.116zm-12.975 0c0-5.48-3.945-8.696-11.789-8.696h-10.42v17.346h10.42c7.844 0 11.79-3.215 11.79-8.65zM73 0h12.974v40.571H114V50H73V0zM174.354 39.28h-26.123L143.269 50H130l25.154-50h12.808L193 50h-13.592l-5.054-10.72zm-4.085-8.772l-8.884-19.153-8.885 19.153h17.769zM223.018 9.429H205V0h49v9.429h-18.018V50h-13.033l.069-40.571zM288.824 9.31v13.238h25.718v9.287h-25.718V50H276V0h42v9.31h-29.176z" fill="#2D2D2D"/><path d="M372.361 31.088c2.216-9.338-3.57-18.7-12.923-20.913-9.353-2.212-18.731 3.564-20.947 12.901-2.216 9.337 3.569 18.7 12.922 20.913 9.353 2.212 18.732-3.564 20.948-12.901z" fill="#5AA0CB"/><path d="M431.257 49.932l-10.666-13.898h-11.76v13.898H396V0h23.953c14.768 0 24.021 6.926 24.021 18.108.071 3.507-1 6.943-3.053 9.798a16.405 16.405 0 01-8.342 6.046L445 50l-13.743-.068zm-12.01-40.516h-10.416v17.406h10.416c7.84 0 11.782-3.282 11.782-8.714 0-5.433-3.942-8.692-11.782-8.692zM520.058 50V19.99L503.855 44.72h-5.733l-16.18-24.07V50H470V0h10.537l20.576 31.074L521.395 0h10.446L532 50h-11.942zM598.392 39.28h-26.084L567.331 50H554l25.043-50h12.845L617 50h-13.632l-4.976-10.72zm-4.097-8.772l-8.911-19.153-8.91 19.153h17.821z" fill="#2D2D2D"/></svg><svg fill="none" viewBox="0 0 300 50" id="newsber-seeklogo1" xmlns="http://www.w3.org/2000/svg"><path d="M134.139 14.264l6.254-4.648h-20.937v27.843h20.937V32.81h-14.955V25.7h12.779v-4.647h-12.779v-6.79h8.701zM103.64 20.461h-7.25v-6.197h11.601l6.254-4.648H90.408v27.843h12.462c6.979 0 11.012-3.19 11.012-8.75 0-5.331-3.625-8.248-10.242-8.248zm-.997 12.35H96.39v-7.702h6.253c3.807 0 5.574 1.276 5.574 3.874 0 2.597-1.903 3.828-5.574 3.828zM157.341 9.616h-11.374v27.843h5.982v-7.884h5.438c7.251 0 11.782-3.828 11.782-9.98 0-6.151-4.531-9.98-11.828-9.98zm-.136 15.311h-5.302V14.264h5.302c3.852 0 5.937 1.914 5.937 5.331 0 3.418-2.085 5.332-5.937 5.332zM80.166 31.443A10.758 10.758 0 0175 32.765c-5.393 0-9.29-3.874-9.29-9.205 0-5.332 3.897-9.205 9.29-9.205 1.949-.046 3.852.592 5.438 1.731l4.305-3.19-.272-.273c-2.492-2.233-5.846-3.372-9.652-3.372-4.124 0-7.886 1.413-10.605 3.965a13.761 13.761 0 00-4.169 10.162c-.045 3.873 1.45 7.61 4.17 10.344 2.855 2.688 6.661 4.192 10.558 4.101 4.306 0 8.067-1.504 10.605-4.238l-3.852-2.87-1.36.728zM241.088 9.661v27.843h5.981V26.112h12.735v11.392h5.982V9.661h-5.982V21.1h-12.735V9.661h-5.981zm-10.287 27.843h6.299L225.408 9.661h-6.073l-11.918 27.843h6.027l2.402-5.605h12.689l2.266 5.605zm-13.142-10.253l4.622-11.164 4.35 11.164h-8.972zm61.54-1.002h3.716l9.154 11.21h7.704l-12.235-14.4 10.695-13.443h-6.843l-8.882 11.939h-3.309V9.615h-5.981V37.46h5.981v-11.21zm-91.54-5.742v-6.198h15.634V9.661h-21.616v27.843h12.462c6.979 0 11.012-3.19 11.012-8.75 0-5.33-3.625-8.247-10.242-8.247h-7.25zm0 12.35v-7.702h6.253c3.807 0 5.574 1.276 5.574 3.873 0 2.598-1.858 3.874-5.574 3.874h-6.253v-.046zM41.329 9.433c1.088 1.413 1.994 2.962 2.764 4.603L23.157 29.575l-8.792-5.56v-6.653l8.746 5.514L41.33 9.433zM5.437 23.56c0-.319 0-.592.046-.911L.18 22.375c0 .365-.046.775-.046 1.14 0 6.38 2.583 12.166 6.753 16.359l3.76-3.782a17.563 17.563 0 01-5.21-12.532zM23.112 5.788c.317 0 .589 0 .906.045L24.29.502c-.363 0-.77-.046-1.133-.046-6.344 0-12.1 2.598-16.269 6.79l3.761 3.782a17.45 17.45 0 0112.463-5.24zM23.111 41.332c-.317 0-.589 0-.906-.046l-.272 5.332c.363 0 .77.045 1.133.045 6.344 0 12.1-2.597 16.269-6.79l-3.761-3.782c-3.173 3.281-7.568 5.24-12.463 5.24z" fill="#8A8A8A"/><path d="M33.081 8.886l4.486-3.326C33.626 2.37 28.596.41 23.112.41v5.332c3.716.046 7.16 1.185 9.97 3.144zM46.133 23.56c0-1.413-.136-2.78-.363-4.147l-4.94 3.691v.456c0 5.24-2.265 9.934-5.845 13.17l3.58 3.964a23.14 23.14 0 007.568-17.134zM23.111 41.332c-5.21 0-9.879-2.279-13.096-5.879l-3.943 3.6c4.215 4.694 10.287 7.61 17.04 7.61v-5.331zM11.283 10.39l-3.58-3.964A23.05 23.05 0 00.135 23.56h5.302c0-5.195 2.266-9.934 5.846-13.17z" fill="#8A8A8A"/></svg><svg fill="none" viewBox="0 0 45 45" id="olive-branches-award-symbol" xmlns="http://www.w3.org/2000/svg"><path d="M4.92 17.475s1.39-1.791.49-4.28c-.901-2.486-3.002-3.43-3.002-3.43S.836 11.9 1.715 14.324c.877 2.425 3.205 3.151 3.205 3.151zM8.777 18.748s2.43-.195 3.822-2.368c1.391-2.17.328-4.6.328-4.6s-2.256.459-3.685 2.688c-1.428 2.228-.465 4.28-.465 4.28zM9.023 21.618c-1.125 2.396.098 4.306.098 4.306s2.386-.511 3.48-2.844c1.094-2.335-.277-4.604-.277-4.604s-2.176.747-3.3 3.142zM14.515 23.548s-2.097.95-2.991 3.439c-.894 2.492.5 4.277.5 4.277s2.325-.732 3.198-3.159c.87-2.427-.707-4.557-.707-4.557zM16.263 36.65s2.018-1.373 2.154-3.947c.135-2.576-1.99-4.16-1.99-4.16s-1.736 1.513-1.875 4.155c-.138 2.64 1.711 3.952 1.711 3.952zM8.018 12.681s2.15-.718 2.781-3.286c.633-2.568-.59-4.52-.59-4.52s-2.49.904-3.107 3.41c-.615 2.503.916 4.396.916 4.396zM4.918 22.936s.798-2.122-.794-4.232C2.53 16.592.244 16.308.244 16.308s-.872 2.504.681 4.562c1.554 2.06 3.993 2.066 3.993 2.066zM6.7 28.536s.306-2.246-1.714-3.95C2.962 22.881.67 23.113.67 23.113S.376 25.75 2.347 27.41C4.32 29.07 6.7 28.536 6.7 28.536zM9.414 33.167s-.384-2.234-2.828-3.244c-2.446-1.013-4.558-.099-4.558-.099s.518 2.601 2.9 3.59c2.38.983 4.486-.247 4.486-.247zM10.6 35.09c-2.548-.712-4.537.447-4.537.447s.824 2.52 3.305 3.215c2.485.695 4.427-.778 4.427-.778S13.148 35.8 10.6 35.09z" fill="#A8A8A8"/><path d="M8.283 14.212l-1.133-.556c-.06.123-5.886 12.499 10.486 26.494l.819-.959C2.868 25.865 8.054 14.681 8.283 14.212zM40.08 17.452s-1.392-1.792-.491-4.278c.899-2.488 3.001-3.432 3.001-3.432s1.57 2.133.692 4.558c-.874 2.425-3.202 3.152-3.202 3.152zM36.223 18.724s-2.43-.196-3.823-2.367c-1.392-2.171-.328-4.6-.328-4.6s2.256.459 3.686 2.686c1.428 2.23.465 4.281.465 4.281zM35.976 21.593c1.125 2.396-.097 4.306-.097 4.306s-2.386-.511-3.483-2.844c-1.092-2.335.278-4.604.278-4.604s2.177.748 3.302 3.142zM30.484 23.524s2.096.95 2.991 3.442c.895 2.491-.502 4.276-.502 4.276s-2.323-.734-3.195-3.16c-.872-2.427.706-4.558.706-4.558zM28.733 36.625s-2.016-1.371-2.152-3.947c-.135-2.576 1.992-4.162 1.992-4.162s1.732 1.514 1.873 4.157c.14 2.643-1.713 3.952-1.713 3.952zM36.979 12.658S34.83 11.939 34.2 9.37c-.632-2.568.592-4.52.592-4.52s2.491.903 3.106 3.41c.615 2.502-.92 4.397-.92 4.397zM40.082 22.913s-.799-2.123.792-4.233c1.595-2.111 3.881-2.395 3.881-2.395s.874 2.503-.68 4.561c-1.555 2.06-3.993 2.067-3.993 2.067zM38.3 28.513s-.308-2.247 1.714-3.953c2.024-1.704 4.314-1.472 4.314-1.472s.295 2.637-1.677 4.297c-1.972 1.66-4.352 1.128-4.352 1.128zM35.584 33.144s.386-2.236 2.83-3.247c2.447-1.014 4.557-.1 4.557-.1s-.517 2.602-2.899 3.588c-2.383.989-4.488-.241-4.488-.241zM34.398 35.067c2.548-.71 4.538.447 4.538.447s-.822 2.518-3.305 3.217c-2.483.692-4.425-.78-4.425-.78s.646-2.172 3.192-2.884z" fill="#A8A8A8"/><path d="M36.715 14.189l1.136-.557c.06.124 5.886 12.5-10.487 26.492l-.818-.958c15.584-13.323 10.398-24.51 10.17-24.977z" fill="#A8A8A8"/></svg><svg fill="none" viewBox="0 0 15 15" id="phone-icon" xmlns="http://www.w3.org/2000/svg"><path d="M14.345 0h-3.93c-.393 0-.655.262-.655.655s.262.655.655.655h2.75L9.564 4.913c-.196.196-.196.59 0 .851.131.066.328.131.459.131.13 0 .327-.065.393-.196l3.275-3.275v2.161c0 .393.262.655.655.655S15 4.978 15 4.585V.655C15 .262 14.738 0 14.345 0z" fill="#fff"/><path d="M12.38 15h-.197c-2.096-.262-4.192-.982-5.96-2.096a13.773 13.773 0 01-4.127-4.127A13.045 13.045 0 010 2.817c0-.524.131-1.048.459-1.441a2.024 2.024 0 011.31-.721H3.93c.983 0 1.834.72 1.965 1.703.066.59.197 1.18.393 1.703.262.72.066 1.507-.458 2.096l-.459.459c.786 1.179 1.769 2.227 3.013 3.013l.459-.459a2.047 2.047 0 012.096-.458 7.176 7.176 0 001.703.393 1.977 1.977 0 011.703 1.965v1.965c0 .524-.197 1.048-.59 1.376-.393.327-.851.589-1.375.589z" fill="#fff"/></svg><svg fill="none" viewBox="0 0 15 15" id="phone-icon-blue" xmlns="http://www.w3.org/2000/svg"><path d="M14.345 0h-3.93c-.393 0-.655.262-.655.655s.262.655.655.655h2.75L9.564 4.913c-.196.196-.196.59 0 .851.131.066.328.131.459.131.13 0 .327-.065.393-.196l3.275-3.275v2.161c0 .393.262.655.655.655S15 4.978 15 4.585V.655C15 .262 14.738 0 14.345 0z" fill="#00A8D0"/><path d="M12.38 15h-.197c-2.096-.262-4.192-.982-5.96-2.096a13.773 13.773 0 01-4.127-4.127A13.045 13.045 0 010 2.817c0-.524.131-1.048.459-1.441a2.024 2.024 0 011.31-.721H3.93c.983 0 1.834.72 1.965 1.703.066.59.197 1.18.393 1.703.262.72.066 1.507-.458 2.096l-.459.459c.786 1.179 1.769 2.227 3.013 3.013l.459-.459a2.047 2.047 0 012.096-.458 7.176 7.176 0 001.703.393 1.977 1.977 0 011.703 1.965v1.965c0 .524-.197 1.048-.59 1.376-.393.327-.851.589-1.375.589z" fill="#00A8D0"/></svg><svg fill="none" viewBox="0 0 12 17" id="placeholder-for-locate-blue" xmlns="http://www.w3.org/2000/svg"><path d="M11.716 4.231c-.061-.227-.187-.468-.28-.68C10.32.937 7.885 0 5.918 0 3.286 0 .387 1.723 0 5.274v.725c0 .03.01.302.026.438C.243 8.13 1.61 9.928 2.633 11.62c1.1 1.814 2.24 3.597 3.37 5.38.697-1.163 1.392-2.342 2.073-3.476.185-.332.4-.664.587-.982.123-.211.36-.423.468-.62C10.231 9.959 12 7.98 12 6.03v-.8c0-.212-.268-.952-.284-.998zM5.968 7.873c-.774 0-1.62-.378-2.039-1.42-.062-.166-.057-.5-.057-.53v-.468c0-1.33 1.157-1.934 2.163-1.934 1.239 0 2.197.967 2.197 2.176 0 1.21-1.025 2.176-2.264 2.176z" fill="#00A8D0"/></svg><svg fill="none" viewBox="0 0 12 17" id="placeholder-icon" xmlns="http://www.w3.org/2000/svg"><path d="M11.716 4.231c-.061-.227-.187-.468-.28-.68C10.32.937 7.885 0 5.918 0 3.286 0 .387 1.723 0 5.274v.725c0 .03.01.302.026.438C.243 8.13 1.61 9.928 2.633 11.62c1.1 1.814 2.24 3.597 3.37 5.38.697-1.163 1.392-2.342 2.073-3.476.185-.332.4-.664.587-.982.123-.211.36-.423.468-.62C10.231 9.959 12 7.98 12 6.03v-.8c0-.212-.268-.952-.284-.998zM5.968 7.873c-.774 0-1.62-.378-2.039-1.42-.062-.166-.057-.5-.057-.53v-.468c0-1.33 1.157-1.934 2.163-1.934 1.239 0 2.197.967 2.197 2.176 0 1.21-1.025 2.176-2.264 2.176z" fill="#fff"/></svg><svg fill="none" viewBox="0 0 200 111" id="platformahome_logo1" xmlns="http://www.w3.org/2000/svg"><g clip-path="url(#asclip0)"><path d="M9.895 88.671c0 2.31-1.909 3.754-4.955 3.754H2.642v2.854H0V84.917h4.94c3.046 0 4.955 1.436 4.955 3.754zm-2.675 0c0-1.135-.813-1.802-2.43-1.802H2.642v3.595H4.79c1.617 0 2.43-.666 2.43-1.793zM15.028 84.917h2.642v8.4h5.706v1.952h-8.348V84.917zM35.749 93.05h-5.322l-1.01 2.22h-2.703l5.124-10.353h2.608l5.1 10.352h-2.768l-1.03-2.22zm-.832-1.816l-1.81-3.966-1.81 3.966h3.62zM45.77 86.87h-3.652v-1.953h9.933v1.952h-3.653v8.4h-2.642l.015-8.4zM59.384 86.841v2.736h5.279v1.92h-5.28v3.754h-2.632V84.917h8.622v1.924h-5.99z" fill="#2D2D2D"/><path d="M76.434 91.312a3.573 3.573 0 00-6.953-1.645 3.573 3.573 0 006.953 1.645z" fill="#5AA0CB"/><path d="M88.467 95.27l-2.2-2.882H83.84v2.881h-2.646V84.917h4.94c3.046 0 4.955 1.436 4.955 3.754a3.375 3.375 0 01-2.35 3.285l2.561 3.328-2.834-.015zm-2.477-8.4H83.84v3.608h2.149c1.617 0 2.43-.68 2.43-1.807 0-1.126-.813-1.802-2.43-1.802zM106.823 95.27v-6.214l-3.361 5.12h-1.189l-3.357-4.984v6.077H96.44V84.917h2.186l4.268 6.434 4.207-6.434h2.167l.033 10.352h-2.477zM122.782 93.05h-5.298l-1.01 2.22h-2.708l5.086-10.353h2.609l5.1 10.352h-2.768l-1.011-2.22zm-.832-1.816l-1.81-3.966-1.81 3.966h3.62zM149.355 84.917v10.352h-2.642v-4.223h-5.171v4.223H138.9V84.917h2.642V89h5.171v-4.083h2.642zM154.601 90.093c0-3.078 2.641-5.354 6.242-5.354s6.243 2.262 6.243 5.354c0 3.093-2.656 5.355-6.243 5.355s-6.242-2.267-6.242-5.355zm9.815 0c0-1.966-1.537-3.313-3.573-3.313-2.035 0-3.572 1.347-3.572 3.313 0 1.967 1.537 3.313 3.572 3.313 2.036 0 3.554-1.346 3.554-3.313h.019zM182.73 95.27v-6.214l-3.357 5.12h-1.189l-3.342-4.984v6.077h-2.477V84.917h2.181l4.273 6.434 4.23-6.434h2.167l.033 10.352h-2.519zM199.995 93.345v1.924h-8.832V84.917h8.621v1.924h-5.998v2.248h5.297v1.877h-5.297v2.393l6.209-.014zM40.971 109.841v-2.698l-1.41 2.168h-.968l-1.41-2.075v2.605H35.18v-5.918h1.805l2.125 3.154 2.068-3.154h1.805v5.918h-2.012zM47.407 109.578a3.163 3.163 0 01-1.312-1.103 2.91 2.91 0 010-3.186c.327-.481.78-.863 1.312-1.103a4.703 4.703 0 013.784 0 3.16 3.16 0 011.33 1.103 2.91 2.91 0 010 3.186 3.163 3.163 0 01-1.312 1.103 4.703 4.703 0 01-3.784 0h-.018zm2.632-1.408c.22-.12.402-.299.526-.516a1.646 1.646 0 000-1.563 1.41 1.41 0 00-.526-.516 1.59 1.59 0 00-1.48 0 1.41 1.41 0 00-.527.516 1.647 1.647 0 000 1.563c.124.217.306.396.526.516a1.592 1.592 0 001.48 0zM62.759 108.292v2.722h-2.012v-1.173h-3.709v1.173h-2.012v-2.722h.188a.831.831 0 00.8-.647 7.272 7.272 0 00.3-1.92l.07-1.802h5.538v4.369h.837zm-4.7-.938c-.054.332-.17.65-.344.938h2.012v-2.815h-1.5v.422c-.017.485-.069.968-.155 1.445l-.014.01zM71.878 103.923l-2.618 4.454a3.393 3.393 0 01-1.142 1.211 2.79 2.79 0 01-1.486.413 3.716 3.716 0 01-1.264-.235l.512-1.436c.218.058.442.091.668.098.143.005.285-.021.418-.075.125-.061.237-.148.329-.253l-2.496-4.177h2.317l1.298 2.492 1.34-2.492h2.124zM80.42 103.923v5.918h-2.163v-4.369h-1.49v.685a11.084 11.084 0 01-.221 2.079 2.507 2.507 0 01-.654 1.262 1.835 1.835 0 01-1.33.47 4.249 4.249 0 01-.94-.108l.113-1.596c.081.007.163.007.244 0a.605.605 0 00.527-.253c.132-.204.215-.435.244-.676.053-.367.085-.737.094-1.108l.085-2.309 5.49.005zM88.829 106.237a1.715 1.715 0 01.663 1.459 1.875 1.875 0 01-.757 1.591 3.41 3.41 0 01-2.069.554h-3.229v-5.918h2.162v1.816h1.35a3.103 3.103 0 011.88.498zm-1.758 2.018a.676.676 0 00.235-.526c0-.394-.254-.591-.762-.591h-.94v1.309h.94a.805.805 0 00.527-.192zM98.536 103.923v5.918h-2.2v-2.182h-2.03v2.182H92.11v-5.918h2.195v2.098h2.03v-2.098h2.2zM106.945 106.237a1.709 1.709 0 01.663 1.459c.015.307-.047.612-.178.889a1.866 1.866 0 01-.574.702 3.424 3.424 0 01-2.068.554h-3.234v-5.918h2.162v1.816h1.349a3.102 3.102 0 011.88.498zm-1.758 2.018a.664.664 0 00.212-.526c0-.394-.254-.591-.762-.591h-.94v1.309h.94a.802.802 0 00.532-.192h.018zm3.018-4.332h2.162v5.918h-2.162v-5.918zM118.8 108.335v1.506h-5.415v-5.918h5.298v1.507h-3.14v.69h2.759v1.44h-2.759v.775h3.257zM133.532 108.292v2.722h-2.011v-1.173h-3.709v1.173H125.8v-2.722h.188a.826.826 0 00.799-.647 7.098 7.098 0 00.296-1.92l.075-1.802h5.514v4.369h.86zm-4.7-.938c-.053.332-.17.65-.343.938h2.011v-2.815h-1.499v.422a11.1 11.1 0 01-.155 1.445l-.014.01zM137.556 109.578a3.206 3.206 0 01-1.316-1.103 2.91 2.91 0 010-3.186c.33-.481.785-.862 1.316-1.103a4.665 4.665 0 013.761 0c.531.241.986.622 1.316 1.103a2.907 2.907 0 010 3.186c-.33.48-.785.862-1.316 1.103a4.683 4.683 0 01-3.761 0zm2.633-1.408c.218-.12.399-.299.521-.516a1.642 1.642 0 000-1.563 1.38 1.38 0 00-.521-.516 1.604 1.604 0 00-1.486 0 1.4 1.4 0 00-.526.516 1.675 1.675 0 000 1.563c.124.217.306.396.526.516a1.601 1.601 0 001.486 0zM151.602 109.841v-2.698l-1.41 2.168h-.969l-1.41-2.075v2.605h-2.002v-5.918h1.809l2.12 3.154 2.069-3.154h1.776v5.918h-1.983zM161.215 108.809h-2.459l-.437 1.032h-2.237l2.848-5.918h2.162l2.835 5.918h-2.27l-.442-1.032zm-.607-1.436l-.634-1.488-.635 1.488h1.269zM68.973 28.42c-.126.05-.255.095-.385.131-.061.038-.118.08-.184.113v22.962h2.11V31.705L82.658 38.5l1.034-1.835-14.718-8.245z" fill="#2D2D2D"/><path d="M99.354 68.778l-.23-40.616-14.826-7.978V60.42l-2.111-.755V16.617l19.038 10.263.24 41.86-2.111.038z" fill="#2D2D2D"/><path d="M112.173 0L82.187 16.617c.005.111.022.222.052.329.037.117.09.227.16.328l.695 1.253 29.093-16.129 17.279 9.344 1.006-1.878L112.173 0zM82.366 21.061L68.423 28.66l.15.268.856 1.581 13.717-7.438c-.263-.671-.54-1.337-.78-2.009zM95.767 60.242l-9.12-5.43V27.445l9.12 4.838v27.96zm-6.995-6.626l4.884 2.914V33.535l-4.884-2.595v22.676zM79.249 51.546l-5.726-3.392v-9.466l5.726 3.285v9.573zm-3.615-4.594l1.504.892v-4.642l-1.504-.863v4.613zM106.978 40.978v-2.412l17.571-9.855v2.417l-17.571 9.85zM106.978 53.264v-2.417l17.628-9.916v2.417l-17.628 9.916z" fill="#2D2D2D"/><path d="M101.234 71.125l-39.98-23.042v-2.44l40.201 23.182 37.173-20.503v2.403l-37.394 20.4zM85.58 69.848L61.254 55.901v-2.43l28.562 16.377H85.58z" fill="#2D2D2D"/><path d="M101.262 71.106L60.07 47.572l1.048-1.83 40.167 22.947 42.41-23.126 1.011 1.849-43.444 23.694zM117.55 69.849h-4.264l25.342-14.403v2.427L117.55 69.849z" fill="#2D2D2D"/><path d="M129.889 9.648L99.391 26.895l-.277 41.846h2.11l.268-40.63 27.419-15.487-.061 41.766h2.111l.066-44.146a4.019 4.019 0 00-.47-.319 3.497 3.497 0 00-.668-.277z" fill="#2D2D2D"/></g><defs><clipPath id="asclip0"><path fill="#fff" d="M0 0h200v111H0z"/></clipPath></defs></svg><svg fill="none" viewBox="0 0 62 49" id="quotes1" xmlns="http://www.w3.org/2000/svg"><path d="M20.233 22.915c2.409 1.057 4.288 2.642 5.636 4.756 1.35 2.113 2.024 4.611 2.024 7.494 0 4.131-1.3 7.494-3.902 10.088C21.389 47.75 18.065 49 14.019 49c-4.047 0-7.42-1.297-10.117-3.891C1.301 42.515 0 39.2 0 35.165c0-1.922.24-3.843.723-5.765.481-1.922 1.541-4.804 3.18-8.647L12.283 0h14.308l-6.359 22.915zm34.107 0c2.409 1.057 4.288 2.642 5.637 4.756C61.326 29.784 62 32.282 62 35.165c0 4.131-1.3 7.494-3.902 10.088C55.496 47.75 52.173 49 48.126 49s-7.419-1.297-10.117-3.891c-2.601-2.594-3.902-5.909-3.902-9.944 0-1.922.241-3.843.723-5.765.482-1.922 1.541-4.804 3.18-8.647L46.391 0h14.307L54.34 22.915z" fill="#00A8D0"/></svg><svg fill="none" viewBox="0 0 15 15" id="route-icon" xmlns="http://www.w3.org/2000/svg"><path d="M11.719 0a3.285 3.285 0 00-3.281 3.281c0 1.684 2.632 4.666 2.932 5a.471.471 0 00.698 0c.3-.334 2.932-3.316 2.932-5A3.285 3.285 0 0011.719 0zm0 4.688a1.407 1.407 0 110-2.814 1.407 1.407 0 010 2.813zM.294 5.507A.47.47 0 000 5.943v8.588a.47.47 0 00.643.435l4.045-1.618V3.75L.293 5.507z" fill="#00A8D0"/><path d="M12.765 8.908a1.41 1.41 0 01-2.093 0 20.21 20.21 0 01-.36-.411V15l4.394-1.757a.468.468 0 00.294-.435V5.917c-.768 1.3-1.794 2.5-2.235 2.991zM7.795 4.618l-2.17-.868v9.598l3.75 1.5V7.32c-.6-.807-1.224-1.78-1.58-2.702z" fill="#00A8D0"/></svg><svg fill="none" viewBox="0 0 120 120" id="series_link_img" xmlns="http://www.w3.org/2000/svg"><circle opacity=".85" cx="60" cy="60" r="60" fill="#00A8D0"/><path d="M34.173 58.12c-.713 0-1.36-.153-1.94-.46a3.563 3.563 0 01-1.36-1.29 3.608 3.608 0 01-.49-1.87c0-.693.164-1.313.49-1.86a3.468 3.468 0 011.36-1.29c.58-.313 1.23-.47 1.95-.47.607 0 1.154.107 1.64.32.493.213.907.52 1.24.92l-1.04.96c-.473-.547-1.06-.82-1.76-.82-.433 0-.82.097-1.16.29-.34.187-.607.45-.8.79a2.37 2.37 0 00-.28 1.16c0 .433.093.82.28 1.16.194.34.46.607.8.8.34.187.727.28 1.16.28.7 0 1.287-.277 1.76-.83l1.04.96a3.242 3.242 0 01-1.24.93 4.117 4.117 0 01-1.65.32zM44.49 58l-.01-4.19-2.06 3.45h-.72l-2.06-3.37V58h-1.52v-7h1.34l2.62 4.35 2.58-4.35h1.34l.01 7h-1.52zm6.599.12c-.727 0-1.383-.157-1.97-.47a3.545 3.545 0 01-1.37-1.29 3.59 3.59 0 01-.49-1.86c0-.687.163-1.303.49-1.85.333-.553.79-.987 1.37-1.3.587-.313 1.243-.47 1.97-.47.727 0 1.38.157 1.96.47a3.522 3.522 0 011.87 3.15c0 .687-.167 1.307-.5 1.86-.333.547-.79.977-1.37 1.29-.58.313-1.233.47-1.96.47zm0-1.38c.413 0 .787-.093 1.12-.28.333-.193.593-.46.78-.8.193-.34.29-.727.29-1.16 0-.433-.097-.82-.29-1.16a1.976 1.976 0 00-.78-.79 2.191 2.191 0 00-1.12-.29c-.413 0-.787.097-1.12.29-.333.187-.597.45-.79.79-.187.34-.28.727-.28 1.16 0 .433.093.82.28 1.16.193.34.457.607.79.8.333.187.707.28 1.12.28zm10.33-4.42h-2.24V58h-1.6v-5.68h-2.23V51h6.07v1.32zM65.465 51c.62 0 1.157.103 1.61.31.46.207.814.5 1.06.88.247.38.37.83.37 1.35 0 .513-.123.963-.37 1.35-.246.38-.6.673-1.06.88-.453.2-.99.3-1.61.3h-1.41V58h-1.62v-7h3.03zm-.09 3.75c.487 0 .857-.103 1.11-.31.254-.213.38-.513.38-.9 0-.393-.126-.693-.38-.9-.253-.213-.623-.32-1.11-.32h-1.32v2.43h1.32zm9.62 1.95V58h-5.42v-7h5.29v1.3h-3.68v1.52h3.25v1.26h-3.25v1.62h3.81zm6.658-4.38h-2.24V58h-1.6v-5.68h-2.23V51h6.07v1.32zm4.407.98c.853 0 1.507.19 1.96.57.46.38.69.943.69 1.69 0 .793-.253 1.4-.76 1.82-.5.413-1.207.62-2.12.62h-3.16v-7h1.61v2.3h1.78zm-.32 3.5c.42 0 .747-.103.98-.31.24-.207.36-.507.36-.9 0-.727-.447-1.09-1.34-1.09h-1.46v2.3h1.46zm-42.3 13.32c-.713 0-1.36-.153-1.94-.46a3.565 3.565 0 01-1.36-1.29 3.61 3.61 0 01-.49-1.87c0-.693.164-1.313.49-1.86a3.47 3.47 0 011.36-1.29c.58-.313 1.23-.47 1.95-.47.607 0 1.154.107 1.64.32.494.213.907.52 1.24.92l-1.04.96c-.473-.547-1.06-.82-1.76-.82-.433 0-.82.097-1.16.29-.34.187-.606.45-.8.79-.186.34-.28.727-.28 1.16 0 .433.094.82.28 1.16.194.34.46.607.8.8.34.187.727.28 1.16.28.7 0 1.287-.277 1.76-.83l1.04.96a3.24 3.24 0 01-1.24.93 4.116 4.116 0 01-1.65.32zm9.367-1.42V70h-5.42v-7h5.29v1.3h-3.68v1.52h3.25v1.26h-3.25v1.62h3.81zm4.338-5.7c.62 0 1.157.103 1.61.31.46.207.813.5 1.06.88.247.38.37.83.37 1.35 0 .513-.123.963-.37 1.35-.246.38-.6.673-1.06.88-.453.2-.99.3-1.61.3h-1.41V70h-1.62v-7h3.03zm-.09 3.75c.487 0 .857-.103 1.11-.31.254-.213.38-.513.38-.9 0-.393-.127-.693-.38-.9-.253-.213-.623-.32-1.11-.32h-1.32v2.43h1.32zM61.254 63h1.61v4.56l3.34-4.56h1.52v7h-1.6v-4.55L62.784 70h-1.53v-7zm14.393-.12c.7 0 1.33.157 1.89.47.566.313 1.01.747 1.33 1.3.32.547.48 1.163.48 1.85s-.16 1.307-.48 1.86c-.32.547-.764.977-1.33 1.29-.56.313-1.19.47-1.89.47-.627 0-1.2-.123-1.72-.37a3.547 3.547 0 01-1.29-1.05 3.518 3.518 0 01-.64-1.55h-.92V70h-1.61v-7h1.61v2.75h.94a3.426 3.426 0 011.94-2.51 3.94 3.94 0 011.69-.36zm0 5.86a1.97 1.97 0 001.79-1.07c.18-.34.27-.73.27-1.17 0-.44-.09-.83-.27-1.17a1.97 1.97 0 00-1.79-1.07 1.97 1.97 0 00-1.79 1.07c-.18.34-.27.73-.27 1.17 0 .44.09.83.27 1.17a1.97 1.97 0 001.79 1.07z" fill="#fff"/></svg><svg viewBox="0 0 120 120" fill="none" id="series_link_img_small" xmlns="http://www.w3.org/2000/svg"><circle opacity=".85" cx="60" cy="60" r="60" fill="#00A8D0"/><path d="M34.173 58.12c-.713 0-1.36-.153-1.94-.46a3.563 3.563 0 01-1.36-1.29 3.608 3.608 0 01-.49-1.87c0-.693.164-1.313.49-1.86a3.468 3.468 0 011.36-1.29c.58-.313 1.23-.47 1.95-.47.607 0 1.154.107 1.64.32.493.213.907.52 1.24.92l-1.04.96c-.473-.547-1.06-.82-1.76-.82-.433 0-.82.097-1.16.29-.34.187-.607.45-.8.79a2.37 2.37 0 00-.28 1.16c0 .433.093.82.28 1.16.194.34.46.607.8.8.34.187.727.28 1.16.28.7 0 1.287-.277 1.76-.83l1.04.96a3.242 3.242 0 01-1.24.93 4.117 4.117 0 01-1.65.32zM44.49 58l-.01-4.19-2.06 3.45h-.72l-2.06-3.37V58h-1.52v-7h1.34l2.62 4.35 2.58-4.35h1.34l.01 7h-1.52zm6.599.12c-.727 0-1.383-.157-1.97-.47a3.545 3.545 0 01-1.37-1.29 3.59 3.59 0 01-.49-1.86c0-.687.163-1.303.49-1.85.333-.553.79-.987 1.37-1.3.587-.313 1.243-.47 1.97-.47.727 0 1.38.157 1.96.47a3.522 3.522 0 011.87 3.15c0 .687-.167 1.307-.5 1.86-.333.547-.79.977-1.37 1.29-.58.313-1.233.47-1.96.47zm0-1.38c.413 0 .787-.093 1.12-.28.333-.193.593-.46.78-.8.193-.34.29-.727.29-1.16 0-.433-.097-.82-.29-1.16a1.976 1.976 0 00-.78-.79 2.191 2.191 0 00-1.12-.29c-.413 0-.787.097-1.12.29-.333.187-.597.45-.79.79-.187.34-.28.727-.28 1.16 0 .433.093.82.28 1.16.193.34.457.607.79.8.333.187.707.28 1.12.28zm10.33-4.42h-2.24V58h-1.6v-5.68h-2.23V51h6.07v1.32zM65.465 51c.62 0 1.157.103 1.61.31.46.207.814.5 1.06.88.247.38.37.83.37 1.35 0 .513-.123.963-.37 1.35-.246.38-.6.673-1.06.88-.453.2-.99.3-1.61.3h-1.41V58h-1.62v-7h3.03zm-.09 3.75c.487 0 .857-.103 1.11-.31.254-.213.38-.513.38-.9 0-.393-.126-.693-.38-.9-.253-.213-.623-.32-1.11-.32h-1.32v2.43h1.32zm9.62 1.95V58h-5.42v-7h5.29v1.3h-3.68v1.52h3.25v1.26h-3.25v1.62h3.81zm6.658-4.38h-2.24V58h-1.6v-5.68h-2.23V51h6.07v1.32zm4.407.98c.853 0 1.507.19 1.96.57.46.38.69.943.69 1.69 0 .793-.253 1.4-.76 1.82-.5.413-1.207.62-2.12.62h-3.16v-7h1.61v2.3h1.78zm-.32 3.5c.42 0 .747-.103.98-.31.24-.207.36-.507.36-.9 0-.727-.447-1.09-1.34-1.09h-1.46v2.3h1.46zm-42.3 13.32c-.713 0-1.36-.153-1.94-.46a3.565 3.565 0 01-1.36-1.29 3.61 3.61 0 01-.49-1.87c0-.693.164-1.313.49-1.86a3.47 3.47 0 011.36-1.29c.58-.313 1.23-.47 1.95-.47.607 0 1.154.107 1.64.32.494.213.907.52 1.24.92l-1.04.96c-.473-.547-1.06-.82-1.76-.82-.433 0-.82.097-1.16.29-.34.187-.606.45-.8.79-.186.34-.28.727-.28 1.16 0 .433.094.82.28 1.16.194.34.46.607.8.8.34.187.727.28 1.16.28.7 0 1.287-.277 1.76-.83l1.04.96a3.24 3.24 0 01-1.24.93 4.116 4.116 0 01-1.65.32zm9.367-1.42V70h-5.42v-7h5.29v1.3h-3.68v1.52h3.25v1.26h-3.25v1.62h3.81zm4.338-5.7c.62 0 1.157.103 1.61.31.46.207.813.5 1.06.88.247.38.37.83.37 1.35 0 .513-.123.963-.37 1.35-.246.38-.6.673-1.06.88-.453.2-.99.3-1.61.3h-1.41V70h-1.62v-7h3.03zm-.09 3.75c.487 0 .857-.103 1.11-.31.254-.213.38-.513.38-.9 0-.393-.127-.693-.38-.9-.253-.213-.623-.32-1.11-.32h-1.32v2.43h1.32zM61.254 63h1.61v4.56l3.34-4.56h1.52v7h-1.6v-4.55L62.784 70h-1.53v-7zm14.393-.12c.7 0 1.33.157 1.89.47.566.313 1.01.747 1.33 1.3.32.547.48 1.163.48 1.85s-.16 1.307-.48 1.86c-.32.547-.764.977-1.33 1.29-.56.313-1.19.47-1.89.47-.627 0-1.2-.123-1.72-.37a3.547 3.547 0 01-1.29-1.05 3.518 3.518 0 01-.64-1.55h-.92V70h-1.61v-7h1.61v2.75h.94a3.426 3.426 0 011.94-2.51 3.94 3.94 0 011.69-.36zm0 5.86a1.97 1.97 0 001.79-1.07c.18-.34.27-.73.27-1.17 0-.44-.09-.83-.27-1.17a1.97 1.97 0 00-1.79-1.07 1.97 1.97 0 00-1.79 1.07c-.18.34-.27.73-.27 1.17 0 .44.09.83.27 1.17a1.97 1.97 0 001.79 1.07z" fill="#fff"/></svg><svg fill="none" viewBox="0 0 100 100" id="slider-button-next_big" xmlns="http://www.w3.org/2000/svg"><circle cx="50" cy="50" r="49" stroke="#fff" stroke-width="2"/><path d="M63.707 50.707a1 1 0 000-1.414l-6.364-6.364a1 1 0 00-1.414 1.414L61.586 50l-5.657 5.657a1 1 0 001.414 1.414l6.364-6.364zM38 51h25v-2H38v2z" fill="#fff"/></svg><svg viewBox="0 0 100 100" fill="none" id="slider-button-next_mid" xmlns="http://www.w3.org/2000/svg"><circle cx="50" cy="50" r="49" stroke="#fff" stroke-width="2"/><path d="M63.707 50.707a1 1 0 000-1.414l-6.364-6.364a1 1 0 00-1.414 1.414L61.586 50l-5.657 5.657a1 1 0 001.414 1.414l6.364-6.364zM38 51h25v-2H38v2z" fill="#fff"/></svg><svg viewBox="0 0 100 100" fill="none" id="slider-button-next_small" xmlns="http://www.w3.org/2000/svg"><circle cx="50" cy="50" r="49" stroke="#fff" stroke-width="2"/><path d="M63.707 50.707a1 1 0 000-1.414l-6.364-6.364a1 1 0 00-1.414 1.414L61.586 50l-5.657 5.657a1 1 0 001.414 1.414l6.364-6.364zM38 51h25v-2H38v2z" fill="#fff"/></svg><svg fill="none" viewBox="0 0 100 100" id="slider-button-prev_big" xmlns="http://www.w3.org/2000/svg"><circle r="49" transform="matrix(-1 0 0 1 50 50)" stroke="#fff" stroke-width="2"/><path d="M36.293 50.707a1 1 0 010-1.414l6.364-6.364a1 1 0 011.414 1.414L38.414 50l5.657 5.657a1 1 0 01-1.414 1.414l-6.364-6.364zM62 51H37v-2h25v2z" fill="#fff"/></svg><svg viewBox="0 0 100 100" fill="none" id="slider-button-prev_mid" xmlns="http://www.w3.org/2000/svg"><circle r="49" transform="matrix(-1 0 0 1 50 50)" stroke="#fff" stroke-width="2"/><path d="M36.293 50.707a1 1 0 010-1.414l6.364-6.364a1 1 0 011.414 1.414L38.414 50l5.657 5.657a1 1 0 01-1.414 1.414l-6.364-6.364zM62 51H37v-2h25v2z" fill="#fff"/></svg><svg viewBox="0 0 100 100" fill="none" id="slider-button-prev_small" xmlns="http://www.w3.org/2000/svg"><circle r="49" transform="matrix(-1 0 0 1 50 50)" stroke="#fff" stroke-width="2"/><path d="M36.293 50.707a1 1 0 010-1.414l6.364-6.364a1 1 0 011.414 1.414L38.414 50l5.657 5.657a1 1 0 01-1.414 1.414l-6.364-6.364zM62 51H37v-2h25v2z" fill="#fff"/></svg><svg fill="none" viewBox="0 0 100 100" id="slider-link" xmlns="http://www.w3.org/2000/svg"><circle cx="50" cy="50" r="49" stroke="#fff" stroke-width="2"/><path d="M63.707 50.707a1 1 0 000-1.414l-6.364-6.364a1 1 0 00-1.414 1.414L61.586 50l-5.657 5.657a1 1 0 001.414 1.414l6.364-6.364zM38 51h25v-2H38v2z" fill="#fff"/></svg><svg fill="none" viewBox="0 0 100 100" id="slider-link-left" xmlns="http://www.w3.org/2000/svg"><circle r="49" transform="matrix(-1 0 0 1 50 50)" stroke="#fff" stroke-width="2"/><path d="M36.293 50.707a1 1 0 010-1.414l6.364-6.364a1 1 0 011.414 1.414L38.414 50l5.657 5.657a1 1 0 01-1.414 1.414l-6.364-6.364zM62 51H37v-2h25v2z" fill="#fff"/></svg><svg fill="none" viewBox="0 0 40 40" id="swiper1-arrow-left" xmlns="http://www.w3.org/2000/svg"><circle cx="20" cy="20" r="20" transform="rotate(180 20 20)" fill="#2D2D2D"/><path d="M9.47 19.47a.75.75 0 000 1.06l4.773 4.773a.75.75 0 001.06-1.06L11.061 20l4.242-4.243a.75.75 0 00-1.06-1.06L9.47 19.47zM30 19.25H10v1.5h20v-1.5z" fill="#fff"/></svg><svg fill="none" viewBox="0 0 40 40" id="swiper1-arrow-right" xmlns="http://www.w3.org/2000/svg"><circle cx="20" cy="20" r="20" fill="#2D2D2D"/><path d="M30.53 20.53a.75.75 0 000-1.06l-4.773-4.773a.75.75 0 00-1.06 1.06L28.939 20l-4.242 4.243a.75.75 0 001.06 1.06l4.773-4.773zM10 20.75h20v-1.5H10v1.5z" fill="#fff"/></svg><svg fill="none" viewBox="0 0 100 100" id="swiper11-arrow-left" xmlns="http://www.w3.org/2000/svg"><circle r="49" transform="matrix(-1 0 0 1 50 50)" stroke="#292A2A" stroke-width="2"/><path d="M36.293 50.707a1 1 0 010-1.414l6.364-6.364a1 1 0 011.414 1.414L38.414 50l5.657 5.657a1 1 0 01-1.414 1.414l-6.364-6.364zM62 51H37v-2h25v2z" fill="#292A2A"/></svg><svg fill="none" viewBox="0 0 100 100" id="swiper11-arrow-right" xmlns="http://www.w3.org/2000/svg"><circle r="49" transform="matrix(1 0 0 -1 50 50)" stroke="#292A2A" stroke-width="2"/><path d="M63.707 49.293a1 1 0 010 1.414l-6.364 6.364a1 1 0 01-1.414-1.414L61.586 50l-5.657-5.657a1 1 0 011.414-1.414l6.364 6.364zM38 49h25v2H38v-2z" fill="#292A2A"/></svg><svg fill="none" viewBox="0 0 24 20" id="tg-icon" xmlns="http://www.w3.org/2000/svg"><path d="M7.096 11.522l1.943 6.993.678-5.863 10.327-9.816-12.948 8.686z" fill="#00A8D0"/><path d="M8.065 10.922l1.806 6.55.63-5.492 9.596-9.195-12.032 8.137z" fill="#fff"/><path d="M12.655 14.87l-3.616 3.645.678-5.863 2.938 2.218z" fill="#00A8D0"/><path d="M9.716 12.652l9.039 6.824L23.317 0 0 9.172l7.095 2.35 12.949-8.686-10.328 9.816z" fill="#00A8D0"/></svg><svg fill="none" viewBox="0 0 100 100" id="video-play-btn" xmlns="http://www.w3.org/2000/svg"><circle cx="50" cy="50" r="50" fill="#fff"/><path d="M57 50.5l-11.25 6.495v-12.99L57 50.5z" fill="#00A8D0"/></svg><svg fill="none" viewBox="0 0 23 14" id="vk-icon" xmlns="http://www.w3.org/2000/svg"><path fill-rule="evenodd" clip-rule="evenodd" d="M11.253 13.943h1.375s.415-.045.627-.272c.195-.208.189-.598.189-.598s-.027-1.828.83-2.097c.843-.265 1.927 1.766 3.076 2.547.868.592 1.528.462 1.528.462l3.072-.042s1.607-.098.845-1.35c-.063-.102-.444-.926-2.284-2.618-1.926-1.771-1.668-1.485.652-4.548 1.413-1.866 1.978-3.005 1.802-3.493-.169-.465-1.208-.342-1.208-.342l-3.458.021s-.257-.034-.447.078c-.186.11-.305.368-.305.368S17 3.503 16.27 4.731c-1.54 2.59-2.156 2.728-2.408 2.567-.585-.375-.44-1.507-.44-2.31 0-2.511.385-3.558-.748-3.829-.376-.09-.652-.15-1.614-.159-1.234-.013-2.278.004-2.87.29-.393.192-.696.617-.512.641.229.03.747.139 1.021.51.355.477.342 1.55.342 1.55s.204 2.955-.475 3.322c-.467.252-1.106-.262-2.479-2.612-.704-1.204-1.235-2.535-1.235-2.535s-.102-.249-.285-.382a1.441 1.441 0 00-.531-.213L.75 1.593s-.494.013-.675.226c-.161.189-.013.58-.013.58s2.573 5.964 5.486 8.97c2.672 2.755 5.705 2.574 5.705 2.574z" fill="#00A8D0"/></svg><svg fill="none" viewBox="0 0 112 40" id="vtb-logo" xmlns="http://www.w3.org/2000/svg"><g clip-path="url(#bmclip0)" fill="#8A8A8A"><path d="M7.59-.003L5.689 5.23h26.343l1.9-5.233H7.59zM4.739 7.845l-1.901 5.232H29.18l1.9-5.232H4.74zm-2.847 7.848l-1.9 5.232h26.342l1.9-5.232H1.892zM55.996 22.92v.11c1.204.444 2.355 1.221 2.957 1.72 1.862 1.553 2.684 3.604 2.684 6.266 0 4.383-2.3 7.543-6.078 8.542-1.15.332-2.354.443-4.6.443H39.518V7.946h10.13c2.08 0 3.503.111 4.762.443 3.669.998 6.078 3.55 6.078 7.597 0 2.164-.767 3.995-2.026 5.214-.548.554-1.314 1.22-2.463 1.719l-.003.001zm-10.128 3.383v8.43h4.38c1.314 0 2.52-.111 3.395-.943.876-.832 1.259-1.886 1.259-3.272 0-1.053-.275-2.052-.822-2.773-.93-1.164-2.08-1.442-4.051-1.442h-4.162zm-.056-5.546h3.56c1.094 0 1.642 0 2.189-.166 1.48-.445 2.41-1.774 2.41-3.605 0-2.162-.985-3.106-2.41-3.548-.603-.167-1.204-.222-2.41-.222h-3.339v7.542-.001zm25.35 19.245V13.326H62.02V7.947h25.406l-1.806 5.379h-8.105v26.676H71.163zm18.235 0V7.947h20.589l-1.807 5.379H95.695v7.1h5.093c4.106 0 6.242.998 7.72 2.272 1.151 1 3.121 3.216 3.121 7.6 0 4.325-2.025 6.709-3.723 7.93-1.971 1.385-4.052 1.774-8.269 1.774h-10.24zm6.297-5.38h4.763c1.807 0 2.901-.444 3.668-1.443.383-.498.931-1.387.931-3.05 0-1.663-.548-2.828-1.643-3.66-.656-.499-1.533-.775-3.012-.775h-4.708v8.928z"/></g><defs><clipPath id="bmclip0"><path fill="#fff" d="M0 0h111.628v40H0z"/></clipPath></defs></svg><svg fill="none" viewBox="0 0 24 24" id="whatsapp-icon" xmlns="http://www.w3.org/2000/svg"><path d="M7.138 20.524A10.417 10.417 0 0012.502 22C18.293 22 23 17.29 23 11.5S18.293 1 12.502 1h-.004C6.707 1 2 5.709 2 11.5c0 2.108.624 4.077 1.701 5.724L2.677 20.28l-.628 1.872 1.88-.601 3.209-1.026z" fill="#00A8D0" stroke="#fff" stroke-width="2"/><path d="M18.03 15.415c-.229.648-1.139 1.184-1.864 1.341-.497.106-1.145.19-3.328-.715-2.791-1.157-4.59-3.993-4.73-4.178-.134-.183-1.128-1.502-1.128-2.865 0-1.363.693-2.027.972-2.312.229-.234.608-.34.971-.34.118 0 .223.005.318.01.28.012.42.028.604.469.229.552.787 1.915.853 2.056.068.14.136.33.04.514-.088.19-.166.274-.307.436-.14.161-.273.285-.413.458-.128.15-.273.312-.112.591.162.273.72 1.184 1.542 1.916 1.06.944 1.92 1.245 2.228 1.374.229.095.502.072.67-.106.212-.23.474-.61.742-.983.19-.269.43-.302.681-.207.257.09 1.614.76 1.893.899.28.14.463.207.53.324.067.118.067.67-.162 1.318z" fill="#FAFAFA"/></svg></svg>