<svg width="400" height="100" viewBox="0 0 400 100" fill="none" xmlns="http://www.w3.org/2000/svg">
<g clip-path="url(#clip0)">
<path d="M163.604 33.7757C163.604 37.9142 160.225 40.4858 154.832 40.4858H150.766V45.6094H146.066V27.0391H154.812C160.225 27.0391 163.604 29.6107 163.604 33.7757ZM158.872 33.7757C158.872 31.7329 157.427 30.5429 154.571 30.5429H150.766V36.9886H154.564C157.427 36.9886 158.872 35.792 158.872 33.7757Z" fill="#292A2A"/>
<path d="M172.689 27.0391H177.363V42.1055H187.495V45.6094H172.689V27.0391Z" fill="#292A2A"/>
<path d="M209.36 41.6291H199.987L198.196 45.5957H193.404L202.405 27.0254H207.027L216.054 45.5957H211.151L209.36 41.6291ZM207.889 38.3633L204.686 31.2564L201.484 38.3633H207.889Z" fill="#292A2A"/>
<path d="M227.121 30.5429H220.656V27.0391H238.233V30.5429H231.768V45.6094H227.121V30.5429Z" fill="#292A2A"/>
<path d="M251.195 30.49V35.3954H260.549V38.8397H251.195V45.6094H246.521V27.0391H261.765V30.49H251.195Z" fill="#292A2A"/>
<path d="M275.204 43.408C278.695 43.408 281.525 40.5458 281.525 37.0152C281.525 33.4845 278.695 30.6223 275.204 30.6223C271.713 30.6223 268.883 33.4845 268.883 37.0152C268.883 40.5458 271.713 43.408 275.204 43.408Z" fill="#00A2CE"/>
<path d="M302.684 45.6094L298.762 40.4329H294.461V45.6094H289.787V27.0391H298.527C303.926 27.0391 307.299 29.6107 307.299 33.7757C307.299 36.5589 305.769 38.6017 303.148 39.6396L307.678 45.5895L302.684 45.6094ZM298.298 30.5429H294.487V37.0151H298.298C301.154 37.0151 302.592 35.792 302.592 33.7757C302.592 31.7593 301.154 30.5429 298.298 30.5429Z" fill="#292A2A"/>
<path d="M335.17 45.6094V34.4698L329.228 43.6459H327.123L321.175 34.6946V45.5961H316.789V27.0391H320.652L328.215 38.5753L335.66 27.0391H339.497L339.556 45.6094H335.17Z" fill="#292A2A"/>
<path d="M363.415 41.6291H354.035L352.244 45.5957H347.459L356.46 27.0254H361.075L370.108 45.5957H365.206L363.415 41.6291ZM361.944 38.3633L358.741 31.2564L355.538 38.3633H361.944Z" fill="#292A2A"/>
<path d="M164.611 55.3674V73.9311H159.937V66.3219H150.786V73.9311H146.066V55.3674H150.747V62.6858H159.898V55.3674H164.611Z" fill="#292A2A"/>
<path d="M173.906 64.649C173.906 59.1354 178.58 55.0498 184.953 55.0498C191.326 55.0498 196.006 59.109 196.006 64.649C196.006 70.189 191.3 74.2482 184.953 74.2482C178.606 74.2482 173.906 70.1626 173.906 64.649ZM191.274 64.649C191.274 61.1187 188.561 58.6991 184.953 58.6991C181.345 58.6991 178.632 61.1121 178.632 64.649C178.632 68.1859 181.345 70.5989 184.953 70.5989C188.561 70.5989 191.274 68.1793 191.274 64.649Z" fill="#292A2A"/>
<path d="M223.676 73.9311L223.643 62.7916L217.701 71.9677H215.597L209.681 63.0296V73.9311H205.295V55.3674H209.158L216.721 66.9036L224.166 55.3674H228.003L228.062 73.9311H223.676Z" fill="#292A2A"/>
<path d="M254.255 70.4868V73.9311H238.619V55.3674H253.882V58.8118H243.26V62.8445H252.614V66.1897H243.26V70.4868H254.255Z" fill="#292A2A"/>
<path d="M32.7481 44.2141C32.6397 44.2595 32.5283 44.297 32.4147 44.3265C32.3649 44.3634 32.3124 44.3965 32.2578 44.4257V64.5033H34.0815V47.0833L44.5401 53.0332L45.429 51.4267L32.7481 44.2141Z" fill="#292A2A"/>
<path d="M34.0809 64.8275H32.2572C32.2154 64.8275 32.1741 64.8191 32.1356 64.8028C32.0971 64.7864 32.0622 64.7624 32.033 64.7322C32.0038 64.7021 31.9808 64.6663 31.9654 64.6271C31.95 64.5878 31.9426 64.5458 31.9434 64.5036V44.4259C31.9437 44.3675 31.9597 44.3102 31.9896 44.2601C32.0195 44.21 32.0623 44.1691 32.1134 44.1417L32.2506 44.0491H32.3291C32.4314 44.023 32.5319 43.9899 32.6298 43.9499C32.6725 43.9289 32.7195 43.918 32.767 43.918C32.8146 43.918 32.8615 43.9289 32.9043 43.9499L45.6049 51.1559C45.6417 51.176 45.6743 51.2033 45.7005 51.2362C45.7268 51.2691 45.7463 51.307 45.7578 51.3477C45.7694 51.3883 45.7728 51.4309 45.7679 51.4729C45.763 51.5149 45.7498 51.5555 45.7291 51.5923L44.8401 53.2054C44.7987 53.2803 44.7311 53.3369 44.6506 53.364C44.5667 53.3861 44.4776 53.3742 44.4022 53.331L34.4012 47.6587V64.53C34.3946 64.6113 34.358 64.687 34.2986 64.7422C34.2392 64.7973 34.1615 64.8278 34.0809 64.8275ZM32.5775 64.1664H33.7606V47.0836C33.7594 47.0272 33.7734 46.9717 33.801 46.9228C33.8286 46.8739 33.8689 46.8335 33.9175 46.8059C33.9664 46.7781 34.0215 46.7635 34.0776 46.7635C34.1337 46.7635 34.1889 46.7781 34.2378 46.8059L44.4414 52.5905L45.0166 51.546L32.7213 44.5714L32.5775 44.6177V64.1664Z" fill="#292A2A"/>
<path d="M58.9525 79.4711L58.7564 43.9568L45.9578 36.9689V72.1527L44.1406 71.6437V33.8816L60.5671 42.8593L60.7762 79.4645L58.9525 79.4711Z" fill="#292A2A"/>
<path d="M58.9525 79.7947C58.8692 79.7931 58.7896 79.7593 58.7301 79.7004C58.6705 79.6414 58.6355 79.5616 58.6322 79.4774L58.4361 44.1548L46.2781 37.5107V72.1524C46.2792 72.2026 46.2685 72.2523 46.247 72.2976C46.2254 72.3428 46.1935 72.3822 46.1539 72.4125C46.1144 72.4428 46.0683 72.4632 46.0194 72.472C45.9705 72.4808 45.9203 72.4778 45.8728 72.4631L44.0556 71.9541C43.9883 71.9353 43.9288 71.8948 43.8863 71.8387C43.8438 71.7826 43.8207 71.714 43.8203 71.6434V33.8813C43.8205 33.8252 43.835 33.7702 43.8625 33.7215C43.89 33.6728 43.9295 33.6322 43.9772 33.6036C44.0255 33.5776 44.0793 33.564 44.1341 33.564C44.1888 33.564 44.2427 33.5776 44.2909 33.6036L60.7174 42.5814C60.7679 42.6077 60.8105 42.6475 60.8404 42.6964C60.8703 42.7453 60.8866 42.8015 60.8873 42.859L61.0965 79.4708C61.096 79.5549 61.0632 79.6355 61.005 79.6956C60.9435 79.7561 60.862 79.7915 60.7762 79.7947H58.9525ZM45.9578 36.6777C46.0105 36.6774 46.0623 36.6911 46.1081 36.7174L58.9068 43.6986C58.9562 43.7275 58.9972 43.7689 59.0259 43.8187C59.0546 43.8686 59.0698 43.9252 59.0702 43.9829L59.2728 79.1733H60.4363L60.2337 43.0838L44.4413 34.4565V71.4318L45.6179 71.7623V36.9686C45.6193 36.9128 45.6343 36.8583 45.6617 36.8098C45.6891 36.7613 45.7279 36.7205 45.7748 36.691C45.8337 36.6712 45.8966 36.6666 45.9578 36.6777Z" fill="#292A2A"/>
<path d="M44.9272 35.5537C44.7507 34.9521 44.5742 34.3439 44.4043 33.7423L70.0212 19.3501L86.2908 28.2353C85.8463 28.6981 85.3952 29.1542 84.9442 29.617L70.0277 21.4722L44.9272 35.5537Z" fill="#292A2A"/>
<path d="M44.9197 35.8781H44.8021C44.7581 35.8586 44.7188 35.8296 44.6872 35.793C44.6556 35.7564 44.6323 35.7133 44.6191 35.6666L44.0961 33.8485C44.0766 33.7787 44.0807 33.7043 44.108 33.6371C44.1353 33.57 44.184 33.5141 44.2465 33.4783L69.8633 19.0928C69.911 19.0684 69.9636 19.0557 70.017 19.0557C70.0703 19.0557 70.123 19.0684 70.1706 19.0928L86.4401 27.978C86.4843 27.9997 86.5224 28.0322 86.551 28.0726C86.5795 28.113 86.5976 28.1601 86.6036 28.2094C86.6128 28.2591 86.61 28.3105 86.5951 28.3588C86.5803 28.4072 86.554 28.4512 86.5186 28.487L85.172 29.8753C85.1235 29.9252 85.0599 29.9574 84.9914 29.967C84.9228 29.9766 84.853 29.9629 84.7929 29.9282L70.0333 21.8496L45.0766 35.8649C45.0263 35.8827 44.9723 35.8873 44.9197 35.8781ZM44.7825 33.8948L45.1158 35.0716L69.8764 21.1885C69.9235 21.1624 69.9764 21.1488 70.03 21.1488C70.0837 21.1488 70.1365 21.1624 70.1836 21.1885L84.8844 29.2407L85.7669 28.335L70.0202 19.7407L44.7825 33.8948Z" fill="#292A2A"/>
<path d="M44.0956 37.9141L32.2578 44.4127L32.3885 44.6507L33.1272 46.0324L44.9649 39.5271L44.0956 37.9141Z" fill="#292A2A"/>
<path d="M33.127 46.3563H33.0355C32.955 46.3293 32.8873 46.2726 32.846 46.1977L31.9766 44.578C31.9371 44.5025 31.9287 44.4143 31.9532 44.3326C31.9777 44.2509 32.0331 44.1823 32.1073 44.1417L43.9451 37.643C43.9815 37.6221 44.0216 37.6088 44.0631 37.6038C44.1047 37.5988 44.1468 37.6022 44.187 37.6139C44.2271 37.6257 44.2646 37.6454 44.2972 37.6719C44.3297 37.6985 44.3567 37.7314 44.3765 37.7686L45.2459 39.3883C45.2749 39.4672 45.2749 39.5541 45.2459 39.6329C45.2346 39.6743 45.2147 39.7127 45.1877 39.7458C45.1607 39.7788 45.127 39.8057 45.089 39.8247L33.2578 46.3299C33.2163 46.3472 33.1719 46.3562 33.127 46.3563ZM32.6891 44.5449L33.2578 45.5961L44.5334 39.4016L43.9647 38.3504L32.6891 44.5449Z" fill="#292A2A"/>
<path d="M56.2072 72.0335L48.3633 67.2802V43.355L56.2072 47.586V72.0335ZM50.1674 66.2357L54.3835 68.7875V48.6901L50.1674 46.4225V66.2357Z" fill="#292A2A"/>
<path d="M56.2072 72.377C56.1498 72.375 56.0938 72.3591 56.0438 72.3307L48.1999 67.5774C48.1522 67.5488 48.1127 67.5082 48.0852 67.4595C48.0577 67.4109 48.0431 67.3558 48.043 67.2998V43.3547C48.0425 43.2985 48.0568 43.2432 48.0843 43.1944C48.1119 43.1456 48.1518 43.1051 48.1999 43.077C48.2481 43.051 48.302 43.0374 48.3567 43.0374C48.4115 43.0374 48.4653 43.051 48.5136 43.077L56.3575 47.3147C56.4091 47.3416 56.4522 47.3823 56.4822 47.4325C56.5122 47.4827 56.5279 47.5403 56.5275 47.5989V72.0597C56.5266 72.1164 56.5111 72.1719 56.4824 72.2206C56.4538 72.2693 56.4129 72.3096 56.3641 72.3374C56.3154 72.3625 56.2618 72.376 56.2072 72.377ZM48.6705 67.0882L55.8607 71.4581V47.7775L48.6705 43.8902V67.0882ZM54.39 69.1046C54.3328 69.1016 54.277 69.0858 54.2266 69.0583L49.9778 66.5131C49.9301 66.4845 49.8906 66.4438 49.8631 66.3952C49.8356 66.3465 49.8211 66.2914 49.8209 66.2354V46.4024C49.8202 46.347 49.8345 46.2925 49.8621 46.2448C49.8897 46.197 49.9298 46.1578 49.9778 46.1313C50.0255 46.1034 50.0796 46.0888 50.1347 46.0888C50.1898 46.0888 50.2439 46.1034 50.2916 46.1313L54.5077 48.4055C54.5592 48.4324 54.6024 48.4732 54.6324 48.5234C54.6624 48.5735 54.678 48.6311 54.6776 48.6898V68.7872C54.6744 68.8721 54.6396 68.9526 54.5802 69.0127C54.5208 69.0727 54.4412 69.1079 54.3573 69.1112L54.39 69.1046ZM50.4681 66.0437L54.0436 68.2121V48.8815L50.4681 46.9577V66.0437Z" fill="#292A2A"/>
<path d="M41.5992 64.444L36.6641 61.4823V53.2053L41.5992 56.0943V64.444ZM38.4812 60.4311L39.7885 61.2112V57.1521L38.4812 56.3918V60.4311Z" fill="#292A2A"/>
<path d="M80.913 44.3698L64.4766 53.6794L65.3677 55.2887L81.8042 45.9791L80.913 44.3698Z" fill="#292A2A"/>
<path d="M65.3668 55.6053C65.3106 55.6051 65.2555 55.5897 65.2072 55.5606C65.1589 55.5316 65.1192 55.4899 65.0923 55.44L64.2033 53.8666C64.1815 53.8304 64.1672 53.7902 64.1613 53.7482C64.1554 53.7063 64.158 53.6636 64.169 53.6227C64.18 53.5819 64.1992 53.5437 64.2253 53.5106C64.2515 53.4775 64.284 53.4502 64.321 53.4303L80.7605 44.1154C80.7974 44.0943 80.838 44.0808 80.88 44.0758C80.922 44.0707 80.9647 44.0741 81.0054 44.0858C81.0461 44.0975 81.0841 44.1172 81.1173 44.1438C81.1504 44.1705 81.178 44.2035 81.1984 44.241L82.0874 45.8474C82.1034 45.8862 82.1117 45.9277 82.1117 45.9697C82.1117 46.0117 82.1034 46.0533 82.0874 46.092C82.0772 46.1329 82.0586 46.1712 82.0326 46.2043C82.0067 46.2373 81.9742 46.2644 81.9371 46.2838L65.4976 55.5987C65.4549 55.6098 65.4104 55.612 65.3668 55.6053ZM64.9158 53.8005L65.491 54.845L81.3553 45.8474L80.7736 44.8029L64.9158 53.8005Z" fill="#292A2A"/>
<path d="M81.441 54.7517L64.1973 64.5786L65.0925 66.1855L82.3363 56.3586L81.441 54.7517Z" fill="#292A2A"/>
<path d="M65.0982 66.5001C65.0702 66.5064 65.0412 66.5064 65.0132 66.5001C64.9726 66.4902 64.9346 66.4715 64.9018 66.4452C64.8691 66.419 64.8424 66.3858 64.8236 66.3481L63.9281 64.7482C63.9073 64.7109 63.894 64.6698 63.889 64.6273C63.884 64.5848 63.8873 64.5417 63.8989 64.5005C63.9104 64.4593 63.9299 64.4209 63.9563 64.3874C63.9826 64.3538 64.0152 64.3259 64.0523 64.3053L81.2893 54.4813C81.3255 54.4591 81.3658 54.4445 81.4078 54.4385C81.4497 54.4324 81.4925 54.4351 81.5334 54.4462C81.5743 54.4573 81.6126 54.4767 81.6459 54.5032C81.6792 54.5297 81.7069 54.5627 81.7272 54.6003L82.6228 56.2068C82.6627 56.2815 82.6721 56.369 82.6489 56.4506C82.6257 56.5322 82.5717 56.6014 82.4986 56.6431L65.255 66.4737C65.2059 66.496 65.1518 66.5051 65.0982 66.5001ZM64.6406 64.6953L65.2224 65.7398L81.9103 56.2266L81.3547 55.1887L64.6406 64.6953Z" fill="#292A2A"/>
<path d="M60.7446 81.6463L25.3359 60.9736L26.2511 59.3804L60.7708 79.5373L94.48 60.7687L95.3624 62.3818L60.7446 81.6463Z" fill="#292A2A"/>
<path d="M60.7497 81.9699C60.6928 81.9702 60.6368 81.9566 60.5863 81.9303L25.1776 61.251C25.1037 61.2074 25.0497 61.1362 25.0272 61.0527C24.9987 60.9737 24.9987 60.8871 25.0272 60.8081L25.9423 59.2148C25.9847 59.142 26.0535 59.0888 26.1341 59.0666C26.2147 59.0444 26.3007 59.0549 26.3738 59.0958L60.7431 79.1603L94.3281 60.4775C94.3664 60.4614 94.4075 60.453 94.4491 60.453C94.4906 60.453 94.5317 60.4614 94.57 60.4775C94.6533 60.5026 94.7236 60.5595 94.7661 60.6362L95.642 62.2493C95.6819 62.324 95.6913 62.4115 95.6681 62.4931C95.6449 62.5748 95.5909 62.6439 95.5178 62.6856L60.8739 81.9501C60.8343 81.9655 60.792 81.9722 60.7497 81.9699ZM25.792 60.8544L60.7693 81.2758L94.9491 62.2559L94.3804 61.2048L60.9458 79.8147C60.8985 79.844 60.8442 79.8594 60.7889 79.8594C60.7335 79.8594 60.6792 79.844 60.632 79.8147L26.3672 59.8164L25.792 60.8544Z" fill="#292A2A"/>
<path d="M24.6212 65.2848L23.7129 66.8843L61.1177 88.6115L62.0259 87.0121L24.6212 65.2848Z" fill="#292A2A"/>
<path d="M61.1226 88.9049C61.0673 88.9029 61.0134 88.887 60.9657 88.8587L23.5568 67.1349C23.4843 67.0908 23.4316 67.02 23.4096 66.9374C23.3877 66.8548 23.3983 66.7669 23.4391 66.692L24.3477 65.0987C24.3665 65.061 24.3932 65.0278 24.4259 65.0016C24.4586 64.9753 24.4966 64.9566 24.5373 64.9467C24.5775 64.9339 24.62 64.9303 24.6618 64.936C24.7036 64.9417 24.7437 64.9566 24.7791 64.9797L62.188 86.7035C62.225 86.7234 62.2575 86.7507 62.2837 86.7838C62.3098 86.8169 62.3289 86.8551 62.34 86.896C62.351 86.9368 62.3536 86.9795 62.3477 87.0215C62.3418 87.0634 62.3275 87.1037 62.3057 87.1398L61.3971 88.7397C61.3702 88.7896 61.3305 88.8312 61.2822 88.8603C61.2339 88.8894 61.1788 88.9048 61.1226 88.9049ZM24.1516 66.7383L61.0049 88.1381L61.5932 87.1001L24.7399 65.7003L24.1516 66.7383Z" fill="#292A2A"/>
<path d="M60.6013 81.5266L25.0488 60.9465L25.9509 59.3532L60.621 79.4177L97.2193 59.1946L98.0952 60.8143L60.6013 81.5266Z" fill="#292A2A"/>
<path d="M60.6014 81.8508C60.5457 81.8519 60.491 81.8357 60.4445 81.8046L24.892 61.2311C24.8182 61.1874 24.7642 61.1162 24.7417 61.0328C24.7291 60.9921 24.7255 60.9491 24.7311 60.9068C24.7368 60.8645 24.7515 60.824 24.7744 60.7882L25.6764 59.1883C25.72 59.115 25.79 59.0617 25.8717 59.0395C25.9533 59.0173 26.0403 59.028 26.1144 59.0693L60.6276 79.0478L97.0429 58.9106C97.1177 58.8699 97.2053 58.8602 97.287 58.8836C97.3688 58.9071 97.4383 58.9618 97.4809 59.0362L98.3502 60.6559C98.3678 60.6942 98.3769 60.736 98.3769 60.7782C98.3769 60.8205 98.3678 60.8622 98.3502 60.9005C98.339 60.941 98.3199 60.9787 98.2941 61.0117C98.2682 61.0446 98.2362 61.0719 98.1999 61.0923L60.6995 81.8112C60.6693 81.8301 60.6362 81.8435 60.6014 81.8508ZM25.4869 60.8278L60.608 81.1567L97.6639 60.6625L97.0952 59.6114L60.7779 79.6824C60.7302 79.7103 60.6761 79.7249 60.621 79.7249C60.566 79.7249 60.5118 79.7103 60.4641 79.6824L26.0751 59.8163L25.4869 60.8278Z" fill="#292A2A"/>
<path d="M97.3948 65.2306L59.834 86.855L60.7362 88.4579L98.297 66.8336L97.3948 65.2306Z" fill="#292A2A"/>
<path d="M60.7445 88.7594C60.6879 88.7604 60.6322 88.7462 60.5828 88.7184C60.5334 88.6905 60.4922 88.6499 60.4634 88.6007L59.5614 87.0009C59.5454 86.9621 59.5371 86.9205 59.5371 86.8786C59.5371 86.8366 59.5454 86.795 59.5614 86.7563C59.5715 86.7145 59.5901 86.6753 59.6159 86.6411C59.6418 86.607 59.6744 86.5787 59.7117 86.5579L97.2775 64.9399C97.3132 64.9178 97.353 64.9033 97.3945 64.8974C97.4359 64.8914 97.4782 64.8941 97.5186 64.9052C97.559 64.9164 97.5967 64.9358 97.6294 64.9622C97.6621 64.9886 97.6892 65.0215 97.7089 65.0589L98.6109 66.6588C98.6514 66.7334 98.663 66.8206 98.6436 66.9034C98.619 66.9841 98.5653 67.0525 98.4933 67.0951L60.9275 88.7197C60.8712 88.7497 60.8079 88.7634 60.7445 88.7594ZM60.2804 86.9612L60.8621 87.9991L97.8723 66.6984L97.284 65.6605L60.2804 86.9612Z" fill="#292A2A"/>
<path d="M60.5678 79.4778L58.7441 79.4645L58.986 42.8726L86.2893 27.231L86.2305 66.9168H84.4133L84.4656 30.391L60.7966 43.9502L60.5678 79.4778Z" fill="#292A2A"/>
<path d="M60.5691 79.7948H58.7454C58.6616 79.7931 58.5818 79.7582 58.5231 79.6976C58.4645 79.637 58.4316 79.5556 58.4316 79.4709L58.667 42.8789C58.6684 42.8224 58.6842 42.7671 58.7128 42.7185C58.7415 42.6699 58.7819 42.6295 58.8304 42.6013L86.1337 26.9596C86.1826 26.9318 86.2378 26.9172 86.2938 26.9172C86.3499 26.9172 86.4051 26.9318 86.454 26.9596C86.5026 26.9872 86.5428 27.0276 86.5705 27.0765C86.5981 27.1254 86.6121 27.181 86.6109 27.2373L86.5586 66.9033C86.5586 66.9892 86.5248 67.0716 86.4648 67.1324C86.4047 67.1931 86.3232 67.2273 86.2383 67.2273H84.4146C84.3727 67.2277 84.3312 67.2191 84.2929 67.202C84.2545 67.1849 84.2203 67.1597 84.1923 67.1281C84.1317 67.0691 84.0965 66.9884 84.0943 66.9033L84.1466 30.9328L61.092 44.135L60.8633 79.4775C60.8634 79.5192 60.8553 79.5605 60.8396 79.5991C60.8239 79.6376 60.8009 79.6727 60.7717 79.7022C60.717 79.7561 60.6453 79.7888 60.5691 79.7948ZM59.0722 79.1337H60.2554L60.4841 43.9301C60.4843 43.8732 60.4995 43.8175 60.5283 43.7686C60.557 43.7198 60.5982 43.6797 60.6476 43.6524L84.31 30.0999C84.3585 30.0708 84.4138 30.0554 84.4701 30.0554C84.5265 30.0554 84.5818 30.0708 84.6303 30.0999C84.678 30.1285 84.7175 30.1691 84.745 30.2178C84.7725 30.2664 84.787 30.3215 84.7872 30.3775L84.7349 66.5794H85.9311L85.9834 27.7728L59.3206 43.0442L59.0722 79.1337Z" fill="#292A2A"/>
<path d="M400 99.7403H0V0H400V99.7403ZM5.11161 94.5771H394.895V5.1632H5.11161V94.5771Z" fill="#222323"/>
<path d="M121.894 2.58496H116.789V95.3506H121.894V2.58496Z" fill="#222323"/>
</g>
<defs>
<clipPath id="clip0">
<rect width="400" height="99.7403" fill="white"/>
</clipPath>
</defs>
</svg>
