<svg width="20" height="19" viewBox="0 0 20 19" fill="none" xmlns="http://www.w3.org/2000/svg">
<path d="M18.487 1.51304C16.4696 -0.504348 13.1981 -0.504348 11.1808 1.51304L1.13524 11.5585C-0.378414 13.0722 -0.378414 15.5248 1.13524 17.0385C2.38285 18.2861 4.26462 18.4876 5.73568 17.6778C5.88935 17.6701 6.04046 17.612 6.15802 17.4957L16.2035 7.45022C17.2122 6.44155 17.2122 4.80646 16.2035 3.7978C15.1948 2.78913 13.5598 2.78913 12.5511 3.7978L4.33178 12.0171C4.07991 12.2689 4.07991 12.6783 4.33178 12.9301C4.58364 13.182 4.99306 13.182 5.24487 12.9301L13.4642 4.71089C13.9692 4.2059 14.7867 4.2059 15.2904 4.71089C15.7954 5.21588 15.7954 6.03339 15.2904 6.53713L5.70082 16.1267C4.69215 17.1353 3.05706 17.1353 2.04839 16.1267C1.03972 15.118 1.03972 13.4829 2.04839 12.4743L12.0939 2.42614C13.6075 0.91248 16.0601 0.91248 17.5739 2.42614C19.0875 3.93979 19.0875 6.3924 17.5739 7.90611L8.44146 17.0385C8.18959 17.2904 8.18959 17.6998 8.44146 17.9516C8.69333 18.2035 9.10274 18.2035 9.35455 17.9516L18.487 8.81921C20.5043 6.80187 20.5043 3.53044 18.487 1.51304Z" fill="#00A8D0"/>
</svg>
