<svg width="12" height="17" viewBox="0 0 12 17" fill="none" xmlns="http://www.w3.org/2000/svg">
<path d="M11.7165 4.23114C11.6545 4.00435 11.5286 3.76269 11.4354 3.55112C10.3208 0.936889 7.88541 0 5.91894 0C3.28646 0 0.38709 1.72271 0 5.27363V5.99911C0 6.02938 0.0106918 6.30135 0.0258789 6.43739C0.242873 8.12967 1.61113 9.9282 2.63301 11.6205C3.7324 13.4336 4.87317 15.2172 6.00338 17C6.70029 15.8366 7.39469 14.6578 8.07572 13.5245C8.26133 13.1919 8.47678 12.8595 8.66259 12.542C8.78644 12.3307 9.02303 12.1193 9.13113 11.9226C10.2305 9.95828 12 7.97877 12 6.02934V5.2285C12 5.01716 11.7316 4.27671 11.7165 4.23114ZM5.96713 7.873C5.19332 7.873 4.34632 7.49539 3.92825 6.45253C3.86596 6.28653 3.87098 5.95385 3.87098 5.92338V5.45493C3.87098 4.12549 5.02764 3.52092 6.03388 3.52092C7.27266 3.52092 8.23075 4.48816 8.23075 5.69714C8.23075 6.90608 7.20592 7.873 5.96713 7.873Z" fill="white"/>
</svg>
