<svg width="100" height="100" viewBox="0 0 100 100" fill="none" xmlns="http://www.w3.org/2000/svg">
<circle r="49" transform="matrix(1 1.74846e-07 1.74846e-07 -1 50 50)" stroke="#292A2A" stroke-width="2"/>
<path d="M63.7071 49.2929C64.0976 49.6834 64.0976 50.3166 63.7071 50.7071L57.3431 57.0711C56.9526 57.4616 56.3195 57.4616 55.9289 57.0711C55.5384 56.6805 55.5384 56.0474 55.9289 55.6569L61.5858 50L55.9289 44.3431C55.5384 43.9526 55.5384 43.3195 55.9289 42.9289C56.3195 42.5384 56.9526 42.5384 57.3431 42.9289L63.7071 49.2929ZM38 49L63 49L63 51L38 51L38 49Z" fill="#292A2A"/>
</svg>
