<svg width="23" height="14" viewBox="0 0 23 14" fill="none" xmlns="http://www.w3.org/2000/svg">
<path fill-rule="evenodd" clip-rule="evenodd" d="M11.253 13.9426H12.6278C12.6278 13.9426 13.0431 13.8975 13.2551 13.671C13.4502 13.4631 13.444 13.0727 13.444 13.0727C13.444 13.0727 13.4171 11.245 14.2733 10.9759C15.1173 10.7108 16.2011 12.7423 17.3498 13.5235C18.2185 14.1146 18.8785 13.985 18.8785 13.985L21.9501 13.9426C21.9501 13.9426 23.5568 13.8446 22.795 12.5929C22.7325 12.4905 22.3513 11.667 20.5113 9.97482C18.5853 8.20374 18.8433 8.49021 21.1632 5.42663C22.5761 3.56089 23.1409 2.42183 22.9645 1.93398C22.7962 1.46932 21.7571 1.59214 21.7571 1.59214L18.2987 1.61348C18.2987 1.61348 18.0424 1.57883 17.8522 1.69144C17.6664 1.80188 17.5468 2.05927 17.5468 2.05927C17.5468 2.05927 16.9995 3.50304 16.2695 4.73088C14.7295 7.32176 14.1137 7.4585 13.8621 7.29763C13.2766 6.92269 13.4228 5.79136 13.4228 4.98765C13.4228 2.4769 13.8071 1.43003 12.6743 1.15904C12.2984 1.06901 12.0217 1.00962 11.0603 1.00003C9.82637 0.987341 8.78192 1.00374 8.19054 1.29082C7.79711 1.4817 7.49361 1.90706 7.67846 1.9315C7.90702 1.96182 8.42472 2.06979 8.69918 2.44009C9.05357 2.91774 9.04108 3.99059 9.04108 3.99059C9.04108 3.99059 9.24466 6.9462 8.56554 7.31341C8.09936 7.56522 7.45989 7.05107 6.08697 4.70057C5.38349 3.49655 4.85237 2.16569 4.85237 2.16569C4.85237 2.16569 4.74996 1.91696 4.56729 1.78394C4.3456 1.62276 4.03586 1.57141 4.03586 1.57141L0.749524 1.59275C0.749524 1.59275 0.256184 1.60637 0.0750839 1.8189C-0.0860324 2.00791 0.0622819 2.39894 0.0622819 2.39894C0.0622819 2.39894 2.63515 8.36275 5.54835 11.3682C8.21957 14.1236 11.253 13.9426 11.253 13.9426Z" fill="#00A8D0"/>
</svg>
