<svg width="112" height="40" viewBox="0 0 112 40" fill="none" xmlns="http://www.w3.org/2000/svg">
<g clip-path="url(#clip0)">
<path d="M7.58988 -0.00280762L5.68879 5.23033H32.0318L33.9329 -0.00280762H7.58988ZM4.73881 7.84519L2.83772 13.0772H29.1808L31.0819 7.84519H4.73881ZM1.8923 15.6932L-0.00878906 20.9252H26.3343L28.2342 15.6932H1.8923Z" fill="#8A8A8A"/>
<path d="M55.9964 22.92V23.0309C57.2003 23.4743 58.3508 24.2514 58.9534 24.7497C60.8146 26.3029 61.637 28.3543 61.637 31.016C61.637 35.3989 59.3372 38.5589 55.559 39.5577C54.4085 39.8903 53.2045 40.0011 50.9594 40.0011H39.5176V7.94629H49.6472C51.7283 7.94629 53.151 8.05715 54.4096 8.38857C58.0786 9.38743 60.4877 11.9383 60.4877 15.9863C60.4877 18.1497 59.7211 19.9806 58.4624 21.2C57.9145 21.7543 57.1479 22.4206 55.9986 22.9189L55.9964 22.92ZM45.8678 26.3029V34.7326H50.2487C51.562 34.7326 52.7671 34.6217 53.6431 33.7897C54.519 32.9577 54.9017 31.904 54.9017 30.5177C54.9017 29.4651 54.6272 28.4663 54.0805 27.7451C53.1498 26.5806 51.9994 26.3029 50.0288 26.3029H45.8667H45.8678ZM45.812 20.7566H49.3716C50.4662 20.7566 51.0141 20.7566 51.5609 20.5909C53.0405 20.1463 53.9711 18.8171 53.9711 16.9863C53.9711 14.824 52.9858 13.88 51.5609 13.4377C50.9583 13.2709 50.3569 13.216 49.1517 13.216H45.812V20.7577V20.7566ZM71.1629 40.0023V13.3257H62.0197V7.94743H87.4264L85.6199 13.3257H77.5155V40.0023H71.1641H71.1629ZM89.397 40.0023V7.94743H109.986L108.179 13.3257H95.6949V20.4251H100.788C104.894 20.4251 107.03 21.424 108.508 22.6983C109.659 23.6971 111.629 25.9143 111.629 30.2971C111.629 34.6229 109.604 37.0069 107.906 38.2274C105.935 39.6126 103.854 40.0023 99.6372 40.0023H89.3982H89.397ZM95.6937 34.6217H100.457C102.264 34.6217 103.358 34.1783 104.125 33.1794C104.508 32.6811 105.056 31.792 105.056 30.1291C105.056 28.4663 104.508 27.3006 103.413 26.4686C102.757 25.9703 101.88 25.6937 100.401 25.6937H95.6926V34.6217H95.6937Z" fill="#8A8A8A"/>
</g>
<defs>
<clipPath id="clip0">
<rect width="111.628" height="40" fill="white"/>
</clipPath>
</defs>
</svg>
