<svg width="24" height="24" viewBox="0 0 24 24" fill="none" xmlns="http://www.w3.org/2000/svg">
<path d="M7.13767 20.5243C8.71039 21.464 10.5428 22 12.5024 22C18.293 22 23 17.29 23 11.5C23 5.70998 18.293 1 12.5024 1H12.4976C6.70703 1 2 5.70871 2 11.5C2 13.6082 2.62443 15.5773 3.70146 17.2242L2.67655 20.2794L2.04866 22.1511L3.92912 21.55L7.13767 20.5243Z" fill="#00A8D0" stroke="white" stroke-width="2"/>
<path d="M18.0302 15.4153C17.801 16.0625 16.8913 16.5993 16.1658 16.756C15.6694 16.8617 15.021 16.946 12.8384 16.0412C10.0466 14.8845 8.24872 12.0476 8.10859 11.8635C7.97441 11.6795 6.98047 10.3613 6.98047 8.99809C6.98047 7.63484 7.67278 6.97103 7.95184 6.68603C8.18103 6.45209 8.55984 6.34521 8.92322 6.34521C9.04078 6.34521 9.14647 6.35115 9.24147 6.3559C9.52053 6.36778 9.66066 6.3844 9.84472 6.82497C10.0739 7.37715 10.632 8.7404 10.6985 8.88053C10.7662 9.02065 10.8339 9.21065 10.7389 9.39472C10.6498 9.58472 10.5715 9.66903 10.4313 9.83053C10.2912 9.99203 10.1582 10.1155 10.0181 10.2889C9.88984 10.4397 9.74497 10.6012 9.90647 10.8803C10.068 11.1534 10.6261 12.0642 11.4478 12.7957C12.5083 13.7398 13.368 14.0414 13.6756 14.1697C13.9048 14.2647 14.1779 14.2421 14.3453 14.064C14.5579 13.8348 14.8203 13.4548 15.0875 13.0807C15.2775 12.8123 15.5174 12.7791 15.7692 12.8741C16.0257 12.9632 17.383 13.6341 17.662 13.773C17.9411 13.9132 18.1252 13.9797 18.1928 14.0972C18.2593 14.2148 18.2593 14.767 18.0302 15.4153Z" fill="#FAFAFA"/>
</svg>
